<?xml version="1.0" encoding="UTF-8" standalone="no"?><svg xmlns="http://www.w3.org/2000/svg" xmlns:xlink="http://www.w3.org/1999/xlink" contentScriptType="application/ecmascript" contentStyleType="text/css" height="784px" preserveAspectRatio="none" style="width:1334px;height:784px;" version="1.1" viewBox="0 0 1334 784" width="1334px" zoomAndPan="magnify"><defs><filter height="300%" id="f1qza56yteynyf" width="300%" x="-1" y="-1"><feGaussianBlur result="blurOut" stdDeviation="2.0"/><feColorMatrix in="blurOut" result="blurOut2" type="matrix" values="0 0 0 0 0 0 0 0 0 0 0 0 0 0 0 0 0 0 .4 0"/><feOffset dx="4.0" dy="4.0" in="blurOut2" result="blurOut3"/><feBlend in="SourceGraphic" in2="blurOut3" mode="normal"/></filter></defs><g><text fill="#000000" font-family="sans-serif" font-size="18" lengthAdjust="spacingAndGlyphs" textLength="675" x="329.5" y="26.708">US-14: Timeline Query - Position Track and Proximity Events Reconstructed</text><line style="stroke: #A80036; stroke-width: 1.0; stroke-dasharray: 5.0,5.0;" x1="41" x2="41" y1="121.25" y2="694.7031"/><line style="stroke: #A80036; stroke-width: 1.0; stroke-dasharray: 5.0,5.0;" x1="376.5" x2="376.5" y1="121.25" y2="694.7031"/><line style="stroke: #A80036; stroke-width: 1.0; stroke-dasharray: 5.0,5.0;" x1="630.5" x2="630.5" y1="121.25" y2="694.7031"/><line style="stroke: #A80036; stroke-width: 1.0; stroke-dasharray: 5.0,5.0;" x1="1064.5" x2="1064.5" y1="121.25" y2="694.7031"/><line style="stroke: #A80036; stroke-width: 1.0; stroke-dasharray: 5.0,5.0;" x1="1175.5" x2="1175.5" y1="121.25" y2="694.7031"/><text fill="#000000" font-family="sans-serif" font-size="14" lengthAdjust="spacingAndGlyphs" textLength="61" x="8" y="117.9482">Operator</text><ellipse cx="41.5" cy="47.9531" fill="#FEFECE" filter="url(#f1qza56yteynyf)" rx="8" ry="8" style="stroke: #A80036; stroke-width: 2.0;"/><path d="M41.5,55.9531 L41.5,82.9531 M28.5,63.9531 L54.5,63.9531 M41.5,82.9531 L28.5,97.9531 M41.5,82.9531 L54.5,97.9531 " fill="none" filter="url(#f1qza56yteynyf)" style="stroke: #A80036; stroke-width: 2.0;"/><text fill="#000000" font-family="sans-serif" font-size="14" lengthAdjust="spacingAndGlyphs" textLength="61" x="8" y="706.6982">Operator</text><ellipse cx="41.5" cy="720" fill="#FEFECE" filter="url(#f1qza56yteynyf)" rx="8" ry="8" style="stroke: #A80036; stroke-width: 2.0;"/><path d="M41.5,728 L41.5,755 M28.5,736 L54.5,736 M41.5,755 L28.5,770 M41.5,755 L54.5,770 " fill="none" filter="url(#f1qza56yteynyf)" style="stroke: #A80036; stroke-width: 2.0;"/><rect fill="#F8F8F8" filter="url(#f1qza56yteynyf)" height="46.5938" style="stroke: #555555; stroke-width: 1.5;" width="90" x="329.5" y="69.6563"/><text fill="#000000" font-family="sans-serif" font-size="14" lengthAdjust="spacingAndGlyphs" textLength="52" x="348.5" y="89.6514">Angular</text><text fill="#000000" font-family="sans-serif" font-size="14" lengthAdjust="spacingAndGlyphs" textLength="76" x="336.5" y="105.9482">Dashboard</text><rect fill="#F8F8F8" filter="url(#f1qza56yteynyf)" height="46.5938" style="stroke: #555555; stroke-width: 1.5;" width="90" x="329.5" y="693.7031"/><text fill="#000000" font-family="sans-serif" font-size="14" lengthAdjust="spacingAndGlyphs" textLength="52" x="348.5" y="713.6982">Angular</text><text fill="#000000" font-family="sans-serif" font-size="14" lengthAdjust="spacingAndGlyphs" textLength="76" x="336.5" y="729.9951">Dashboard</text><rect fill="#F8F8F8" filter="url(#f1qza56yteynyf)" height="30.2969" style="stroke: #555555; stroke-width: 1.5;" width="94" x="581.5" y="85.9531"/><text fill="#000000" font-family="sans-serif" font-size="14" lengthAdjust="spacingAndGlyphs" textLength="80" x="588.5" y="105.9482">Express API</text><rect fill="#F8F8F8" filter="url(#f1qza56yteynyf)" height="30.2969" style="stroke: #555555; stroke-width: 1.5;" width="94" x="581.5" y="693.7031"/><text fill="#000000" font-family="sans-serif" font-size="14" lengthAdjust="spacingAndGlyphs" textLength="80" x="588.5" y="713.6982">Express API</text><text fill="#000000" font-family="sans-serif" font-size="14" lengthAdjust="spacingAndGlyphs" textLength="91" x="1016" y="101.6514">TimescaleDB</text><text fill="#000000" font-family="sans-serif" font-size="14" lengthAdjust="spacingAndGlyphs" textLength="108" x="1007.5" y="117.9482">position_history</text><path d="M1046.5,52.6563 C1046.5,42.6563 1064.5,42.6563 1064.5,42.6563 C1064.5,42.6563 1082.5,42.6563 1082.5,52.6563 L1082.5,78.6563 C1082.5,88.6563 1064.5,88.6563 1064.5,88.6563 C1064.5,88.6563 1046.5,88.6563 1046.5,78.6563 L1046.5,52.6563 " fill="#FEFECE" filter="url(#f1qza56yteynyf)" style="stroke: #000000; stroke-width: 1.5;"/><path d="M1046.5,52.6563 C1046.5,62.6563 1064.5,62.6563 1064.5,62.6563 C1064.5,62.6563 1082.5,62.6563 1082.5,52.6563 " fill="none" style="stroke: #000000; stroke-width: 1.5;"/><text fill="#000000" font-family="sans-serif" font-size="14" lengthAdjust="spacingAndGlyphs" textLength="91" x="1016" y="706.6982">TimescaleDB</text><text fill="#000000" font-family="sans-serif" font-size="14" lengthAdjust="spacingAndGlyphs" textLength="108" x="1007.5" y="722.9951">position_history</text><path d="M1046.5,736.2969 C1046.5,726.2969 1064.5,726.2969 1064.5,726.2969 C1064.5,726.2969 1082.5,726.2969 1082.5,736.2969 L1082.5,762.2969 C1082.5,772.2969 1064.5,772.2969 1064.5,772.2969 C1064.5,772.2969 1046.5,772.2969 1046.5,762.2969 L1046.5,736.2969 " fill="#FEFECE" filter="url(#f1qza56yteynyf)" style="stroke: #000000; stroke-width: 1.5;"/><path d="M1046.5,736.2969 C1046.5,746.2969 1064.5,746.2969 1064.5,746.2969 C1064.5,746.2969 1082.5,746.2969 1082.5,736.2969 " fill="none" style="stroke: #000000; stroke-width: 1.5;"/><text fill="#000000" font-family="sans-serif" font-size="14" lengthAdjust="spacingAndGlyphs" textLength="40" x="1152.5" y="101.6514">Neo4j</text><text fill="#000000" font-family="sans-serif" font-size="14" lengthAdjust="spacingAndGlyphs" textLength="82" x="1131.5" y="117.9482">entity graph</text><path d="M1157.5,52.6563 C1157.5,42.6563 1175.5,42.6563 1175.5,42.6563 C1175.5,42.6563 1193.5,42.6563 1193.5,52.6563 L1193.5,78.6563 C1193.5,88.6563 1175.5,88.6563 1175.5,88.6563 C1175.5,88.6563 1157.5,88.6563 1157.5,78.6563 L1157.5,52.6563 " fill="#FEFECE" filter="url(#f1qza56yteynyf)" style="stroke: #000000; stroke-width: 1.5;"/><path d="M1157.5,52.6563 C1157.5,62.6563 1175.5,62.6563 1175.5,62.6563 C1175.5,62.6563 1193.5,62.6563 1193.5,52.6563 " fill="none" style="stroke: #000000; stroke-width: 1.5;"/><text fill="#000000" font-family="sans-serif" font-size="14" lengthAdjust="spacingAndGlyphs" textLength="40" x="1152.5" y="706.6982">Neo4j</text><text fill="#000000" font-family="sans-serif" font-size="14" lengthAdjust="spacingAndGlyphs" textLength="82" x="1131.5" y="722.9951">entity graph</text><path d="M1157.5,736.2969 C1157.5,726.2969 1175.5,726.2969 1175.5,726.2969 C1175.5,726.2969 1193.5,726.2969 1193.5,736.2969 L1193.5,762.2969 C1193.5,772.2969 1175.5,772.2969 1175.5,772.2969 C1175.5,772.2969 1157.5,772.2969 1157.5,762.2969 L1157.5,736.2969 " fill="#FEFECE" filter="url(#f1qza56yteynyf)" style="stroke: #000000; stroke-width: 1.5;"/><path d="M1157.5,736.2969 C1157.5,746.2969 1175.5,746.2969 1175.5,746.2969 C1175.5,746.2969 1193.5,746.2969 1193.5,736.2969 " fill="none" style="stroke: #000000; stroke-width: 1.5;"/><polygon fill="#A80036" points="364.5,148.3828,374.5,152.3828,364.5,156.3828,368.5,152.3828" style="stroke: #A80036; stroke-width: 1.0;"/><line style="stroke: #A80036; stroke-width: 1.5;" x1="41.5" x2="370.5" y1="152.3828" y2="152.3828"/><text fill="#000000" font-family="sans-serif" font-size="13" lengthAdjust="spacingAndGlyphs" textLength="148" x="48.5" y="147.3169">opens alert for VesselB</text><polygon fill="#A80036" points="618.5,177.5156,628.5,181.5156,618.5,185.5156,622.5,181.5156" style="stroke: #A80036; stroke-width: 1.0;"/><line style="stroke: #A80036; stroke-width: 1.5;" x1="376.5" x2="624.5" y1="181.5156" y2="181.5156"/><text fill="#000000" font-family="sans-serif" font-size="13" lengthAdjust="spacingAndGlyphs" textLength="209" x="383.5" y="176.4497">GET /alerts/:alert_id/investigation</text><polygon fill="#A80036" points="1052.5,267.1797,1062.5,271.1797,1052.5,275.1797,1056.5,271.1797" style="stroke: #A80036; stroke-width: 1.0;"/><line style="stroke: #A80036; stroke-width: 1.5;" x1="630.5" x2="1058.5" y1="271.1797" y2="271.1797"/><text fill="#000000" font-family="sans-serif" font-size="13" lengthAdjust="spacingAndGlyphs" textLength="260" x="637.5" y="205.5825">SELECT timestamp_ms, lat, lon, geo_cell</text><text fill="#000000" font-family="sans-serif" font-size="13" lengthAdjust="spacingAndGlyphs" textLength="140" x="637.5" y="220.7153">FROM position_history</text><text fill="#000000" font-family="sans-serif" font-size="13" lengthAdjust="spacingAndGlyphs" textLength="179" x="637.5" y="235.8481">WHERE entity_id = 'VesselB'</text><text fill="#000000" font-family="sans-serif" font-size="13" lengthAdjust="spacingAndGlyphs" textLength="410" x="637.5" y="250.981">AND timestamp_ms BETWEEN $window_start AND $window_end</text><text fill="#000000" font-family="sans-serif" font-size="13" lengthAdjust="spacingAndGlyphs" textLength="196" x="637.5" y="266.1138">ORDER BY timestamp_ms ASC</text><path d="M913,284.1797 L913,354.1797 L1211,354.1797 L1211,294.1797 L1201,284.1797 L913,284.1797 " fill="#FFFDE7" filter="url(#f1qza56yteynyf)" style="stroke: #AAAAAA; stroke-width: 1.0;"/><path d="M1201,284.1797 L1201,294.1797 L1211,294.1797 L1201,284.1797 " fill="#FFFDE7" style="stroke: #AAAAAA; stroke-width: 1.0;"/><text fill="#000000" font-family="sans-serif" font-size="13" lengthAdjust="spacingAndGlyphs" textLength="277" x="919" y="301.2466">Geo-cell + time-bucket sharding (ADR-006)</text><text fill="#000000" font-family="sans-serif" font-size="13" lengthAdjust="spacingAndGlyphs" textLength="242" x="919" y="316.3794">means this query hits only the chunks</text><text fill="#000000" font-family="sans-serif" font-size="13" lengthAdjust="spacingAndGlyphs" textLength="277" x="919" y="331.5122">covering VesselB's region and time window.</text><text fill="#000000" font-family="sans-serif" font-size="13" lengthAdjust="spacingAndGlyphs" textLength="131" x="919" y="346.645">Not a full table scan.</text><polygon fill="#A80036" points="641.5,380.8438,631.5,384.8438,641.5,388.8438,637.5,384.8438" style="stroke: #A80036; stroke-width: 1.0;"/><line style="stroke: #A80036; stroke-width: 1.5; stroke-dasharray: 2.0,2.0;" x1="635.5" x2="1063.5" y1="384.8438" y2="384.8438"/><text fill="#000000" font-family="sans-serif" font-size="13" lengthAdjust="spacingAndGlyphs" textLength="300" x="647.5" y="379.7778">position track [ { timestamp_ms, lat, lon }, ... ]</text><polygon fill="#A80036" points="1163.5,470.5078,1173.5,474.5078,1163.5,478.5078,1167.5,474.5078" style="stroke: #A80036; stroke-width: 1.0;"/><line style="stroke: #A80036; stroke-width: 1.5;" x1="630.5" x2="1169.5" y1="474.5078" y2="474.5078"/><text fill="#000000" font-family="sans-serif" font-size="13" lengthAdjust="spacingAndGlyphs" textLength="394" x="637.5" y="408.9106">MATCH (b:Entity {id: 'VesselB'})-[e:PROXIMITY_EVENT]-(other)</text><text fill="#000000" font-family="sans-serif" font-size="13" lengthAdjust="spacingAndGlyphs" textLength="438" x="637.5" y="424.0435">WHERE e.timestamp_ms BETWEEN $window_start AND $window_end</text><text fill="#000000" font-family="sans-serif" font-size="13" lengthAdjust="spacingAndGlyphs" textLength="300" x="637.5" y="439.1763">RETURN other.id, e.timestamp_ms, e.lat, e.lon,</text><text fill="#000000" font-family="sans-serif" font-size="13" lengthAdjust="spacingAndGlyphs" textLength="123" x="645.5" y="454.3091">e.distance_metres,</text><text fill="#000000" font-family="sans-serif" font-size="13" lengthAdjust="spacingAndGlyphs" textLength="328" x="645.5" y="469.4419">exists((b)-[:KNOWN_ASSOCIATE]-(other)) AS known</text><path d="M1024,487.5078 L1024,557.5078 L1322,557.5078 L1322,497.5078 L1312,487.5078 L1024,487.5078 " fill="#FFFDE7" filter="url(#f1qza56yteynyf)" style="stroke: #AAAAAA; stroke-width: 1.0;"/><path d="M1312,487.5078 L1312,497.5078 L1322,497.5078 L1312,487.5078 " fill="#FFFDE7" style="stroke: #AAAAAA; stroke-width: 1.0;"/><text fill="#000000" font-family="sans-serif" font-size="13" lengthAdjust="spacingAndGlyphs" textLength="277" x="1030" y="504.5747">Single Cypher traversal from VesselB node.</text><text fill="#000000" font-family="sans-serif" font-size="13" lengthAdjust="spacingAndGlyphs" textLength="266" x="1030" y="519.7075">Returns all proximity events in the window</text><text fill="#000000" font-family="sans-serif" font-size="13" lengthAdjust="spacingAndGlyphs" textLength="247" x="1030" y="534.8403">with a flag indicating whether the other</text><text fill="#000000" font-family="sans-serif" font-size="13" lengthAdjust="spacingAndGlyphs" textLength="189" x="1030" y="549.9731">entity was a known associate.</text><polygon fill="#A80036" points="641.5,584.1719,631.5,588.1719,641.5,592.1719,637.5,588.1719" style="stroke: #A80036; stroke-width: 1.0;"/><line style="stroke: #A80036; stroke-width: 1.5; stroke-dasharray: 2.0,2.0;" x1="635.5" x2="1174.5" y1="588.1719" y2="588.1719"/><text fill="#000000" font-family="sans-serif" font-size="13" lengthAdjust="spacingAndGlyphs" textLength="494" x="647.5" y="583.106">proximity events [ { entity_id, timestamp_ms, distance_metres, known }, ... ]</text><polygon fill="#A80036" points="387.5,628.4375,377.5,632.4375,387.5,636.4375,383.5,632.4375" style="stroke: #A80036; stroke-width: 1.0;"/><line style="stroke: #A80036; stroke-width: 1.5; stroke-dasharray: 2.0,2.0;" x1="381.5" x2="629.5" y1="632.4375" y2="632.4375"/><text fill="#000000" font-family="sans-serif" font-size="13" lengthAdjust="spacingAndGlyphs" textLength="144" x="393.5" y="612.2388">investigation response</text><text fill="#000000" font-family="sans-serif" font-size="13" lengthAdjust="spacingAndGlyphs" textLength="230" x="393.5" y="627.3716">{ position_track, proximity_events }</text><polygon fill="#A80036" points="52.5,672.7031,42.5,676.7031,52.5,680.7031,48.5,676.7031" style="stroke: #A80036; stroke-width: 1.0;"/><line style="stroke: #A80036; stroke-width: 1.5; stroke-dasharray: 2.0,2.0;" x1="46.5" x2="375.5" y1="676.7031" y2="676.7031"/><text fill="#000000" font-family="sans-serif" font-size="13" lengthAdjust="spacingAndGlyphs" textLength="187" x="58.5" y="656.5044">entity track rendered on map</text><text fill="#000000" font-family="sans-serif" font-size="13" lengthAdjust="spacingAndGlyphs" textLength="311" x="58.5" y="671.6372">proximity events overlaid as markers on timeline</text><!--MD5=[cd368bbd69b5a15ba6b265ae80916ec6]
@startuml timeline-query
title US-14: Timeline Query - Position Track and Proximity Events Reconstructed

skinparam sequenceArrowThickness 1.5
skinparam participantBorderColor #555555
skinparam participantBackgroundColor #F8F8F8
skinparam noteBorderColor #AAAAAA
skinparam noteBackgroundColor #FFFDE7

actor Operator
participant "Angular\nDashboard" as Dashboard
participant "Express API" as API
database "TimescaleDB\nposition_history" as TSDB
database "Neo4j\nentity graph" as Neo4j

Operator -> Dashboard : opens alert for VesselB
Dashboard -> API : GET /alerts/:alert_id/investigation

API -> TSDB : SELECT timestamp_ms, lat, lon, geo_cell\nFROM position_history\nWHERE entity_id = 'VesselB'\nAND timestamp_ms BETWEEN $window_start AND $window_end\nORDER BY timestamp_ms ASC

note over TSDB
  Geo-cell + time-bucket sharding (ADR-006)
  means this query hits only the chunks
  covering VesselB's region and time window.
  Not a full table scan.
end note

TSDB - -> API : position track [ { timestamp_ms, lat, lon }, ... ]

API -> Neo4j : MATCH (b:Entity {id: 'VesselB'})-[e:PROXIMITY_EVENT]-(other)\nWHERE e.timestamp_ms BETWEEN $window_start AND $window_end\nRETURN other.id, e.timestamp_ms, e.lat, e.lon,\n  e.distance_metres,\n  exists((b)-[:KNOWN_ASSOCIATE]-(other)) AS known

note over Neo4j
  Single Cypher traversal from VesselB node.
  Returns all proximity events in the window
  with a flag indicating whether the other
  entity was a known associate.
end note

Neo4j - -> API : proximity events [ { entity_id, timestamp_ms, distance_metres, known }, ... ]

API - -> Dashboard : investigation response\n{ position_track, proximity_events }
Dashboard - -> Operator : entity track rendered on map\nproximity events overlaid as markers on timeline

@enduml

PlantUML version 1.2020.02(Sun Mar 01 10:22:07 UTC 2020)
(GPL source distribution)
Java Runtime: OpenJDK Runtime Environment
JVM: OpenJDK 64-Bit Server VM
Java Version: 17.0.19+10
Operating System: Linux
Default Encoding: UTF-8
Language: en
Country: null
--></g></svg>