<?xml version="1.0" encoding="UTF-8" standalone="no"?><svg xmlns="http://www.w3.org/2000/svg" xmlns:xlink="http://www.w3.org/1999/xlink" contentScriptType="application/ecmascript" contentStyleType="text/css" height="1518px" preserveAspectRatio="none" style="width:1189px;height:1518px;" version="1.1" viewBox="0 0 1189 1518" width="1189px" zoomAndPan="magnify"><defs><filter height="300%" id="fmm4494tiptf4" width="300%" x="-1" y="-1"><feGaussianBlur result="blurOut" stdDeviation="2.0"/><feColorMatrix in="blurOut" result="blurOut2" type="matrix" values="0 0 0 0 0 0 0 0 0 0 0 0 0 0 0 0 0 0 .4 0"/><feOffset dx="4.0" dy="4.0" in="blurOut2" result="blurOut3"/><feBlend in="SourceGraphic" in2="blurOut3" mode="normal"/></filter></defs><g><text fill="#000000" font-family="monospace" font-size="13" lengthAdjust="spacingAndGlyphs" textLength="544" x="321.75" y="22.0669">Composite Claim + Decision Protocol (Pre-CP3A) — Not Yet Implemented</text><ellipse cx="646.5" cy="35.1328" fill="#000000" filter="url(#fmm4494tiptf4)" rx="10" ry="10" style="stroke: none; stroke-width: 1.0;"/><rect fill="#F5F5F5" filter="url(#fmm4494tiptf4)" height="50.2656" rx="12.5" ry="12.5" style="stroke: #888888; stroke-width: 1.5;" width="388" x="452.5" y="65.1328"/><text fill="#000000" font-family="monospace" font-size="13" lengthAdjust="spacingAndGlyphs" textLength="288" x="462.5" y="87.1997">proximity.candidates message arrives</text><text fill="#000000" font-family="monospace" font-size="13" lengthAdjust="spacingAndGlyphs" textLength="368" x="462.5" y="102.3325">(candidate_id = {pair_key}:{episode_start_ms})</text><path d="M800.5,189.9648 L800.5,213.6641 L780.5,217.6641 L800.5,221.6641 L800.5,245.3633 A0,0 0 0 0 800.5,245.3633 L1093.5,245.3633 A0,0 0 0 0 1093.5,245.3633 L1093.5,199.9648 L1083.5,189.9648 L800.5,189.9648 A0,0 0 0 0 800.5,189.9648 " fill="#FAFAFA" filter="url(#fmm4494tiptf4)" style="stroke: #AAAAAA; stroke-width: 1.0;"/><path d="M1083.5,189.9648 L1083.5,199.9648 L1093.5,199.9648 L1083.5,189.9648 " fill="#FAFAFA" style="stroke: #AAAAAA; stroke-width: 1.0;"/><text fill="#000000" font-family="monospace" font-size="13" lengthAdjust="spacingAndGlyphs" textLength="272" x="806.5" y="207.0317">Closes both redelivery directions:</text><text fill="#000000" font-family="monospace" font-size="13" lengthAdjust="spacingAndGlyphs" textLength="224" x="806.5" y="222.1646">COMPOSITE -&gt; UNSCHEDULED and</text><text fill="#000000" font-family="monospace" font-size="13" lengthAdjust="spacingAndGlyphs" textLength="200" x="806.5" y="237.2974">UNSCHEDULED -&gt; COMPOSITE.</text><rect fill="#F5F5F5" filter="url(#fmm4494tiptf4)" height="65.3984" rx="12.5" ry="12.5" style="stroke: #888888; stroke-width: 1.5;" width="268" x="512.5" y="184.9648"/><text fill="#000000" font-family="monospace" font-size="13" lengthAdjust="spacingAndGlyphs" textLength="248" x="522.5" y="207.0317">replay the recorded decision --</text><text fill="#000000" font-family="monospace" font-size="13" lengthAdjust="spacingAndGlyphs" textLength="232" x="522.5" y="222.1646">do NOT re-resolve CP2 against</text><text fill="#000000" font-family="monospace" font-size="13" lengthAdjust="spacingAndGlyphs" textLength="152" x="522.5" y="237.2974">current Redis state</text><rect fill="#F5F5F5" filter="url(#fmm4494tiptf4)" height="50.2656" rx="12.5" ry="12.5" style="stroke: #888888; stroke-width: 1.5;" width="340" x="476.5" y="270.3633"/><text fill="#000000" font-family="monospace" font-size="13" lengthAdjust="spacingAndGlyphs" textLength="264" x="486.5" y="292.4302">re-publish the same deterministic</text><text fill="#000000" font-family="monospace" font-size="13" lengthAdjust="spacingAndGlyphs" textLength="320" x="486.5" y="307.563">alert_id (safe -- idempotent downstream)</text><rect fill="#F5F5F5" filter="url(#fmm4494tiptf4)" height="35.1328" rx="12.5" ry="12.5" style="stroke: #888888; stroke-width: 1.5;" width="172" x="560.5" y="355.3281"/><text fill="#000000" font-family="monospace" font-size="13" lengthAdjust="spacingAndGlyphs" textLength="152" x="570.5" y="377.395">commit input offset</text><rect fill="#F5F5F5" filter="url(#fmm4494tiptf4)" height="35.1328" rx="12.5" ry="12.5" style="stroke: #888888; stroke-width: 1.5;" width="308" x="492.5" y="410.4609"/><text fill="#000000" font-family="monospace" font-size="13" lengthAdjust="spacingAndGlyphs" textLength="288" x="502.5" y="432.5278">delete alert-decision:{candidate_id}</text><ellipse cx="646.5" cy="476.5938" fill="#FFFFFF" filter="url(#fmm4494tiptf4)" rx="11" ry="11" style="stroke: #000000; stroke-width: 1.0;"/><ellipse cx="646.5" cy="476.5938" fill="#000000" rx="6" ry="6" style="stroke: #7F7F7F; stroke-width: 1.0;"/><polygon fill="#FFFDE7" filter="url(#fmm4494tiptf4)" points="498.5,135.3984,794.5,135.3984,806.5,147.3984,794.5,159.3984,498.5,159.3984,486.5,147.3984,498.5,135.3984" style="stroke: #AAAAAA; stroke-width: 1.5;"/><text fill="#000000" font-family="monospace" font-size="13" lengthAdjust="spacingAndGlyphs" textLength="24" x="650.5" y="171.4653">yes</text><text fill="#000000" font-family="monospace" font-size="13" lengthAdjust="spacingAndGlyphs" textLength="296" x="498.5" y="151.8989">alert-decision:{candidate_id} exists?</text><text fill="#000000" font-family="monospace" font-size="13" lengthAdjust="spacingAndGlyphs" textLength="16" x="806.5" y="144.3325">no</text><rect fill="#F5F5F5" filter="url(#fmm4494tiptf4)" height="50.2656" rx="12.5" ry="12.5" style="stroke: #888888; stroke-width: 1.5;" width="292" x="500.5" y="529.5938"/><text fill="#000000" font-family="monospace" font-size="13" lengthAdjust="spacingAndGlyphs" textLength="272" x="510.5" y="551.6606">CP2 -- resolveCompositeEligibility</text><text fill="#000000" font-family="monospace" font-size="13" lengthAdjust="spacingAndGlyphs" textLength="160" x="510.5" y="566.7935">(read-only snapshot)</text><polygon fill="#FFFDE7" filter="url(#fmm4494tiptf4)" points="574.5,599.8594,718.5,599.8594,730.5,611.8594,718.5,623.8594,574.5,623.8594,562.5,611.8594,574.5,599.8594" style="stroke: #AAAAAA; stroke-width: 1.5;"/><text fill="#000000" font-family="monospace" font-size="13" lengthAdjust="spacingAndGlyphs" textLength="144" x="574.5" y="616.3599">a winner resolved?</text><text fill="#000000" font-family="monospace" font-size="13" lengthAdjust="spacingAndGlyphs" textLength="24" x="538.5" y="608.7935">yes</text><text fill="#000000" font-family="monospace" font-size="13" lengthAdjust="spacingAndGlyphs" textLength="16" x="730.5" y="608.7935">no</text><path d="M502,633.8594 L502,672.6914 L482,676.6914 L502,680.6914 L502,719.5234 A0,0 0 0 0 502,719.5234 L803,719.5234 A0,0 0 0 0 803,719.5234 L803,643.8594 L793,633.8594 L502,633.8594 A0,0 0 0 0 502,633.8594 " fill="#FAFAFA" filter="url(#fmm4494tiptf4)" style="stroke: #AAAAAA; stroke-width: 1.0;"/><path d="M793,633.8594 L793,643.8594 L803,643.8594 L793,633.8594 " fill="#FAFAFA" style="stroke: #AAAAAA; stroke-width: 1.0;"/><text fill="#000000" font-family="monospace" font-size="13" lengthAdjust="spacingAndGlyphs" textLength="200" x="508" y="650.9263">revalidate dark_since_ms;</text><text fill="#000000" font-family="monospace" font-size="13" lengthAdjust="spacingAndGlyphs" textLength="192" x="508" y="666.0591">composite_issued == '0';</text><text fill="#000000" font-family="monospace" font-size="13" lengthAdjust="spacingAndGlyphs" textLength="272" x="508" y="681.1919">composite_claim_candidate_id empty</text><text fill="#000000" font-family="monospace" font-size="13" lengthAdjust="spacingAndGlyphs" textLength="256" x="524" y="696.3247">OR already == this candidate_id;</text><text fill="#000000" font-family="monospace" font-size="13" lengthAdjust="spacingAndGlyphs" textLength="280" x="508" y="711.4575">-&gt; set composite_claim_candidate_id</text><rect fill="#F5F5F5" filter="url(#fmm4494tiptf4)" height="50.2656" rx="12.5" ry="12.5" style="stroke: #888888; stroke-width: 1.5;" width="300" x="182" y="651.5586"/><text fill="#000000" font-family="monospace" font-size="13" lengthAdjust="spacingAndGlyphs" textLength="280" x="192" y="673.6255">CLAIM (Lua, atomic) on the winner's</text><text fill="#000000" font-family="monospace" font-size="13" lengthAdjust="spacingAndGlyphs" textLength="248" x="192" y="688.7583">alert-state or recent-loss hash</text><polygon fill="#FFFDE7" filter="url(#fmm4494tiptf4)" points="268,739.5234,396,739.5234,408,751.5234,396,763.5234,268,763.5234,256,751.5234,268,739.5234" style="stroke: #AAAAAA; stroke-width: 1.5;"/><text fill="#000000" font-family="monospace" font-size="13" lengthAdjust="spacingAndGlyphs" textLength="128" x="268" y="756.0239">claim succeeded?</text><text fill="#000000" font-family="monospace" font-size="13" lengthAdjust="spacingAndGlyphs" textLength="16" x="240" y="748.4575">no</text><text fill="#000000" font-family="monospace" font-size="13" lengthAdjust="spacingAndGlyphs" textLength="24" x="408" y="748.4575">yes</text><rect fill="#F5F5F5" filter="url(#fmm4494tiptf4)" height="35.1328" rx="12.5" ry="12.5" style="stroke: #888888; stroke-width: 1.5;" width="260" x="18" y="773.5234"/><text fill="#000000" font-family="monospace" font-size="13" lengthAdjust="spacingAndGlyphs" textLength="240" x="28" y="795.5903">fall through -- do not compose</text><rect fill="#F5F5F5" filter="url(#fmm4494tiptf4)" height="35.1328" rx="12.5" ry="12.5" style="stroke: #888888; stroke-width: 1.5;" width="276" x="10" y="843.6563"/><text fill="#000000" font-family="monospace" font-size="13" lengthAdjust="spacingAndGlyphs" textLength="256" x="20" y="865.7231">decision = UNSCHEDULED_PROXIMITY</text><rect fill="#F5F5F5" filter="url(#fmm4494tiptf4)" height="65.3984" rx="12.5" ry="12.5" style="stroke: #888888; stroke-width: 1.5;" width="420" x="306" y="773.5234"/><text fill="#000000" font-family="monospace" font-size="13" lengthAdjust="spacingAndGlyphs" textLength="160" x="316" y="795.5903">decision = COMPOSITE</text><text fill="#000000" font-family="monospace" font-size="13" lengthAdjust="spacingAndGlyphs" textLength="280" x="316" y="810.7231">(selected_entity_id, dark_since_ms,</text><text fill="#000000" font-family="monospace" font-size="13" lengthAdjust="spacingAndGlyphs" textLength="400" x="316" y="825.856">signal_loss_alert_id, loss_source, resumed_at_ms?)</text><polygon fill="#FFFDE7" filter="url(#fmm4494tiptf4)" points="332,884.7891,344,896.7891,332,908.7891,320,896.7891,332,884.7891" style="stroke: #AAAAAA; stroke-width: 1.5;"/><rect fill="#F5F5F5" filter="url(#fmm4494tiptf4)" height="35.1328" rx="12.5" ry="12.5" style="stroke: #888888; stroke-width: 1.5;" width="276" x="823" y="633.8594"/><text fill="#000000" font-family="monospace" font-size="13" lengthAdjust="spacingAndGlyphs" textLength="256" x="833" y="655.9263">decision = UNSCHEDULED_PROXIMITY</text><polygon fill="#FFFDE7" filter="url(#fmm4494tiptf4)" points="646.5,914.7891,658.5,926.7891,646.5,938.7891,634.5,926.7891,646.5,914.7891" style="stroke: #AAAAAA; stroke-width: 1.5;"/><path d="M824.5,956.2227 L824.5,979.9219 L804.5,983.9219 L824.5,987.9219 L824.5,1011.6211 A0,0 0 0 0 824.5,1011.6211 L1173.5,1011.6211 A0,0 0 0 0 1173.5,1011.6211 L1173.5,966.2227 L1163.5,956.2227 L824.5,956.2227 A0,0 0 0 0 824.5,956.2227 " fill="#FAFAFA" filter="url(#fmm4494tiptf4)" style="stroke: #AAAAAA; stroke-width: 1.0;"/><path d="M1163.5,956.2227 L1163.5,966.2227 L1173.5,966.2227 L1163.5,956.2227 " fill="#FAFAFA" style="stroke: #AAAAAA; stroke-width: 1.0;"/><text fill="#000000" font-family="monospace" font-size="13" lengthAdjust="spacingAndGlyphs" textLength="328" x="830.5" y="973.2896">Crash here: redelivery finds the decision</text><text fill="#000000" font-family="monospace" font-size="13" lengthAdjust="spacingAndGlyphs" textLength="296" x="830.5" y="988.4224">record and replays it -- CP2 is never</text><text fill="#000000" font-family="monospace" font-size="13" lengthAdjust="spacingAndGlyphs" textLength="280" x="830.5" y="1003.5552">re-run for this candidate_id again.</text><rect fill="#F5F5F5" filter="url(#fmm4494tiptf4)" height="50.2656" rx="12.5" ry="12.5" style="stroke: #888888; stroke-width: 1.5;" width="316" x="488.5" y="958.7891"/><text fill="#000000" font-family="monospace" font-size="13" lengthAdjust="spacingAndGlyphs" textLength="296" x="498.5" y="980.856">persist alert-decision:{candidate_id}</text><text fill="#000000" font-family="monospace" font-size="13" lengthAdjust="spacingAndGlyphs" textLength="176" x="498.5" y="995.9888">-- BEFORE Kafka output</text><rect fill="#F5F5F5" filter="url(#fmm4494tiptf4)" height="50.2656" rx="12.5" ry="12.5" style="stroke: #888888; stroke-width: 1.5;" width="308" x="492.5" y="1031.6211"/><text fill="#000000" font-family="monospace" font-size="13" lengthAdjust="spacingAndGlyphs" textLength="264" x="502.5" y="1053.688">construct the deterministic alert</text><text fill="#000000" font-family="monospace" font-size="13" lengthAdjust="spacingAndGlyphs" textLength="288" x="502.5" y="1068.8208">(COMPOSITE or UNSCHEDULED_PROXIMITY)</text><path d="M792.5,1091.8867 L792.5,1115.5859 L772.5,1119.5859 L792.5,1123.5859 L792.5,1147.2852 A0,0 0 0 0 792.5,1147.2852 L1125.5,1147.2852 A0,0 0 0 0 1125.5,1147.2852 L1125.5,1101.8867 L1115.5,1091.8867 L792.5,1091.8867 A0,0 0 0 0 792.5,1091.8867 " fill="#FAFAFA" filter="url(#fmm4494tiptf4)" style="stroke: #AAAAAA; stroke-width: 1.0;"/><path d="M1115.5,1091.8867 L1115.5,1101.8867 L1125.5,1101.8867 L1115.5,1091.8867 " fill="#FAFAFA" style="stroke: #AAAAAA; stroke-width: 1.0;"/><text fill="#000000" font-family="monospace" font-size="13" lengthAdjust="spacingAndGlyphs" textLength="312" x="798.5" y="1108.9536">Crash here: redelivery replays the SAME</text><text fill="#000000" font-family="monospace" font-size="13" lengthAdjust="spacingAndGlyphs" textLength="312" x="798.5" y="1124.0864">decision -&gt; same deterministic alert_id</text><text fill="#000000" font-family="monospace" font-size="13" lengthAdjust="spacingAndGlyphs" textLength="312" x="798.5" y="1139.2192">-&gt; safe duplicate, absorbed downstream.</text><rect fill="#F5F5F5" filter="url(#fmm4494tiptf4)" height="35.1328" rx="12.5" ry="12.5" style="stroke: #888888; stroke-width: 1.5;" width="252" x="520.5" y="1102.0195"/><text fill="#000000" font-family="monospace" font-size="13" lengthAdjust="spacingAndGlyphs" textLength="232" x="530.5" y="1124.0864">Kafka publish to alerts topic</text><path d="M764.5,1214.8521 L764.5,1238.5513 L744.5,1242.5513 L764.5,1246.5513 L764.5,1270.2505 A0,0 0 0 0 764.5,1270.2505 L1137.5,1270.2505 A0,0 0 0 0 1137.5,1270.2505 L1137.5,1224.8521 L1127.5,1214.8521 L764.5,1214.8521 A0,0 0 0 0 764.5,1214.8521 " fill="#FAFAFA" filter="url(#fmm4494tiptf4)" style="stroke: #AAAAAA; stroke-width: 1.0;"/><path d="M1127.5,1214.8521 L1127.5,1224.8521 L1137.5,1224.8521 L1127.5,1214.8521 " fill="#FAFAFA" style="stroke: #AAAAAA; stroke-width: 1.0;"/><text fill="#000000" font-family="monospace" font-size="13" lengthAdjust="spacingAndGlyphs" textLength="296" x="770.5" y="1231.9189">composite_claim_candidate_id still ==</text><text fill="#000000" font-family="monospace" font-size="13" lengthAdjust="spacingAndGlyphs" textLength="352" x="770.5" y="1247.0518">this candidate_id -&gt; composite_issued = '1'.</text><text fill="#000000" font-family="monospace" font-size="13" lengthAdjust="spacingAndGlyphs" textLength="320" x="770.5" y="1262.1846">Does NOT delete recent-loss/alert-state.</text><rect fill="#F5F5F5" filter="url(#fmm4494tiptf4)" height="35.1328" rx="12.5" ry="12.5" style="stroke: #888888; stroke-width: 1.5;" width="196" x="548.5" y="1224.9849"/><text fill="#000000" font-family="monospace" font-size="13" lengthAdjust="spacingAndGlyphs" textLength="176" x="558.5" y="1247.0518">FINALIZE (Lua, atomic)</text><polygon fill="#FFFDE7" filter="url(#fmm4494tiptf4)" points="558.5,1167.2852,734.5,1167.2852,746.5,1179.2852,734.5,1191.2852,558.5,1191.2852,546.5,1179.2852,558.5,1167.2852" style="stroke: #AAAAAA; stroke-width: 1.5;"/><text fill="#000000" font-family="monospace" font-size="13" lengthAdjust="spacingAndGlyphs" textLength="24" x="650.5" y="1203.3521">yes</text><text fill="#000000" font-family="monospace" font-size="13" lengthAdjust="spacingAndGlyphs" textLength="176" x="558.5" y="1183.7856">decision == COMPOSITE?</text><text fill="#000000" font-family="monospace" font-size="13" lengthAdjust="spacingAndGlyphs" textLength="16" x="746.5" y="1176.2192">no</text><polygon fill="#FFFDE7" filter="url(#fmm4494tiptf4)" points="646.5,1290.2505,658.5,1302.2505,646.5,1314.2505,634.5,1302.2505,646.5,1290.2505" style="stroke: #AAAAAA; stroke-width: 1.5;"/><rect fill="#F5F5F5" filter="url(#fmm4494tiptf4)" height="35.1328" rx="12.5" ry="12.5" style="stroke: #888888; stroke-width: 1.5;" width="340" x="476.5" y="1334.2505"/><text fill="#000000" font-family="monospace" font-size="13" lengthAdjust="spacingAndGlyphs" textLength="320" x="486.5" y="1356.3174">commit proximity.candidates input offset</text><path d="M820.5,1379.3833 L820.5,1418.2153 L800.5,1422.2153 L820.5,1426.2153 L820.5,1465.0474 A0,0 0 0 0 820.5,1465.0474 L1177.5,1465.0474 A0,0 0 0 0 1177.5,1465.0474 L1177.5,1389.3833 L1167.5,1379.3833 L820.5,1379.3833 A0,0 0 0 0 820.5,1379.3833 " fill="#FAFAFA" filter="url(#fmm4494tiptf4)" style="stroke: #AAAAAA; stroke-width: 1.0;"/><path d="M1167.5,1379.3833 L1167.5,1389.3833 L1177.5,1389.3833 L1167.5,1379.3833 " fill="#FAFAFA" style="stroke: #AAAAAA; stroke-width: 1.0;"/><text fill="#000000" font-family="monospace" font-size="13" lengthAdjust="spacingAndGlyphs" textLength="312" x="826.5" y="1396.4502">Orphaned if the process crashes between</text><text fill="#000000" font-family="monospace" font-size="13" lengthAdjust="spacingAndGlyphs" textLength="336" x="826.5" y="1411.583">offset commit and this delete -- a cleanup</text><text fill="#000000" font-family="monospace" font-size="13" lengthAdjust="spacingAndGlyphs" textLength="336" x="826.5" y="1426.7158">leak, not a correctness failure, since the</text><text fill="#000000" font-family="monospace" font-size="13" lengthAdjust="spacingAndGlyphs" textLength="320" x="826.5" y="1441.8486">record is never consulted again once its</text><text fill="#000000" font-family="monospace" font-size="13" lengthAdjust="spacingAndGlyphs" textLength="288" x="826.5" y="1456.9814">owning message is durably processed.</text><rect fill="#F5F5F5" filter="url(#fmm4494tiptf4)" height="35.1328" rx="12.5" ry="12.5" style="stroke: #888888; stroke-width: 1.5;" width="308" x="492.5" y="1404.6489"/><text fill="#000000" font-family="monospace" font-size="13" lengthAdjust="spacingAndGlyphs" textLength="288" x="502.5" y="1426.7158">delete alert-decision:{candidate_id}</text><ellipse cx="646.5" cy="1496.0474" fill="#FFFFFF" filter="url(#fmm4494tiptf4)" rx="11" ry="11" style="stroke: #000000; stroke-width: 1.0;"/><ellipse cx="646.5" cy="1496.0474" fill="#000000" rx="6" ry="6" style="stroke: #7F7F7F; stroke-width: 1.0;"/><line style="stroke: #555555; stroke-width: 1.5;" x1="646.5" x2="646.5" y1="45.1328" y2="65.1328"/><polygon fill="#555555" points="642.5,55.1328,646.5,65.1328,650.5,55.1328,646.5,59.1328" style="stroke: #555555; stroke-width: 1.0;"/><line style="stroke: #555555; stroke-width: 1.5;" x1="646.5" x2="646.5" y1="250.3633" y2="270.3633"/><polygon fill="#555555" points="642.5,260.3633,646.5,270.3633,650.5,260.3633,646.5,264.3633" style="stroke: #555555; stroke-width: 1.0;"/><line style="stroke: #555555; stroke-width: 1.5;" x1="646.5" x2="646.5" y1="320.6289" y2="355.3281"/><polygon fill="#555555" points="642.5,345.3281,646.5,355.3281,650.5,345.3281,646.5,349.3281" style="stroke: #555555; stroke-width: 1.0;"/><line style="stroke: #555555; stroke-width: 1.5;" x1="646.5" x2="646.5" y1="390.4609" y2="410.4609"/><polygon fill="#555555" points="642.5,400.4609,646.5,410.4609,650.5,400.4609,646.5,404.4609" style="stroke: #555555; stroke-width: 1.0;"/><line style="stroke: #555555; stroke-width: 1.5;" x1="646.5" x2="646.5" y1="445.5938" y2="465.5938"/><polygon fill="#555555" points="642.5,455.5938,646.5,465.5938,650.5,455.5938,646.5,459.5938" style="stroke: #555555; stroke-width: 1.0;"/><line style="stroke: #555555; stroke-width: 1.5;" x1="646.5" x2="646.5" y1="159.3984" y2="184.9648"/><polygon fill="#555555" points="642.5,174.9648,646.5,184.9648,650.5,174.9648,646.5,178.9648" style="stroke: #555555; stroke-width: 1.0;"/><line style="stroke: #555555; stroke-width: 1.5;" x1="806.5" x2="1103.5" y1="147.3984" y2="147.3984"/><polygon fill="#555555" points="1099.5,330.6289,1103.5,340.6289,1107.5,330.6289,1103.5,334.6289" style="stroke: #555555; stroke-width: 1.5;"/><line style="stroke: #555555; stroke-width: 1.5;" x1="1103.5" x2="1103.5" y1="147.3984" y2="509.5938"/><line style="stroke: #555555; stroke-width: 1.5;" x1="1103.5" x2="646.5" y1="509.5938" y2="509.5938"/><line style="stroke: #555555; stroke-width: 1.5;" x1="646.5" x2="646.5" y1="509.5938" y2="529.5938"/><polygon fill="#555555" points="642.5,519.5938,646.5,529.5938,650.5,519.5938,646.5,523.5938" style="stroke: #555555; stroke-width: 1.0;"/><line style="stroke: #555555; stroke-width: 1.5;" x1="646.5" x2="646.5" y1="115.3984" y2="135.3984"/><polygon fill="#555555" points="642.5,125.3984,646.5,135.3984,650.5,125.3984,646.5,129.3984" style="stroke: #555555; stroke-width: 1.0;"/><line style="stroke: #555555; stroke-width: 1.5;" x1="148" x2="148" y1="808.6563" y2="843.6563"/><polygon fill="#555555" points="144,833.6563,148,843.6563,152,833.6563,148,837.6563" style="stroke: #555555; stroke-width: 1.0;"/><line style="stroke: #555555; stroke-width: 1.5;" x1="256" x2="148" y1="751.5234" y2="751.5234"/><line style="stroke: #555555; stroke-width: 1.5;" x1="148" x2="148" y1="751.5234" y2="773.5234"/><polygon fill="#555555" points="144,763.5234,148,773.5234,152,763.5234,148,767.5234" style="stroke: #555555; stroke-width: 1.0;"/><line style="stroke: #555555; stroke-width: 1.5;" x1="408" x2="516" y1="751.5234" y2="751.5234"/><line style="stroke: #555555; stroke-width: 1.5;" x1="516" x2="516" y1="751.5234" y2="773.5234"/><polygon fill="#555555" points="512,763.5234,516,773.5234,520,763.5234,516,767.5234" style="stroke: #555555; stroke-width: 1.0;"/><line style="stroke: #555555; stroke-width: 1.5;" x1="148" x2="148" y1="878.7891" y2="896.7891"/><line style="stroke: #555555; stroke-width: 1.5;" x1="148" x2="320" y1="896.7891" y2="896.7891"/><polygon fill="#555555" points="310,892.7891,320,896.7891,310,900.7891,314,896.7891" style="stroke: #555555; stroke-width: 1.0;"/><line style="stroke: #555555; stroke-width: 1.5;" x1="516" x2="516" y1="838.9219" y2="896.7891"/><line style="stroke: #555555; stroke-width: 1.5;" x1="516" x2="344" y1="896.7891" y2="896.7891"/><polygon fill="#555555" points="354,892.7891,344,896.7891,354,900.7891,350,896.7891" style="stroke: #555555; stroke-width: 1.0;"/><line style="stroke: #555555; stroke-width: 1.5;" x1="332" x2="332" y1="701.8242" y2="739.5234"/><polygon fill="#555555" points="328,729.5234,332,739.5234,336,729.5234,332,733.5234" style="stroke: #555555; stroke-width: 1.0;"/><line style="stroke: #555555; stroke-width: 1.5;" x1="562.5" x2="332" y1="611.8594" y2="611.8594"/><line style="stroke: #555555; stroke-width: 1.5;" x1="332" x2="332" y1="611.8594" y2="651.5586"/><polygon fill="#555555" points="328,641.5586,332,651.5586,336,641.5586,332,645.5586" style="stroke: #555555; stroke-width: 1.0;"/><line style="stroke: #555555; stroke-width: 1.5;" x1="730.5" x2="961" y1="611.8594" y2="611.8594"/><line style="stroke: #555555; stroke-width: 1.5;" x1="961" x2="961" y1="611.8594" y2="633.8594"/><polygon fill="#555555" points="957,623.8594,961,633.8594,965,623.8594,961,627.8594" style="stroke: #555555; stroke-width: 1.0;"/><line style="stroke: #555555; stroke-width: 1.5;" x1="332" x2="332" y1="908.7891" y2="926.7891"/><line style="stroke: #555555; stroke-width: 1.5;" x1="332" x2="634.5" y1="926.7891" y2="926.7891"/><polygon fill="#555555" points="624.5,922.7891,634.5,926.7891,624.5,930.7891,628.5,926.7891" style="stroke: #555555; stroke-width: 1.0;"/><line style="stroke: #555555; stroke-width: 1.5;" x1="961" x2="961" y1="668.9922" y2="926.7891"/><line style="stroke: #555555; stroke-width: 1.5;" x1="961" x2="658.5" y1="926.7891" y2="926.7891"/><polygon fill="#555555" points="668.5,922.7891,658.5,926.7891,668.5,930.7891,664.5,926.7891" style="stroke: #555555; stroke-width: 1.0;"/><line style="stroke: #555555; stroke-width: 1.5;" x1="646.5" x2="646.5" y1="579.8594" y2="599.8594"/><polygon fill="#555555" points="642.5,589.8594,646.5,599.8594,650.5,589.8594,646.5,593.8594" style="stroke: #555555; stroke-width: 1.0;"/><line style="stroke: #555555; stroke-width: 1.5;" x1="646.5" x2="646.5" y1="938.7891" y2="958.7891"/><polygon fill="#555555" points="642.5,948.7891,646.5,958.7891,650.5,948.7891,646.5,952.7891" style="stroke: #555555; stroke-width: 1.0;"/><line style="stroke: #555555; stroke-width: 1.5;" x1="646.5" x2="646.5" y1="1009.0547" y2="1031.6211"/><polygon fill="#555555" points="642.5,1021.6211,646.5,1031.6211,650.5,1021.6211,646.5,1025.6211" style="stroke: #555555; stroke-width: 1.0;"/><line style="stroke: #555555; stroke-width: 1.5;" x1="646.5" x2="646.5" y1="1081.8867" y2="1102.0195"/><polygon fill="#555555" points="642.5,1092.0195,646.5,1102.0195,650.5,1092.0195,646.5,1096.0195" style="stroke: #555555; stroke-width: 1.0;"/><line style="stroke: #555555; stroke-width: 1.5;" x1="646.5" x2="646.5" y1="1191.2852" y2="1224.9849"/><polygon fill="#555555" points="642.5,1214.9849,646.5,1224.9849,650.5,1214.9849,646.5,1218.9849" style="stroke: #555555; stroke-width: 1.0;"/><line style="stroke: #555555; stroke-width: 1.5;" x1="746.5" x2="1147.5" y1="1179.2852" y2="1179.2852"/><polygon fill="#555555" points="1143.5,1232.5513,1147.5,1242.5513,1151.5,1232.5513,1147.5,1236.5513" style="stroke: #555555; stroke-width: 1.5;"/><line style="stroke: #555555; stroke-width: 1.5;" x1="1147.5" x2="1147.5" y1="1179.2852" y2="1302.2505"/><line style="stroke: #555555; stroke-width: 1.5;" x1="1147.5" x2="658.5" y1="1302.2505" y2="1302.2505"/><polygon fill="#555555" points="668.5,1298.2505,658.5,1302.2505,668.5,1306.2505,664.5,1302.2505" style="stroke: #555555; stroke-width: 1.0;"/><line style="stroke: #555555; stroke-width: 1.5;" x1="646.5" x2="646.5" y1="1260.1177" y2="1290.2505"/><polygon fill="#555555" points="642.5,1280.2505,646.5,1290.2505,650.5,1280.2505,646.5,1284.2505" style="stroke: #555555; stroke-width: 1.0;"/><line style="stroke: #555555; stroke-width: 1.5;" x1="646.5" x2="646.5" y1="1137.1523" y2="1167.2852"/><polygon fill="#555555" points="642.5,1157.2852,646.5,1167.2852,650.5,1157.2852,646.5,1161.2852" style="stroke: #555555; stroke-width: 1.0;"/><line style="stroke: #555555; stroke-width: 1.5;" x1="646.5" x2="646.5" y1="1314.2505" y2="1334.2505"/><polygon fill="#555555" points="642.5,1324.2505,646.5,1334.2505,650.5,1324.2505,646.5,1328.2505" style="stroke: #555555; stroke-width: 1.0;"/><line style="stroke: #555555; stroke-width: 1.5;" x1="646.5" x2="646.5" y1="1369.3833" y2="1404.6489"/><polygon fill="#555555" points="642.5,1394.6489,646.5,1404.6489,650.5,1394.6489,646.5,1398.6489" style="stroke: #555555; stroke-width: 1.0;"/><line style="stroke: #555555; stroke-width: 1.5;" x1="646.5" x2="646.5" y1="1439.7817" y2="1485.0474"/><polygon fill="#555555" points="642.5,1475.0474,646.5,1485.0474,650.5,1475.0474,646.5,1479.0474" style="stroke: #555555; stroke-width: 1.0;"/><!--MD5=[711ceea9736efa7b194658494cca288a]
@startuml composite-claim-protocol-flow
title Composite Claim + Decision Protocol (Pre-CP3A) — Not Yet Implemented

skinparam linetype ortho
skinparam defaultFontName Monospaced
skinparam defaultFontSize 13
skinparam ArrowColor #555555
skinparam ActivityBackgroundColor #F5F5F5
skinparam ActivityBorderColor #888888
skinparam ActivityDiamondBackgroundColor #FFFDE7
skinparam ActivityDiamondBorderColor #AAAAAA
skinparam NoteBackgroundColor #FAFAFA
skinparam NoteBorderColor #AAAAAA

start

:proximity.candidates message arrives\n(candidate_id = {pair_key}:{episode_start_ms});

if (alert-decision:{candidate_id} exists?) then (yes)
  :replay the recorded decision - -\ndo NOT re-resolve CP2 against\ncurrent Redis state;
  note right
    Closes both redelivery directions:
    COMPOSITE -> UNSCHEDULED and
    UNSCHEDULED -> COMPOSITE.
  end note
  :re-publish the same deterministic\nalert_id (safe - - idempotent downstream);
  :commit input offset;
  :delete alert-decision:{candidate_id};
  stop
else (no)
endif

:CP2 - - resolveCompositeEligibility\n(read-only snapshot);

if (a winner resolved?) then (yes)
  :CLAIM (Lua, atomic) on the winner's\nalert-state or recent-loss hash;
  note right
    revalidate dark_since_ms;
    composite_issued == '0';
    composite_claim_candidate_id empty
      OR already == this candidate_id;
    -> set composite_claim_candidate_id
  end note
  if (claim succeeded?) then (no)
    :fall through - - do not compose;
    :decision = UNSCHEDULED_PROXIMITY;
  else (yes)
    :decision = COMPOSITE\n(selected_entity_id, dark_since_ms,\nsignal_loss_alert_id, loss_source, resumed_at_ms?);
  endif
else (no)
  :decision = UNSCHEDULED_PROXIMITY;
endif

:persist alert-decision:{candidate_id}\n- - BEFORE Kafka output;
note right
  Crash here: redelivery finds the decision
  record and replays it - - CP2 is never
  re-run for this candidate_id again.
end note

:construct the deterministic alert\n(COMPOSITE or UNSCHEDULED_PROXIMITY);

:Kafka publish to alerts topic;
note right
  Crash here: redelivery replays the SAME
  decision -> same deterministic alert_id
  -> safe duplicate, absorbed downstream.
end note

if (decision == COMPOSITE?) then (yes)
  :FINALIZE (Lua, atomic);
  note right
    composite_claim_candidate_id still ==
    this candidate_id -> composite_issued = '1'.
    Does NOT delete recent-loss/alert-state.
  end note
else (no)
endif

:commit proximity.candidates input offset;

:delete alert-decision:{candidate_id};
note right
  Orphaned if the process crashes between
  offset commit and this delete - - a cleanup
  leak, not a correctness failure, since the
  record is never consulted again once its
  owning message is durably processed.
end note

stop

@enduml

PlantUML version 1.2020.02(Sun Mar 01 10:22:07 UTC 2020)
(GPL source distribution)
Java Runtime: OpenJDK Runtime Environment
JVM: OpenJDK 64-Bit Server VM
Java Version: 17.0.20.1+1
Operating System: Linux
Default Encoding: UTF-8
Language: en
Country: null
--></g></svg>