<?xml version="1.0" encoding="UTF-8" standalone="no"?><svg xmlns="http://www.w3.org/2000/svg" xmlns:xlink="http://www.w3.org/1999/xlink" contentScriptType="application/ecmascript" contentStyleType="text/css" height="2083px" preserveAspectRatio="none" style="width:960px;height:2083px;" version="1.1" viewBox="0 0 960 2083" width="960px" zoomAndPan="magnify"><defs><filter height="300%" id="f1f3j8c76uaee7" width="300%" x="-1" y="-1"><feGaussianBlur result="blurOut" stdDeviation="2.0"/><feColorMatrix in="blurOut" result="blurOut2" type="matrix" values="0 0 0 0 0 0 0 0 0 0 0 0 0 0 0 0 0 0 .4 0"/><feOffset dx="4.0" dy="4.0" in="blurOut2" result="blurOut3"/><feBlend in="SourceGraphic" in2="blurOut3" mode="normal"/></filter></defs><g><text fill="#000000" font-family="monospace" font-size="12" lengthAdjust="spacingAndGlyphs" textLength="329" x="311" y="21.1387">OpenSky Ingestion Poller — Observed Interaction</text><line style="stroke: #AAAAAA; stroke-width: 1.0;" x1="42" x2="42" y1="111.9375" y2="835.0313"/><line style="stroke: #AAAAAA; stroke-width: 1.0; stroke-dasharray: 1.0,4.0;" x1="42" x2="42" y1="835.0313" y2="877"/><line style="stroke: #AAAAAA; stroke-width: 1.0;" x1="42" x2="42" y1="877" y2="1328.4063"/><line style="stroke: #AAAAAA; stroke-width: 1.0; stroke-dasharray: 1.0,4.0;" x1="42" x2="42" y1="1328.4063" y2="1370.375"/><line style="stroke: #AAAAAA; stroke-width: 1.0;" x1="42" x2="42" y1="1370.375" y2="1998.625"/><line style="stroke: #AAAAAA; stroke-width: 1.0;" x1="185.5" x2="185.5" y1="111.9375" y2="835.0313"/><line style="stroke: #AAAAAA; stroke-width: 1.0; stroke-dasharray: 1.0,4.0;" x1="185.5" x2="185.5" y1="835.0313" y2="877"/><line style="stroke: #AAAAAA; stroke-width: 1.0;" x1="185.5" x2="185.5" y1="877" y2="1328.4063"/><line style="stroke: #AAAAAA; stroke-width: 1.0; stroke-dasharray: 1.0,4.0;" x1="185.5" x2="185.5" y1="1328.4063" y2="1370.375"/><line style="stroke: #AAAAAA; stroke-width: 1.0;" x1="185.5" x2="185.5" y1="1370.375" y2="1998.625"/><line style="stroke: #AAAAAA; stroke-width: 1.0;" x1="594" x2="594" y1="111.9375" y2="835.0313"/><line style="stroke: #AAAAAA; stroke-width: 1.0; stroke-dasharray: 1.0,4.0;" x1="594" x2="594" y1="835.0313" y2="877"/><line style="stroke: #AAAAAA; stroke-width: 1.0;" x1="594" x2="594" y1="877" y2="1328.4063"/><line style="stroke: #AAAAAA; stroke-width: 1.0; stroke-dasharray: 1.0,4.0;" x1="594" x2="594" y1="1328.4063" y2="1370.375"/><line style="stroke: #AAAAAA; stroke-width: 1.0;" x1="594" x2="594" y1="1370.375" y2="1998.625"/><line style="stroke: #AAAAAA; stroke-width: 1.0;" x1="752" x2="752" y1="111.9375" y2="835.0313"/><line style="stroke: #AAAAAA; stroke-width: 1.0; stroke-dasharray: 1.0,4.0;" x1="752" x2="752" y1="835.0313" y2="877"/><line style="stroke: #AAAAAA; stroke-width: 1.0;" x1="752" x2="752" y1="877" y2="1328.4063"/><line style="stroke: #AAAAAA; stroke-width: 1.0; stroke-dasharray: 1.0,4.0;" x1="752" x2="752" y1="1328.4063" y2="1370.375"/><line style="stroke: #AAAAAA; stroke-width: 1.0;" x1="752" x2="752" y1="1370.375" y2="1998.625"/><text fill="#000000" font-family="monospace" font-size="12" lengthAdjust="spacingAndGlyphs" textLength="63" x="8" y="109.1074">Developer</text><ellipse cx="42.5" cy="40.9688" fill="#FEFECE" filter="url(#f1f3j8c76uaee7)" rx="8" ry="8" style="stroke: #A80036; stroke-width: 2.0;"/><path d="M42.5,48.9688 L42.5,75.9688 M29.5,56.9688 L55.5,56.9688 M42.5,75.9688 L29.5,90.9688 M42.5,75.9688 L55.5,90.9688 " fill="none" filter="url(#f1f3j8c76uaee7)" style="stroke: #A80036; stroke-width: 2.0;"/><text fill="#000000" font-family="monospace" font-size="12" lengthAdjust="spacingAndGlyphs" textLength="63" x="8" y="2008.7637">Developer</text><ellipse cx="42.5" cy="2021.5938" fill="#FEFECE" filter="url(#f1f3j8c76uaee7)" rx="8" ry="8" style="stroke: #A80036; stroke-width: 2.0;"/><path d="M42.5,2029.5938 L42.5,2056.5938 M29.5,2037.5938 L55.5,2037.5938 M42.5,2056.5938 L29.5,2071.5938 M42.5,2056.5938 L55.5,2071.5938 " fill="none" filter="url(#f1f3j8c76uaee7)" style="stroke: #A80036; stroke-width: 2.0;"/><rect fill="#DBEAFE" filter="url(#f1f3j8c76uaee7)" height="41.9375" style="stroke: #888888; stroke-width: 1.5;" width="126" x="120.5" y="65"/><text fill="#000000" font-family="monospace" font-size="12" lengthAdjust="spacingAndGlyphs" textLength="112" x="127.5" y="83.1387">ingestion-poller</text><text fill="#000000" font-family="monospace" font-size="12" lengthAdjust="spacingAndGlyphs" textLength="77" x="145" y="97.1074">(poller.ts)</text><rect fill="#DBEAFE" filter="url(#f1f3j8c76uaee7)" height="41.9375" style="stroke: #888888; stroke-width: 1.5;" width="126" x="120.5" y="1997.625"/><text fill="#000000" font-family="monospace" font-size="12" lengthAdjust="spacingAndGlyphs" textLength="112" x="127.5" y="2015.7637">ingestion-poller</text><text fill="#000000" font-family="monospace" font-size="12" lengthAdjust="spacingAndGlyphs" textLength="77" x="145" y="2029.7324">(poller.ts)</text><rect fill="#D1FAE5" filter="url(#f1f3j8c76uaee7)" height="41.9375" style="stroke: #888888; stroke-width: 1.5;" width="119" x="533" y="65"/><text fill="#000000" font-family="monospace" font-size="12" lengthAdjust="spacingAndGlyphs" textLength="105" x="540" y="83.1387">OpenSky Network</text><text fill="#000000" font-family="monospace" font-size="12" lengthAdjust="spacingAndGlyphs" textLength="56" x="564.5" y="97.1074">REST API</text><rect fill="#D1FAE5" filter="url(#f1f3j8c76uaee7)" height="41.9375" style="stroke: #888888; stroke-width: 1.5;" width="119" x="533" y="1997.625"/><text fill="#000000" font-family="monospace" font-size="12" lengthAdjust="spacingAndGlyphs" textLength="105" x="540" y="2015.7637">OpenSky Network</text><text fill="#000000" font-family="monospace" font-size="12" lengthAdjust="spacingAndGlyphs" textLength="56" x="564.5" y="2029.7324">REST API</text><rect fill="#FEF9C3" filter="url(#f1f3j8c76uaee7)" height="41.9375" style="stroke: #888888; stroke-width: 1.5;" width="168" x="666" y="65"/><text fill="#000000" font-family="monospace" font-size="12" lengthAdjust="spacingAndGlyphs" textLength="56" x="722" y="83.1387">Redpanda</text><text fill="#000000" font-family="monospace" font-size="12" lengthAdjust="spacingAndGlyphs" textLength="154" x="673" y="97.1074">adsb.raw — Partition 0</text><rect fill="#FEF9C3" filter="url(#f1f3j8c76uaee7)" height="41.9375" style="stroke: #888888; stroke-width: 1.5;" width="168" x="666" y="1997.625"/><text fill="#000000" font-family="monospace" font-size="12" lengthAdjust="spacingAndGlyphs" textLength="56" x="722" y="2015.7637">Redpanda</text><text fill="#000000" font-family="monospace" font-size="12" lengthAdjust="spacingAndGlyphs" textLength="154" x="673" y="2029.7324">adsb.raw — Partition 0</text><rect fill="#EEEEEE" filter="url(#f1f3j8c76uaee7)" height="3" style="stroke: #EEEEEE; stroke-width: 1.0;" width="945" x="3" y="141.9219"/><line style="stroke: #000000; stroke-width: 1.0;" x1="3" x2="948" y1="141.9219" y2="141.9219"/><line style="stroke: #000000; stroke-width: 1.0;" x1="3" x2="948" y1="144.9219" y2="144.9219"/><rect fill="#EEEEEE" filter="url(#f1f3j8c76uaee7)" height="21.9688" style="stroke: #000000; stroke-width: 2.0;" width="70" x="440.5" y="131.9375"/><text fill="#000000" font-family="monospace" font-size="12" font-weight="bold" lengthAdjust="spacingAndGlyphs" textLength="49" x="446.5" y="147.0762">Startup</text><polygon fill="#A80036" points="173.5,179.875,183.5,183.875,173.5,187.875,177.5,183.875" style="stroke: #A80036; stroke-width: 1.0;"/><line style="stroke: #A80036; stroke-width: 1.5;" x1="42.5" x2="179.5" y1="183.875" y2="183.875"/><text fill="#000000" font-family="monospace" font-size="12" lengthAdjust="spacingAndGlyphs" textLength="119" x="49.5" y="179.0449">tsx src/poller.ts</text><polygon fill="#A80036" points="740,221.8125,750,225.8125,740,229.8125,744,225.8125" style="stroke: #A80036; stroke-width: 1.0;"/><line style="stroke: #A80036; stroke-width: 1.5;" x1="185.5" x2="746" y1="225.8125" y2="225.8125"/><text fill="#000000" font-family="monospace" font-size="12" lengthAdjust="spacingAndGlyphs" textLength="63" x="192.5" y="207.0137">connect()</text><text fill="#000000" font-family="monospace" font-size="12" lengthAdjust="spacingAndGlyphs" textLength="133" x="192.5" y="220.9824">+ version handshake</text><polygon fill="#A80036" points="196.5,249.7813,186.5,253.7813,196.5,257.7813,192.5,253.7813" style="stroke: #A80036; stroke-width: 1.0;"/><line style="stroke: #A80036; stroke-width: 1.5; stroke-dasharray: 2.0,2.0;" x1="190.5" x2="751" y1="253.7813" y2="253.7813"/><text fill="#000000" font-family="monospace" font-size="12" lengthAdjust="spacingAndGlyphs" textLength="63" x="202.5" y="248.9512">connected</text><path d="M190,266.7813 L190,331.7813 L596,331.7813 L596,276.7813 L586,266.7813 L190,266.7813 " fill="#FAFAFA" filter="url(#f1f3j8c76uaee7)" style="stroke: #AAAAAA; stroke-width: 1.0;"/><path d="M586,266.7813 L586,276.7813 L596,276.7813 L586,266.7813 " fill="#FAFAFA" style="stroke: #AAAAAA; stroke-width: 1.0;"/><text fill="#000000" font-family="monospace" font-size="12" lengthAdjust="spacingAndGlyphs" textLength="126" x="196" y="282.9199">producer connected</text><text fill="#000000" font-family="monospace" font-size="12" lengthAdjust="spacingAndGlyphs" textLength="105" x="196" y="296.8887">poller starting</text><text fill="#000000" font-family="monospace" font-size="12" lengthAdjust="spacingAndGlyphs" textLength="385" x="196" y="310.8574">url: .../states/all?lamin=49&amp;lomin=-8&amp;lamax=61&amp;lomax=10</text><text fill="#000000" font-family="monospace" font-size="12" lengthAdjust="spacingAndGlyphs" textLength="161" x="196" y="324.8262">poll_interval_ms: 10000</text><rect fill="#EEEEEE" filter="url(#f1f3j8c76uaee7)" height="3" style="stroke: #EEEEEE; stroke-width: 1.0;" width="945" x="3" y="361.6406"/><line style="stroke: #000000; stroke-width: 1.0;" x1="3" x2="948" y1="361.6406" y2="361.6406"/><line style="stroke: #000000; stroke-width: 1.0;" x1="3" x2="948" y1="364.6406" y2="364.6406"/><rect fill="#EEEEEE" filter="url(#f1f3j8c76uaee7)" height="21.9688" style="stroke: #000000; stroke-width: 2.0;" width="287" x="332" y="351.6563"/><text fill="#000000" font-family="monospace" font-size="12" font-weight="bold" lengthAdjust="spacingAndGlyphs" textLength="266" x="338" y="366.7949">Cycle 1 — fires immediately on startup</text><polygon fill="#A80036" points="582.5,413.5625,592.5,417.5625,582.5,421.5625,586.5,417.5625" style="stroke: #A80036; stroke-width: 1.0;"/><line style="stroke: #A80036; stroke-width: 1.5;" x1="185.5" x2="588.5" y1="417.5625" y2="417.5625"/><text fill="#000000" font-family="monospace" font-size="12" lengthAdjust="spacingAndGlyphs" textLength="385" x="192.5" y="398.7637">GET /api/states/all?lamin=49&amp;lomin=-8&amp;lamax=61&amp;lomax=10</text><text fill="#000000" font-family="monospace" font-size="12" lengthAdjust="spacingAndGlyphs" textLength="182" x="192.5" y="412.7324">AbortSignal.timeout(8_000)</text><polygon fill="#A80036" points="196.5,455.5,186.5,459.5,196.5,463.5,192.5,459.5" style="stroke: #A80036; stroke-width: 1.0;"/><line style="stroke: #A80036; stroke-width: 1.5; stroke-dasharray: 2.0,2.0;" x1="190.5" x2="593.5" y1="459.5" y2="459.5"/><text fill="#000000" font-family="monospace" font-size="12" lengthAdjust="spacingAndGlyphs" textLength="42" x="202.5" y="440.7012">200 OK</text><text fill="#000000" font-family="monospace" font-size="12" lengthAdjust="spacingAndGlyphs" textLength="308" x="202.5" y="454.6699">{"time": 1787261900, "states": [[...], ...]}</text><path d="M190,472.5 L190,523.5 L575,523.5 L575,482.5 L565,472.5 L190,472.5 " fill="#FAFAFA" filter="url(#f1f3j8c76uaee7)" style="stroke: #AAAAAA; stroke-width: 1.0;"/><path d="M565,472.5 L565,482.5 L575,482.5 L565,472.5 " fill="#FAFAFA" style="stroke: #AAAAAA; stroke-width: 1.0;"/><text fill="#000000" font-family="monospace" font-size="12" lengthAdjust="spacingAndGlyphs" textLength="189" x="196" y="488.6387">449 state vectors received.</text><text fill="#000000" font-family="monospace" font-size="12" lengthAdjust="spacingAndGlyphs" textLength="336" x="196" y="502.6074">Each array entry mapped to a named AdsbRawEvent.</text><text fill="#000000" font-family="monospace" font-size="12" lengthAdjust="spacingAndGlyphs" textLength="364" x="196" y="516.5762">fetched_at_ms = Date.now() appended to every record.</text><polygon fill="#A80036" points="740,563.3438,750,567.3438,740,571.3438,744,567.3438" style="stroke: #A80036; stroke-width: 1.0;"/><line style="stroke: #A80036; stroke-width: 1.5;" x1="185.5" x2="746" y1="567.3438" y2="567.3438"/><text fill="#000000" font-family="monospace" font-size="12" lengthAdjust="spacingAndGlyphs" textLength="203" x="192.5" y="548.5449">ProduceRequest (449 messages)</text><text fill="#000000" font-family="monospace" font-size="12" lengthAdjust="spacingAndGlyphs" textLength="259" x="192.5" y="562.5137">key: icao24, value: AdsbRawEvent JSON</text><line style="stroke: #A80036; stroke-width: 1.5;" x1="752" x2="794" y1="623.25" y2="623.25"/><line style="stroke: #A80036; stroke-width: 1.5;" x1="794" x2="794" y1="623.25" y2="636.25"/><line style="stroke: #A80036; stroke-width: 1.5;" x1="753" x2="794" y1="636.25" y2="636.25"/><polygon fill="#A80036" points="763,632.25,753,636.25,763,640.25,759,636.25" style="stroke: #A80036; stroke-width: 1.0;"/><text fill="#000000" font-family="monospace" font-size="12" lengthAdjust="spacingAndGlyphs" textLength="161" x="759" y="590.4824">append to partition log</text><text fill="#000000" font-family="monospace" font-size="12" lengthAdjust="spacingAndGlyphs" textLength="91" x="759" y="604.4512">offsets 0-448</text><text fill="#000000" font-family="monospace" font-size="12" lengthAdjust="spacingAndGlyphs" textLength="161" x="759" y="618.4199">HIGH-WATERMARK: 0 → 449</text><polygon fill="#A80036" points="196.5,674.1875,186.5,678.1875,196.5,682.1875,192.5,678.1875" style="stroke: #A80036; stroke-width: 1.0;"/><line style="stroke: #A80036; stroke-width: 1.5; stroke-dasharray: 2.0,2.0;" x1="190.5" x2="751" y1="678.1875" y2="678.1875"/><text fill="#000000" font-family="monospace" font-size="12" lengthAdjust="spacingAndGlyphs" textLength="98" x="202.5" y="659.3887">RecordMetadata</text><text fill="#000000" font-family="monospace" font-size="12" lengthAdjust="spacingAndGlyphs" textLength="217" x="202.5" y="673.3574">(partition=0, first_offset="0")</text><path d="M190,691.1875 L190,728.1875 L589,728.1875 L589,701.1875 L579,691.1875 L190,691.1875 " fill="#FAFAFA" filter="url(#f1f3j8c76uaee7)" style="stroke: #AAAAAA; stroke-width: 1.0;"/><path d="M579,691.1875 L579,701.1875 L589,701.1875 L579,691.1875 " fill="#FAFAFA" style="stroke: #AAAAAA; stroke-width: 1.0;"/><text fill="#000000" font-family="monospace" font-size="12" lengthAdjust="spacingAndGlyphs" textLength="133" x="196" y="707.3262">poll cycle complete</text><text fill="#000000" font-family="monospace" font-size="12" lengthAdjust="spacingAndGlyphs" textLength="378" x="196" y="721.2949">state_vectors: 449, topic: adsb.raw, first_offset: "0"</text><line style="stroke: #A80036; stroke-width: 1.5;" x1="185.5" x2="227.5" y1="772.0625" y2="772.0625"/><line style="stroke: #A80036; stroke-width: 1.5;" x1="227.5" x2="227.5" y1="772.0625" y2="785.0625"/><line style="stroke: #A80036; stroke-width: 1.5;" x1="186.5" x2="227.5" y1="785.0625" y2="785.0625"/><polygon fill="#A80036" points="196.5,781.0625,186.5,785.0625,196.5,789.0625,192.5,785.0625" style="stroke: #A80036; stroke-width: 1.0;"/><text fill="#000000" font-family="monospace" font-size="12" lengthAdjust="spacingAndGlyphs" textLength="126" x="192.5" y="753.2637">scheduleNextPoll()</text><text fill="#000000" font-family="monospace" font-size="12" lengthAdjust="spacingAndGlyphs" textLength="126" x="192.5" y="767.2324">setTimeout(10_000)</text><rect fill="#EEEEEE" filter="url(#f1f3j8c76uaee7)" height="3" style="stroke: #EEEEEE; stroke-width: 1.0;" width="945" x="3" y="813.0469"/><line style="stroke: #000000; stroke-width: 1.0;" x1="3" x2="948" y1="813.0469" y2="813.0469"/><line style="stroke: #000000; stroke-width: 1.0;" x1="3" x2="948" y1="816.0469" y2="816.0469"/><rect fill="#EEEEEE" filter="url(#f1f3j8c76uaee7)" height="21.9688" style="stroke: #000000; stroke-width: 2.0;" width="364" x="293.5" y="803.0625"/><text fill="#000000" font-family="monospace" font-size="12" font-weight="bold" lengthAdjust="spacingAndGlyphs" textLength="343" x="299.5" y="818.2012">Wait — 10 s interval + ~1 s fetch/publish latency</text><text fill="#000000" font-family="monospace" font-size="12" lengthAdjust="spacingAndGlyphs" textLength="91" x="351.75" y="860.1699">~11 s elapsed</text><rect fill="#EEEEEE" filter="url(#f1f3j8c76uaee7)" height="3" style="stroke: #EEEEEE; stroke-width: 1.0;" width="945" x="3" y="896.9844"/><line style="stroke: #000000; stroke-width: 1.0;" x1="3" x2="948" y1="896.9844" y2="896.9844"/><line style="stroke: #000000; stroke-width: 1.0;" x1="3" x2="948" y1="899.9844" y2="899.9844"/><rect fill="#EEEEEE" filter="url(#f1f3j8c76uaee7)" height="21.9688" style="stroke: #000000; stroke-width: 2.0;" width="70" x="440.5" y="887"/><text fill="#000000" font-family="monospace" font-size="12" font-weight="bold" lengthAdjust="spacingAndGlyphs" textLength="49" x="446.5" y="902.1387">Cycle 2</text><polygon fill="#A80036" points="582.5,934.9375,592.5,938.9375,582.5,942.9375,586.5,938.9375" style="stroke: #A80036; stroke-width: 1.0;"/><line style="stroke: #A80036; stroke-width: 1.5;" x1="185.5" x2="588.5" y1="938.9375" y2="938.9375"/><text fill="#000000" font-family="monospace" font-size="12" lengthAdjust="spacingAndGlyphs" textLength="273" x="192.5" y="934.1074">GET /api/states/all (same bounding box)</text><polygon fill="#A80036" points="196.5,976.875,186.5,980.875,196.5,984.875,192.5,980.875" style="stroke: #A80036; stroke-width: 1.0;"/><line style="stroke: #A80036; stroke-width: 1.5; stroke-dasharray: 2.0,2.0;" x1="190.5" x2="593.5" y1="980.875" y2="980.875"/><text fill="#000000" font-family="monospace" font-size="12" lengthAdjust="spacingAndGlyphs" textLength="42" x="202.5" y="962.0762">200 OK</text><text fill="#000000" font-family="monospace" font-size="12" lengthAdjust="spacingAndGlyphs" textLength="308" x="202.5" y="976.0449">{"time": 1787261910, "states": [[...], ...]}</text><path d="M190,993.875 L190,1058.875 L645,1058.875 L645,1003.875 L635,993.875 L190,993.875 " fill="#FAFAFA" filter="url(#f1f3j8c76uaee7)" style="stroke: #AAAAAA; stroke-width: 1.0;"/><path d="M635,993.875 L635,1003.875 L645,1003.875 L635,993.875 " fill="#FAFAFA" style="stroke: #AAAAAA; stroke-width: 1.0;"/><text fill="#000000" font-family="monospace" font-size="12" lengthAdjust="spacingAndGlyphs" textLength="189" x="196" y="1010.0137">449 state vectors received.</text><text fill="#000000" font-family="monospace" font-size="12" lengthAdjust="spacingAndGlyphs" textLength="434" x="196" y="1023.9824">Aircraft 471efa (WMT581): lon advanced +0.0186°, lat -0.0025°.</text><text fill="#000000" font-family="monospace" font-size="12" lengthAdjust="spacingAndGlyphs" textLength="420" x="196" y="1037.9512">time_position advanced from 1787261405 to 1787261410 (+5 s).</text><text fill="#000000" font-family="monospace" font-size="12" lengthAdjust="spacingAndGlyphs" textLength="266" x="196" y="1051.9199">Real movement — not a cached snapshot.</text><polygon fill="#A80036" points="740,1098.6875,750,1102.6875,740,1106.6875,744,1102.6875" style="stroke: #A80036; stroke-width: 1.0;"/><line style="stroke: #A80036; stroke-width: 1.5;" x1="185.5" x2="746" y1="1102.6875" y2="1102.6875"/><text fill="#000000" font-family="monospace" font-size="12" lengthAdjust="spacingAndGlyphs" textLength="203" x="192.5" y="1083.8887">ProduceRequest (449 messages)</text><text fill="#000000" font-family="monospace" font-size="12" lengthAdjust="spacingAndGlyphs" textLength="259" x="192.5" y="1097.8574">key: icao24, value: AdsbRawEvent JSON</text><line style="stroke: #A80036; stroke-width: 1.5;" x1="752" x2="794" y1="1158.5938" y2="1158.5938"/><line style="stroke: #A80036; stroke-width: 1.5;" x1="794" x2="794" y1="1158.5938" y2="1171.5938"/><line style="stroke: #A80036; stroke-width: 1.5;" x1="753" x2="794" y1="1171.5938" y2="1171.5938"/><polygon fill="#A80036" points="763,1167.5938,753,1171.5938,763,1175.5938,759,1171.5938" style="stroke: #A80036; stroke-width: 1.0;"/><text fill="#000000" font-family="monospace" font-size="12" lengthAdjust="spacingAndGlyphs" textLength="161" x="759" y="1125.8262">append to partition log</text><text fill="#000000" font-family="monospace" font-size="12" lengthAdjust="spacingAndGlyphs" textLength="105" x="759" y="1139.7949">offsets 449-897</text><text fill="#000000" font-family="monospace" font-size="12" lengthAdjust="spacingAndGlyphs" textLength="175" x="759" y="1153.7637">HIGH-WATERMARK: 449 → 898</text><polygon fill="#A80036" points="196.5,1209.5313,186.5,1213.5313,196.5,1217.5313,192.5,1213.5313" style="stroke: #A80036; stroke-width: 1.0;"/><line style="stroke: #A80036; stroke-width: 1.5; stroke-dasharray: 2.0,2.0;" x1="190.5" x2="751" y1="1213.5313" y2="1213.5313"/><text fill="#000000" font-family="monospace" font-size="12" lengthAdjust="spacingAndGlyphs" textLength="98" x="202.5" y="1194.7324">RecordMetadata</text><text fill="#000000" font-family="monospace" font-size="12" lengthAdjust="spacingAndGlyphs" textLength="231" x="202.5" y="1208.7012">(partition=0, first_offset="449")</text><path d="M190,1226.5313 L190,1263.5313 L603,1263.5313 L603,1236.5313 L593,1226.5313 L190,1226.5313 " fill="#FAFAFA" filter="url(#f1f3j8c76uaee7)" style="stroke: #AAAAAA; stroke-width: 1.0;"/><path d="M593,1226.5313 L593,1236.5313 L603,1236.5313 L593,1226.5313 " fill="#FAFAFA" style="stroke: #AAAAAA; stroke-width: 1.0;"/><text fill="#000000" font-family="monospace" font-size="12" lengthAdjust="spacingAndGlyphs" textLength="133" x="196" y="1242.6699">poll cycle complete</text><text fill="#000000" font-family="monospace" font-size="12" lengthAdjust="spacingAndGlyphs" textLength="392" x="196" y="1256.6387">state_vectors: 449, topic: adsb.raw, first_offset: "449"</text><line style="stroke: #A80036; stroke-width: 1.5;" x1="185.5" x2="227.5" y1="1307.4063" y2="1307.4063"/><line style="stroke: #A80036; stroke-width: 1.5;" x1="227.5" x2="227.5" y1="1307.4063" y2="1320.4063"/><line style="stroke: #A80036; stroke-width: 1.5;" x1="186.5" x2="227.5" y1="1320.4063" y2="1320.4063"/><polygon fill="#A80036" points="196.5,1316.4063,186.5,1320.4063,196.5,1324.4063,192.5,1320.4063" style="stroke: #A80036; stroke-width: 1.0;"/><text fill="#000000" font-family="monospace" font-size="12" lengthAdjust="spacingAndGlyphs" textLength="126" x="192.5" y="1288.6074">scheduleNextPoll()</text><text fill="#000000" font-family="monospace" font-size="12" lengthAdjust="spacingAndGlyphs" textLength="126" x="192.5" y="1302.5762">setTimeout(10_000)</text><text fill="#000000" font-family="monospace" font-size="12" lengthAdjust="spacingAndGlyphs" textLength="91" x="351.75" y="1353.5449">~11 s elapsed</text><rect fill="#EEEEEE" filter="url(#f1f3j8c76uaee7)" height="3" style="stroke: #EEEEEE; stroke-width: 1.0;" width="945" x="3" y="1390.3594"/><line style="stroke: #000000; stroke-width: 1.0;" x1="3" x2="948" y1="1390.3594" y2="1390.3594"/><line style="stroke: #000000; stroke-width: 1.0;" x1="3" x2="948" y1="1393.3594" y2="1393.3594"/><rect fill="#EEEEEE" filter="url(#f1f3j8c76uaee7)" height="21.9688" style="stroke: #000000; stroke-width: 2.0;" width="70" x="440.5" y="1380.375"/><text fill="#000000" font-family="monospace" font-size="12" font-weight="bold" lengthAdjust="spacingAndGlyphs" textLength="49" x="446.5" y="1395.5137">Cycle 3</text><polygon fill="#A80036" points="582.5,1428.3125,592.5,1432.3125,582.5,1436.3125,586.5,1432.3125" style="stroke: #A80036; stroke-width: 1.0;"/><line style="stroke: #A80036; stroke-width: 1.5;" x1="185.5" x2="588.5" y1="1432.3125" y2="1432.3125"/><text fill="#000000" font-family="monospace" font-size="12" lengthAdjust="spacingAndGlyphs" textLength="273" x="192.5" y="1427.4824">GET /api/states/all (same bounding box)</text><polygon fill="#A80036" points="196.5,1470.25,186.5,1474.25,196.5,1478.25,192.5,1474.25" style="stroke: #A80036; stroke-width: 1.0;"/><line style="stroke: #A80036; stroke-width: 1.5; stroke-dasharray: 2.0,2.0;" x1="190.5" x2="593.5" y1="1474.25" y2="1474.25"/><text fill="#000000" font-family="monospace" font-size="12" lengthAdjust="spacingAndGlyphs" textLength="42" x="202.5" y="1455.4512">200 OK</text><text fill="#000000" font-family="monospace" font-size="12" lengthAdjust="spacingAndGlyphs" textLength="308" x="202.5" y="1469.4199">449 → 446 aircraft (3 left the bounding box)</text><polygon fill="#A80036" points="740,1498.2188,750,1502.2188,740,1506.2188,744,1502.2188" style="stroke: #A80036; stroke-width: 1.0;"/><line style="stroke: #A80036; stroke-width: 1.5;" x1="185.5" x2="746" y1="1502.2188" y2="1502.2188"/><text fill="#000000" font-family="monospace" font-size="12" lengthAdjust="spacingAndGlyphs" textLength="203" x="192.5" y="1497.3887">ProduceRequest (446 messages)</text><line style="stroke: #A80036; stroke-width: 1.5;" x1="752" x2="794" y1="1558.125" y2="1558.125"/><line style="stroke: #A80036; stroke-width: 1.5;" x1="794" x2="794" y1="1558.125" y2="1571.125"/><line style="stroke: #A80036; stroke-width: 1.5;" x1="753" x2="794" y1="1571.125" y2="1571.125"/><polygon fill="#A80036" points="763,1567.125,753,1571.125,763,1575.125,759,1571.125" style="stroke: #A80036; stroke-width: 1.0;"/><text fill="#000000" font-family="monospace" font-size="12" lengthAdjust="spacingAndGlyphs" textLength="161" x="759" y="1525.3574">append to partition log</text><text fill="#000000" font-family="monospace" font-size="12" lengthAdjust="spacingAndGlyphs" textLength="112" x="759" y="1539.3262">offsets 898-1343</text><text fill="#000000" font-family="monospace" font-size="12" lengthAdjust="spacingAndGlyphs" textLength="182" x="759" y="1553.2949">HIGH-WATERMARK: 898 → 1344</text><polygon fill="#A80036" points="196.5,1609.0625,186.5,1613.0625,196.5,1617.0625,192.5,1613.0625" style="stroke: #A80036; stroke-width: 1.0;"/><line style="stroke: #A80036; stroke-width: 1.5; stroke-dasharray: 2.0,2.0;" x1="190.5" x2="751" y1="1613.0625" y2="1613.0625"/><text fill="#000000" font-family="monospace" font-size="12" lengthAdjust="spacingAndGlyphs" textLength="98" x="202.5" y="1594.2637">RecordMetadata</text><text fill="#000000" font-family="monospace" font-size="12" lengthAdjust="spacingAndGlyphs" textLength="231" x="202.5" y="1608.2324">(partition=0, first_offset="898")</text><line style="stroke: #A80036; stroke-width: 1.5;" x1="185.5" x2="227.5" y1="1641.0313" y2="1641.0313"/><line style="stroke: #A80036; stroke-width: 1.5;" x1="227.5" x2="227.5" y1="1641.0313" y2="1654.0313"/><line style="stroke: #A80036; stroke-width: 1.5;" x1="186.5" x2="227.5" y1="1654.0313" y2="1654.0313"/><polygon fill="#A80036" points="196.5,1650.0313,186.5,1654.0313,196.5,1658.0313,192.5,1654.0313" style="stroke: #A80036; stroke-width: 1.0;"/><text fill="#000000" font-family="monospace" font-size="12" lengthAdjust="spacingAndGlyphs" textLength="126" x="192.5" y="1636.2012">scheduleNextPoll()</text><rect fill="#EEEEEE" filter="url(#f1f3j8c76uaee7)" height="3" style="stroke: #EEEEEE; stroke-width: 1.0;" width="945" x="3" y="1682.0156"/><line style="stroke: #000000; stroke-width: 1.0;" x1="3" x2="948" y1="1682.0156" y2="1682.0156"/><line style="stroke: #000000; stroke-width: 1.0;" x1="3" x2="948" y1="1685.0156" y2="1685.0156"/><rect fill="#EEEEEE" filter="url(#f1f3j8c76uaee7)" height="21.9688" style="stroke: #000000; stroke-width: 2.0;" width="378" x="286.5" y="1672.0313"/><text fill="#000000" font-family="monospace" font-size="12" font-weight="bold" lengthAdjust="spacingAndGlyphs" textLength="357" x="292.5" y="1687.1699">Graceful shutdown (SIGTERM received between cycles)</text><polygon fill="#A80036" points="173.5,1719.9688,183.5,1723.9688,173.5,1727.9688,177.5,1723.9688" style="stroke: #A80036; stroke-width: 1.0;"/><line style="stroke: #A80036; stroke-width: 1.5;" x1="42.5" x2="179.5" y1="1723.9688" y2="1723.9688"/><text fill="#000000" font-family="monospace" font-size="12" lengthAdjust="spacingAndGlyphs" textLength="49" x="49.5" y="1719.1387">SIGTERM</text><line style="stroke: #A80036; stroke-width: 1.5;" x1="185.5" x2="227.5" y1="1765.9063" y2="1765.9063"/><line style="stroke: #A80036; stroke-width: 1.5;" x1="227.5" x2="227.5" y1="1765.9063" y2="1778.9063"/><line style="stroke: #A80036; stroke-width: 1.5;" x1="186.5" x2="227.5" y1="1778.9063" y2="1778.9063"/><polygon fill="#A80036" points="196.5,1774.9063,186.5,1778.9063,196.5,1782.9063,192.5,1778.9063" style="stroke: #A80036; stroke-width: 1.0;"/><text fill="#000000" font-family="monospace" font-size="12" lengthAdjust="spacingAndGlyphs" textLength="105" x="192.5" y="1747.1074">stopping = true</text><text fill="#000000" font-family="monospace" font-size="12" lengthAdjust="spacingAndGlyphs" textLength="175" x="192.5" y="1761.0762">clearTimeout(pollTimeout)</text><path d="M190,1791.9063 L190,1842.9063 L463,1842.9063 L463,1801.9063 L453,1791.9063 L190,1791.9063 " fill="#FAFAFA" filter="url(#f1f3j8c76uaee7)" style="stroke: #AAAAAA; stroke-width: 1.0;"/><path d="M453,1791.9063 L453,1801.9063 L463,1801.9063 L453,1791.9063 " fill="#FAFAFA" style="stroke: #AAAAAA; stroke-width: 1.0;"/><text fill="#000000" font-family="monospace" font-size="12" lengthAdjust="spacingAndGlyphs" textLength="245" x="196" y="1808.0449">shutdown initiated, signal: SIGTERM</text><text fill="#000000" font-family="monospace" font-size="12" lengthAdjust="spacingAndGlyphs" textLength="217" x="196" y="1822.0137">In-flight setTimeout cancelled.</text><text fill="#000000" font-family="monospace" font-size="12" lengthAdjust="spacingAndGlyphs" textLength="252" x="196" y="1835.9824">No new poll cycle will be scheduled.</text><polygon fill="#A80036" points="740,1868.7813,750,1872.7813,740,1876.7813,744,1872.7813" style="stroke: #A80036; stroke-width: 1.0;"/><line style="stroke: #A80036; stroke-width: 1.5;" x1="185.5" x2="746" y1="1872.7813" y2="1872.7813"/><text fill="#000000" font-family="monospace" font-size="12" lengthAdjust="spacingAndGlyphs" textLength="84" x="192.5" y="1867.9512">disconnect()</text><polygon fill="#A80036" points="196.5,1896.75,186.5,1900.75,196.5,1904.75,192.5,1900.75" style="stroke: #A80036; stroke-width: 1.0;"/><line style="stroke: #A80036; stroke-width: 1.5; stroke-dasharray: 2.0,2.0;" x1="190.5" x2="751" y1="1900.75" y2="1900.75"/><text fill="#000000" font-family="monospace" font-size="12" lengthAdjust="spacingAndGlyphs" textLength="84" x="202.5" y="1895.9199">disconnected</text><path d="M190,1913.75 L190,1978.75 L589,1978.75 L589,1923.75 L579,1913.75 L190,1913.75 " fill="#FAFAFA" filter="url(#f1f3j8c76uaee7)" style="stroke: #AAAAAA; stroke-width: 1.0;"/><path d="M579,1913.75 L579,1923.75 L589,1923.75 L579,1913.75 " fill="#FAFAFA" style="stroke: #AAAAAA; stroke-width: 1.0;"/><text fill="#000000" font-family="monospace" font-size="12" lengthAdjust="spacingAndGlyphs" textLength="147" x="196" y="1929.8887">producer disconnected</text><text fill="#000000" font-family="monospace" font-size="12" lengthAdjust="spacingAndGlyphs" textLength="154" x="196" y="1943.8574">Process exits cleanly.</text><text fill="#000000" font-family="monospace" font-size="12" lengthAdjust="spacingAndGlyphs" textLength="217" x="196" y="1957.8262">HIGH-WATERMARK remains at 1344.</text><text fill="#000000" font-family="monospace" font-size="12" lengthAdjust="spacingAndGlyphs" textLength="378" x="196" y="1971.7949">LOG-START-OFFSET remains at 0 — all records available.</text><!--MD5=[5dedcbdc97a1675d8456848579f1a0eb]
@startuml polling-sequence
title OpenSky Ingestion Poller — Observed Interaction

skinparam defaultFontName Monospaced
skinparam defaultFontSize 12
skinparam sequenceArrowThickness 1.5
skinparam sequenceParticipantBorderColor #888888
skinparam sequenceLifeLineBorderColor #AAAAAA
skinparam noteBorderColor #AAAAAA
skinparam noteBackgroundColor #FAFAFA
skinparam sequenceGroupBorderColor #CCCCCC
skinparam sequenceGroupBodyBackgroundColor #FAFAFA

actor Developer as dev

participant "ingestion-poller\n(poller.ts)" as Poller #DBEAFE
participant "OpenSky Network\nREST API" as OpenSky #D1FAE5
participant "Redpanda\nadsb.raw — Partition 0" as Broker #FEF9C3

== Startup ==

dev -> Poller : tsx src/poller.ts
Poller -> Broker : connect()\n+ version handshake
Broker - -> Poller : connected

note right of Poller
  producer connected
  poller starting
  url: .../states/all?lamin=49&lomin=-8&lamax=61&lomax=10
  poll_interval_ms: 10000
end note

== Cycle 1 — fires immediately on startup ==

Poller -> OpenSky : GET /api/states/all?lamin=49&lomin=-8&lamax=61&lomax=10\nAbortSignal.timeout(8_000)
OpenSky - -> Poller : 200 OK\n{"time": 1787261900, "states": [[...], ...]}

note right of Poller
  449 state vectors received.
  Each array entry mapped to a named AdsbRawEvent.
  fetched_at_ms = Date.now() appended to every record.
end note

Poller -> Broker : ProduceRequest (449 messages)\nkey: icao24, value: AdsbRawEvent JSON
Broker -> Broker : append to partition log\noffsets 0-448\nHIGH-WATERMARK: 0 → 449
Broker - -> Poller : RecordMetadata\n(partition=0, first_offset="0")

note right of Poller
  poll cycle complete
  state_vectors: 449, topic: adsb.raw, first_offset: "0"
end note

Poller -> Poller : scheduleNextPoll()\nsetTimeout(10_000)

== Wait — 10 s interval + ~1 s fetch/publish latency ==

... ~11 s elapsed ...

== Cycle 2 ==

Poller -> OpenSky : GET /api/states/all (same bounding box)
OpenSky - -> Poller : 200 OK\n{"time": 1787261910, "states": [[...], ...]}

note right of Poller
  449 state vectors received.
  Aircraft 471efa (WMT581): lon advanced +0.0186°, lat -0.0025°.
  time_position advanced from 1787261405 to 1787261410 (+5 s).
  Real movement — not a cached snapshot.
end note

Poller -> Broker : ProduceRequest (449 messages)\nkey: icao24, value: AdsbRawEvent JSON
Broker -> Broker : append to partition log\noffsets 449-897\nHIGH-WATERMARK: 449 → 898
Broker - -> Poller : RecordMetadata\n(partition=0, first_offset="449")

note right of Poller
  poll cycle complete
  state_vectors: 449, topic: adsb.raw, first_offset: "449"
end note

Poller -> Poller : scheduleNextPoll()\nsetTimeout(10_000)

... ~11 s elapsed ...

== Cycle 3 ==

Poller -> OpenSky : GET /api/states/all (same bounding box)
OpenSky - -> Poller : 200 OK\n449 → 446 aircraft (3 left the bounding box)

Poller -> Broker : ProduceRequest (446 messages)
Broker -> Broker : append to partition log\noffsets 898-1343\nHIGH-WATERMARK: 898 → 1344
Broker - -> Poller : RecordMetadata\n(partition=0, first_offset="898")

Poller -> Poller : scheduleNextPoll()

== Graceful shutdown (SIGTERM received between cycles) ==

dev -> Poller : SIGTERM
Poller -> Poller : stopping = true\nclearTimeout(pollTimeout)

note right of Poller
  shutdown initiated, signal: SIGTERM
  In-flight setTimeout cancelled.
  No new poll cycle will be scheduled.
end note

Poller -> Broker : disconnect()
Broker - -> Poller : disconnected

note right of Poller
  producer disconnected
  Process exits cleanly.
  HIGH-WATERMARK remains at 1344.
  LOG-START-OFFSET remains at 0 — all records available.
end note

@enduml

PlantUML version 1.2020.02(Sun Mar 01 10:22:07 UTC 2020)
(GPL source distribution)
Java Runtime: OpenJDK Runtime Environment
JVM: OpenJDK 64-Bit Server VM
Java Version: 17.0.20+8
Operating System: Linux
Default Encoding: UTF-8
Language: en
Country: null
--></g></svg>