<?xml version="1.0" encoding="UTF-8" standalone="no"?><svg xmlns="http://www.w3.org/2000/svg" xmlns:xlink="http://www.w3.org/1999/xlink" contentScriptType="application/ecmascript" contentStyleType="text/css" height="718px" preserveAspectRatio="none" style="width:1294px;height:718px;" version="1.1" viewBox="0 0 1294 718" width="1294px" zoomAndPan="magnify"><defs><filter height="300%" id="fg8318smendcb" width="300%" x="-1" y="-1"><feGaussianBlur result="blurOut" stdDeviation="2.0"/><feColorMatrix in="blurOut" result="blurOut2" type="matrix" values="0 0 0 0 0 0 0 0 0 0 0 0 0 0 0 0 0 0 .4 0"/><feOffset dx="4.0" dy="4.0" in="blurOut2" result="blurOut3"/><feBlend in="SourceGraphic" in2="blurOut3" mode="normal"/></filter></defs><g><text fill="#000000" font-family="sans-serif" font-size="18" lengthAdjust="spacingAndGlyphs" textLength="532" x="379.25" y="26.708">US-08: Normal Ingestion - Poller Publishes Without Blocking</text><rect fill="#FFFFFF" filter="url(#fg8318smendcb)" height="175.0625" style="stroke: #000000; stroke-width: 2.0;" width="483" x="82" y="139.6797"/><line style="stroke: #A80036; stroke-width: 1.0; stroke-dasharray: 5.0,5.0;" x1="67" x2="67" y1="93.5469" y2="657.6016"/><line style="stroke: #A80036; stroke-width: 1.0; stroke-dasharray: 5.0,5.0;" x1="226" x2="226" y1="93.5469" y2="657.6016"/><line style="stroke: #A80036; stroke-width: 1.0; stroke-dasharray: 5.0,5.0;" x1="484" x2="484" y1="93.5469" y2="657.6016"/><line style="stroke: #A80036; stroke-width: 1.0; stroke-dasharray: 5.0,5.0;" x1="750" x2="750" y1="93.5469" y2="657.6016"/><line style="stroke: #A80036; stroke-width: 1.0; stroke-dasharray: 5.0,5.0;" x1="964.5" x2="964.5" y1="93.5469" y2="657.6016"/><line style="stroke: #A80036; stroke-width: 1.0; stroke-dasharray: 5.0,5.0;" x1="1226.5" x2="1226.5" y1="93.5469" y2="657.6016"/><rect fill="#FEFECE" filter="url(#fg8318smendcb)" height="46.5938" style="stroke: #A80036; stroke-width: 1.5;" width="110" x="12" y="37.9531"/><rect fill="#FEFECE" filter="url(#fg8318smendcb)" height="46.5938" style="stroke: #A80036; stroke-width: 1.5;" width="110" x="8" y="41.9531"/><text fill="#000000" font-family="sans-serif" font-size="14" lengthAdjust="spacingAndGlyphs" textLength="96" x="15" y="61.9482">OpenSky / AIS</text><text fill="#000000" font-family="sans-serif" font-size="14" lengthAdjust="spacingAndGlyphs" textLength="35" x="45.5" y="78.2451">Feed</text><rect fill="#FEFECE" filter="url(#fg8318smendcb)" height="46.5938" style="stroke: #A80036; stroke-width: 1.5;" width="110" x="12" y="656.6016"/><rect fill="#FEFECE" filter="url(#fg8318smendcb)" height="46.5938" style="stroke: #A80036; stroke-width: 1.5;" width="110" x="8" y="660.6016"/><text fill="#000000" font-family="sans-serif" font-size="14" lengthAdjust="spacingAndGlyphs" textLength="96" x="15" y="680.5967">OpenSky / AIS</text><text fill="#000000" font-family="sans-serif" font-size="14" lengthAdjust="spacingAndGlyphs" textLength="35" x="45.5" y="696.8936">Feed</text><rect fill="#F8F8F8" filter="url(#fg8318smendcb)" height="46.5938" style="stroke: #555555; stroke-width: 1.5;" width="78" x="185" y="41.9531"/><text fill="#000000" font-family="sans-serif" font-size="14" lengthAdjust="spacingAndGlyphs" textLength="64" x="192" y="61.9482">Ingestion</text><text fill="#000000" font-family="sans-serif" font-size="14" lengthAdjust="spacingAndGlyphs" textLength="38" x="205" y="78.2451">Poller</text><rect fill="#F8F8F8" filter="url(#fg8318smendcb)" height="46.5938" style="stroke: #555555; stroke-width: 1.5;" width="78" x="185" y="656.6016"/><text fill="#000000" font-family="sans-serif" font-size="14" lengthAdjust="spacingAndGlyphs" textLength="64" x="192" y="676.5967">Ingestion</text><text fill="#000000" font-family="sans-serif" font-size="14" lengthAdjust="spacingAndGlyphs" textLength="38" x="205" y="692.8936">Poller</text><path d="M418,50.9531 L550,50.9531 C555,50.9531 555,72.25 555,72.25 C555,72.25 555,93.5469 550,93.5469 L418,93.5469 C413,93.5469 413,72.25 413,72.25 C413,72.25 413,50.9531 418,50.9531 " fill="#FEFECE" filter="url(#fg8318smendcb)" style="stroke: #A80036; stroke-width: 2.0;"/><path d="M550,50.9531 C545,50.9531 545,72.25 545,72.25 C545,93.5469 550,93.5469 550,93.5469 " fill="none" style="stroke: #A80036; stroke-width: 2.0;"/><text fill="#000000" font-family="sans-serif" font-size="14" lengthAdjust="spacingAndGlyphs" textLength="37" x="460.5" y="68.9482">Kafka</text><text fill="#000000" font-family="sans-serif" font-size="14" lengthAdjust="spacingAndGlyphs" textLength="122" x="418" y="85.2451">adsb.raw / ais.raw</text><path d="M418,656.6016 L550,656.6016 C555,656.6016 555,677.8984 555,677.8984 C555,677.8984 555,699.1953 550,699.1953 L418,699.1953 C413,699.1953 413,677.8984 413,677.8984 C413,677.8984 413,656.6016 418,656.6016 " fill="#FEFECE" filter="url(#fg8318smendcb)" style="stroke: #A80036; stroke-width: 2.0;"/><path d="M550,656.6016 C545,656.6016 545,677.8984 545,677.8984 C545,699.1953 550,699.1953 550,699.1953 " fill="none" style="stroke: #A80036; stroke-width: 2.0;"/><text fill="#000000" font-family="sans-serif" font-size="14" lengthAdjust="spacingAndGlyphs" textLength="37" x="460.5" y="674.5967">Kafka</text><text fill="#000000" font-family="sans-serif" font-size="14" lengthAdjust="spacingAndGlyphs" textLength="122" x="418" y="690.8936">adsb.raw / ais.raw</text><rect fill="#F8F8F8" filter="url(#fg8318smendcb)" height="46.5938" style="stroke: #555555; stroke-width: 1.5;" width="86" x="705" y="41.9531"/><text fill="#000000" font-family="sans-serif" font-size="14" lengthAdjust="spacingAndGlyphs" textLength="55" x="720.5" y="61.9482">Position</text><text fill="#000000" font-family="sans-serif" font-size="14" lengthAdjust="spacingAndGlyphs" textLength="72" x="712" y="78.2451">Consumer</text><rect fill="#F8F8F8" filter="url(#fg8318smendcb)" height="46.5938" style="stroke: #555555; stroke-width: 1.5;" width="86" x="705" y="656.6016"/><text fill="#000000" font-family="sans-serif" font-size="14" lengthAdjust="spacingAndGlyphs" textLength="55" x="720.5" y="676.5967">Position</text><text fill="#000000" font-family="sans-serif" font-size="14" lengthAdjust="spacingAndGlyphs" textLength="72" x="712" y="692.8936">Consumer</text><path d="M892.5,50.9531 L1037.5,50.9531 C1042.5,50.9531 1042.5,72.25 1042.5,72.25 C1042.5,72.25 1042.5,93.5469 1037.5,93.5469 L892.5,93.5469 C887.5,93.5469 887.5,72.25 887.5,72.25 C887.5,72.25 887.5,50.9531 892.5,50.9531 " fill="#FEFECE" filter="url(#fg8318smendcb)" style="stroke: #A80036; stroke-width: 2.0;"/><path d="M1037.5,50.9531 C1032.5,50.9531 1032.5,72.25 1032.5,72.25 C1032.5,93.5469 1037.5,93.5469 1037.5,93.5469 " fill="none" style="stroke: #A80036; stroke-width: 2.0;"/><text fill="#000000" font-family="sans-serif" font-size="14" lengthAdjust="spacingAndGlyphs" textLength="37" x="941.5" y="68.9482">Kafka</text><text fill="#000000" font-family="sans-serif" font-size="14" lengthAdjust="spacingAndGlyphs" textLength="135" x="892.5" y="85.2451">position.normalized</text><path d="M892.5,656.6016 L1037.5,656.6016 C1042.5,656.6016 1042.5,677.8984 1042.5,677.8984 C1042.5,677.8984 1042.5,699.1953 1037.5,699.1953 L892.5,699.1953 C887.5,699.1953 887.5,677.8984 887.5,677.8984 C887.5,677.8984 887.5,656.6016 892.5,656.6016 " fill="#FEFECE" filter="url(#fg8318smendcb)" style="stroke: #A80036; stroke-width: 2.0;"/><path d="M1037.5,656.6016 C1032.5,656.6016 1032.5,677.8984 1032.5,677.8984 C1032.5,699.1953 1037.5,699.1953 1037.5,699.1953 " fill="none" style="stroke: #A80036; stroke-width: 2.0;"/><text fill="#000000" font-family="sans-serif" font-size="14" lengthAdjust="spacingAndGlyphs" textLength="37" x="941.5" y="674.5967">Kafka</text><text fill="#000000" font-family="sans-serif" font-size="14" lengthAdjust="spacingAndGlyphs" textLength="135" x="892.5" y="690.8936">position.normalized</text><rect fill="#F8F8F8" filter="url(#fg8318smendcb)" height="46.5938" style="stroke: #555555; stroke-width: 1.5;" width="89" x="1180.5" y="41.9531"/><text fill="#000000" font-family="sans-serif" font-size="14" lengthAdjust="spacingAndGlyphs" textLength="75" x="1187.5" y="61.9482">Correlation</text><text fill="#000000" font-family="sans-serif" font-size="14" lengthAdjust="spacingAndGlyphs" textLength="49" x="1200.5" y="78.2451">Worker</text><rect fill="#F8F8F8" filter="url(#fg8318smendcb)" height="46.5938" style="stroke: #555555; stroke-width: 1.5;" width="89" x="1180.5" y="656.6016"/><text fill="#000000" font-family="sans-serif" font-size="14" lengthAdjust="spacingAndGlyphs" textLength="75" x="1187.5" y="676.5967">Correlation</text><text fill="#000000" font-family="sans-serif" font-size="14" lengthAdjust="spacingAndGlyphs" textLength="49" x="1200.5" y="692.8936">Worker</text><polygon fill="#A80036" points="214,120.6797,224,124.6797,214,128.6797,218,124.6797" style="stroke: #A80036; stroke-width: 1.0;"/><line style="stroke: #A80036; stroke-width: 1.5;" x1="67" x2="220" y1="124.6797" y2="124.6797"/><text fill="#000000" font-family="sans-serif" font-size="13" lengthAdjust="spacingAndGlyphs" textLength="135" x="74" y="119.6138">position pings (burst)</text><path d="M82,139.6797 L159,139.6797 L159,146.6797 L149,156.6797 L82,156.6797 L82,139.6797 " fill="#EEEEEE" style="stroke: #000000; stroke-width: 1.0;"/><rect fill="none" height="175.0625" style="stroke: #000000; stroke-width: 2.0;" width="483" x="82" y="139.6797"/><text fill="#000000" font-family="sans-serif" font-size="13" font-weight="bold" lengthAdjust="spacingAndGlyphs" textLength="32" x="97" y="152.7466">loop</text><text fill="#000000" font-family="sans-serif" font-size="11" font-weight="bold" lengthAdjust="spacingAndGlyphs" textLength="95" x="174" y="151.8901">[for each ping]</text><polygon fill="#A80036" points="472,189.0781,482,193.0781,472,197.0781,476,193.0781" style="stroke: #A80036; stroke-width: 1.0;"/><line style="stroke: #A80036; stroke-width: 1.5;" x1="226" x2="478" y1="193.0781" y2="193.0781"/><text fill="#000000" font-family="sans-serif" font-size="13" lengthAdjust="spacingAndGlyphs" textLength="111" x="233" y="172.8794">publish raw event</text><text fill="#000000" font-family="sans-serif" font-size="13" lengthAdjust="spacingAndGlyphs" textLength="234" x="233" y="188.0122">{ entity_id, lat, lon, timestamp_ms }</text><polygon fill="#A80036" points="237,218.2109,227,222.2109,237,226.2109,233,222.2109" style="stroke: #A80036; stroke-width: 1.0;"/><line style="stroke: #A80036; stroke-width: 1.5; stroke-dasharray: 2.0,2.0;" x1="231" x2="483" y1="222.2109" y2="222.2109"/><text fill="#000000" font-family="sans-serif" font-size="13" lengthAdjust="spacingAndGlyphs" textLength="22" x="243" y="217.145">ack</text><path d="M92,235.2109 L92,305.2109 L355,305.2109 L355,245.2109 L345,235.2109 L92,235.2109 " fill="#FFFDE7" filter="url(#fg8318smendcb)" style="stroke: #AAAAAA; stroke-width: 1.0;"/><path d="M345,235.2109 L345,245.2109 L355,245.2109 L345,235.2109 " fill="#FFFDE7" style="stroke: #AAAAAA; stroke-width: 1.0;"/><text fill="#000000" font-family="sans-serif" font-size="13" lengthAdjust="spacingAndGlyphs" textLength="224" x="98" y="252.2778">Poller does not wait for consumers.</text><text fill="#000000" font-family="sans-serif" font-size="13" lengthAdjust="spacingAndGlyphs" textLength="242" x="98" y="267.4106">Publishes and moves on immediately.</text><text fill="#000000" font-family="sans-serif" font-size="13" lengthAdjust="spacingAndGlyphs" textLength="195" x="98" y="282.5435">No retry or buffer logic needed</text><text fill="#000000" font-family="sans-serif" font-size="13" lengthAdjust="spacingAndGlyphs" textLength="113" x="98" y="297.6763">in the poller itself.</text><path d="M374,326.7422 L374,381.7422 L589,381.7422 L589,336.7422 L579,326.7422 L374,326.7422 " fill="#FFFDE7" filter="url(#fg8318smendcb)" style="stroke: #AAAAAA; stroke-width: 1.0;"/><path d="M579,326.7422 L579,336.7422 L589,336.7422 L579,326.7422 " fill="#FFFDE7" style="stroke: #AAAAAA; stroke-width: 1.0;"/><text fill="#000000" font-family="sans-serif" font-size="13" lengthAdjust="spacingAndGlyphs" textLength="192" x="380" y="343.8091">Events retained for configured</text><text fill="#000000" font-family="sans-serif" font-size="13" lengthAdjust="spacingAndGlyphs" textLength="194" x="380" y="358.9419">retention window regardless of</text><text fill="#000000" font-family="sans-serif" font-size="13" lengthAdjust="spacingAndGlyphs" textLength="184" x="380" y="374.0747">consumer processing speed.</text><polygon fill="#A80036" points="738,423.4063,748,427.4063,738,431.4063,742,427.4063" style="stroke: #A80036; stroke-width: 1.0;"/><line style="stroke: #A80036; stroke-width: 1.5;" x1="484" x2="744" y1="427.4063" y2="427.4063"/><text fill="#000000" font-family="sans-serif" font-size="13" lengthAdjust="spacingAndGlyphs" textLength="140" x="491" y="407.2075">consume at own pace</text><text fill="#000000" font-family="sans-serif" font-size="13" lengthAdjust="spacingAndGlyphs" textLength="242" x="491" y="422.3403">(consumer group: position-consumer)</text><path d="M588,440.4063 L588,495.4063 L907,495.4063 L907,450.4063 L897,440.4063 L588,440.4063 " fill="#FFFDE7" filter="url(#fg8318smendcb)" style="stroke: #AAAAAA; stroke-width: 1.0;"/><path d="M897,440.4063 L897,450.4063 L907,450.4063 L897,440.4063 " fill="#FFFDE7" style="stroke: #AAAAAA; stroke-width: 1.0;"/><text fill="#000000" font-family="sans-serif" font-size="13" lengthAdjust="spacingAndGlyphs" textLength="222" x="594" y="457.4731">Parses and normalises raw events.</text><text fill="#000000" font-family="sans-serif" font-size="13" lengthAdjust="spacingAndGlyphs" textLength="298" x="594" y="472.606">Routes malformed events to DLQ (see US-09).</text><text fill="#000000" font-family="sans-serif" font-size="13" lengthAdjust="spacingAndGlyphs" textLength="269" x="594" y="487.7388">Publishes normalised events downstream.</text><polygon fill="#A80036" points="953,521.9375,963,525.9375,953,529.9375,957,525.9375" style="stroke: #A80036; stroke-width: 1.0;"/><line style="stroke: #A80036; stroke-width: 1.5;" x1="750" x2="959" y1="525.9375" y2="525.9375"/><text fill="#000000" font-family="sans-serif" font-size="13" lengthAdjust="spacingAndGlyphs" textLength="191" x="757" y="520.8716">publish to position.normalized</text><polygon fill="#A80036" points="1215,566.2031,1225,570.2031,1215,574.2031,1219,570.2031" style="stroke: #A80036; stroke-width: 1.0;"/><line style="stroke: #A80036; stroke-width: 1.5;" x1="965" x2="1221" y1="570.2031" y2="570.2031"/><text fill="#000000" font-family="sans-serif" font-size="13" lengthAdjust="spacingAndGlyphs" textLength="140" x="972" y="550.0044">consume at own pace</text><text fill="#000000" font-family="sans-serif" font-size="13" lengthAdjust="spacingAndGlyphs" textLength="238" x="972" y="565.1372">(consumer group: correlation-worker)</text><path d="M427,583.2031 L427,638.2031 L1282,638.2031 L1282,593.2031 L1272,583.2031 L427,583.2031 " fill="#FFFDE7" filter="url(#fg8318smendcb)" style="stroke: #AAAAAA; stroke-width: 1.0;"/><path d="M1272,583.2031 L1272,593.2031 L1282,593.2031 L1272,583.2031 " fill="#FFFDE7" style="stroke: #AAAAAA; stroke-width: 1.0;"/><text fill="#000000" font-family="sans-serif" font-size="13" lengthAdjust="spacingAndGlyphs" textLength="331" x="682.75" y="600.27">Each stage reads independently from its own offset.</text><text fill="#000000" font-family="sans-serif" font-size="13" lengthAdjust="spacingAndGlyphs" textLength="255" x="682.75" y="615.4028">A slow correlation worker does not block</text><text fill="#000000" font-family="sans-serif" font-size="13" lengthAdjust="spacingAndGlyphs" textLength="228" x="682.75" y="630.5356">the position consumer or the poller.</text><!--MD5=[75e4e69e0a15feb78e72678a9280e17c]
@startuml normal-ingestion
title US-08: Normal Ingestion - Poller Publishes Without Blocking

skinparam sequenceArrowThickness 1.5
skinparam participantBorderColor #555555
skinparam participantBackgroundColor #F8F8F8
skinparam noteBorderColor #AAAAAA
skinparam noteBackgroundColor #FFFDE7

collections "OpenSky / AIS\nFeed" as Feed
participant "Ingestion\nPoller" as Poller
queue "Kafka\nadsb.raw / ais.raw" as KafkaRaw
participant "Position\nConsumer" as PosConsumer
queue "Kafka\nposition.normalized" as KafkaNorm
participant "Correlation\nWorker" as Correlation

Feed -> Poller : position pings (burst)

loop for each ping
  Poller -> KafkaRaw : publish raw event\n{ entity_id, lat, lon, timestamp_ms }
  KafkaRaw - -> Poller : ack

  note over Poller
    Poller does not wait for consumers.
    Publishes and moves on immediately.
    No retry or buffer logic needed
    in the poller itself.
  end note
end

note over KafkaRaw
  Events retained for configured
  retention window regardless of
  consumer processing speed.
end note

KafkaRaw -> PosConsumer : consume at own pace\n(consumer group: position-consumer)

note over PosConsumer
  Parses and normalises raw events.
  Routes malformed events to DLQ (see US-09).
  Publishes normalised events downstream.
end note

PosConsumer -> KafkaNorm : publish to position.normalized

KafkaNorm -> Correlation : consume at own pace\n(consumer group: correlation-worker)

note over KafkaRaw, Correlation
  Each stage reads independently from its own offset.
  A slow correlation worker does not block
  the position consumer or the poller.
end note

@enduml

PlantUML version 1.2020.02(Sun Mar 01 10:22:07 UTC 2020)
(GPL source distribution)
Java Runtime: OpenJDK Runtime Environment
JVM: OpenJDK 64-Bit Server VM
Java Version: 17.0.20.1+1
Operating System: Linux
Default Encoding: UTF-8
Language: en
Country: null
--></g></svg>