<?xml version="1.0" encoding="UTF-8" standalone="no"?><svg xmlns="http://www.w3.org/2000/svg" xmlns:xlink="http://www.w3.org/1999/xlink" contentScriptType="application/ecmascript" contentStyleType="text/css" height="955px" preserveAspectRatio="none" style="width:1269px;height:955px;" version="1.1" viewBox="0 0 1269 955" width="1269px" zoomAndPan="magnify"><defs><filter height="300%" id="f1te5utrdvdi9e" width="300%" x="-1" y="-1"><feGaussianBlur result="blurOut" stdDeviation="2.0"/><feColorMatrix in="blurOut" result="blurOut2" type="matrix" values="0 0 0 0 0 0 0 0 0 0 0 0 0 0 0 0 0 0 .4 0"/><feOffset dx="4.0" dy="4.0" in="blurOut2" result="blurOut3"/><feBlend in="SourceGraphic" in2="blurOut3" mode="normal"/></filter></defs><g><text fill="#000000" font-family="sans-serif" font-size="18" lengthAdjust="spacingAndGlyphs" textLength="765" x="253" y="26.708">US-06: Signal Correlation - Two Weak Signals Joined via proximity.candidates + Redis</text><rect fill="#FFFFFF" filter="url(#f1te5utrdvdi9e)" height="331.9922" style="stroke: #000000; stroke-width: 2.0;" width="874" x="384" y="516.6719"/><line style="stroke: #A80036; stroke-width: 1.0; stroke-dasharray: 5.0,5.0;" x1="88" x2="88" y1="116.5469" y2="865.6641"/><line style="stroke: #A80036; stroke-width: 1.0; stroke-dasharray: 5.0,5.0;" x1="553" x2="553" y1="116.5469" y2="865.6641"/><line style="stroke: #A80036; stroke-width: 1.0; stroke-dasharray: 5.0,5.0;" x1="967" x2="967" y1="116.5469" y2="865.6641"/><line style="stroke: #A80036; stroke-width: 1.0; stroke-dasharray: 5.0,5.0;" x1="1077" x2="1077" y1="116.5469" y2="865.6641"/><path d="M13,73.9531 L164,73.9531 C169,73.9531 169,95.25 169,95.25 C169,95.25 169,116.5469 164,116.5469 L13,116.5469 C8,116.5469 8,95.25 8,95.25 C8,95.25 8,73.9531 13,73.9531 " fill="#FEFECE" filter="url(#f1te5utrdvdi9e)" style="stroke: #A80036; stroke-width: 2.0;"/><path d="M164,73.9531 C159,73.9531 159,95.25 159,95.25 C159,116.5469 164,116.5469 164,116.5469 " fill="none" style="stroke: #A80036; stroke-width: 2.0;"/><text fill="#000000" font-family="sans-serif" font-size="14" lengthAdjust="spacingAndGlyphs" textLength="37" x="65" y="91.9482">Kafka</text><text fill="#000000" font-family="sans-serif" font-size="14" lengthAdjust="spacingAndGlyphs" textLength="141" x="13" y="108.2451">proximity.candidates</text><path d="M13,864.6641 L164,864.6641 C169,864.6641 169,885.9609 169,885.9609 C169,885.9609 169,907.2578 164,907.2578 L13,907.2578 C8,907.2578 8,885.9609 8,885.9609 C8,885.9609 8,864.6641 13,864.6641 " fill="#FEFECE" filter="url(#f1te5utrdvdi9e)" style="stroke: #A80036; stroke-width: 2.0;"/><path d="M164,864.6641 C159,864.6641 159,885.9609 159,885.9609 C159,907.2578 164,907.2578 164,907.2578 " fill="none" style="stroke: #A80036; stroke-width: 2.0;"/><text fill="#000000" font-family="sans-serif" font-size="14" lengthAdjust="spacingAndGlyphs" textLength="37" x="65" y="882.6592">Kafka</text><text fill="#000000" font-family="sans-serif" font-size="14" lengthAdjust="spacingAndGlyphs" textLength="141" x="13" y="898.9561">proximity.candidates</text><rect fill="#F8F8F8" filter="url(#f1te5utrdvdi9e)" height="62.8906" style="stroke: #555555; stroke-width: 1.5;" width="77" x="513" y="48.6563"/><text fill="#000000" font-family="sans-serif" font-size="14" lengthAdjust="spacingAndGlyphs" textLength="31" x="536" y="68.6514">Alert</text><text fill="#000000" font-family="sans-serif" font-size="14" lengthAdjust="spacingAndGlyphs" textLength="63" x="520" y="84.9482">Evaluator</text><text fill="#000000" font-family="sans-serif" font-size="14" lengthAdjust="spacingAndGlyphs" textLength="53" x="525" y="101.2451">(leader)</text><rect fill="#F8F8F8" filter="url(#f1te5utrdvdi9e)" height="62.8906" style="stroke: #555555; stroke-width: 1.5;" width="77" x="513" y="864.6641"/><text fill="#000000" font-family="sans-serif" font-size="14" lengthAdjust="spacingAndGlyphs" textLength="31" x="536" y="884.6592">Alert</text><text fill="#000000" font-family="sans-serif" font-size="14" lengthAdjust="spacingAndGlyphs" textLength="63" x="520" y="900.9561">Evaluator</text><text fill="#000000" font-family="sans-serif" font-size="14" lengthAdjust="spacingAndGlyphs" textLength="53" x="525" y="917.2529">(leader)</text><text fill="#000000" font-family="sans-serif" font-size="14" lengthAdjust="spacingAndGlyphs" textLength="39" x="945" y="96.9482">Redis</text><text fill="#000000" font-family="sans-serif" font-size="14" lengthAdjust="spacingAndGlyphs" textLength="105" x="912" y="113.2451">alert-state:{id}</text><path d="M949.5,47.9531 C949.5,37.9531 967.5,37.9531 967.5,37.9531 C967.5,37.9531 985.5,37.9531 985.5,47.9531 L985.5,73.9531 C985.5,83.9531 967.5,83.9531 967.5,83.9531 C967.5,83.9531 949.5,83.9531 949.5,73.9531 L949.5,47.9531 " fill="#FEFECE" filter="url(#f1te5utrdvdi9e)" style="stroke: #000000; stroke-width: 1.5;"/><path d="M949.5,47.9531 C949.5,57.9531 967.5,57.9531 967.5,57.9531 C967.5,57.9531 985.5,57.9531 985.5,47.9531 " fill="none" style="stroke: #000000; stroke-width: 1.5;"/><text fill="#000000" font-family="sans-serif" font-size="14" lengthAdjust="spacingAndGlyphs" textLength="39" x="945" y="877.6592">Redis</text><text fill="#000000" font-family="sans-serif" font-size="14" lengthAdjust="spacingAndGlyphs" textLength="105" x="912" y="893.9561">alert-state:{id}</text><path d="M949.5,907.2578 C949.5,897.2578 967.5,897.2578 967.5,897.2578 C967.5,897.2578 985.5,897.2578 985.5,907.2578 L985.5,933.2578 C985.5,943.2578 967.5,943.2578 967.5,943.2578 C967.5,943.2578 949.5,943.2578 949.5,933.2578 L949.5,907.2578 " fill="#FEFECE" filter="url(#f1te5utrdvdi9e)" style="stroke: #000000; stroke-width: 1.5;"/><path d="M949.5,907.2578 C949.5,917.2578 967.5,917.2578 967.5,917.2578 C967.5,917.2578 985.5,917.2578 985.5,907.2578 " fill="none" style="stroke: #000000; stroke-width: 1.5;"/><text fill="#000000" font-family="sans-serif" font-size="14" lengthAdjust="spacingAndGlyphs" textLength="40" x="1054" y="96.9482">Neo4j</text><text fill="#000000" font-family="sans-serif" font-size="14" lengthAdjust="spacingAndGlyphs" textLength="82" x="1033" y="113.2451">entity graph</text><path d="M1059,47.9531 C1059,37.9531 1077,37.9531 1077,37.9531 C1077,37.9531 1095,37.9531 1095,47.9531 L1095,73.9531 C1095,83.9531 1077,83.9531 1077,83.9531 C1077,83.9531 1059,83.9531 1059,73.9531 L1059,47.9531 " fill="#FEFECE" filter="url(#f1te5utrdvdi9e)" style="stroke: #000000; stroke-width: 1.5;"/><path d="M1059,47.9531 C1059,57.9531 1077,57.9531 1077,57.9531 C1077,57.9531 1095,57.9531 1095,47.9531 " fill="none" style="stroke: #000000; stroke-width: 1.5;"/><text fill="#000000" font-family="sans-serif" font-size="14" lengthAdjust="spacingAndGlyphs" textLength="40" x="1054" y="877.6592">Neo4j</text><text fill="#000000" font-family="sans-serif" font-size="14" lengthAdjust="spacingAndGlyphs" textLength="82" x="1033" y="893.9561">entity graph</text><path d="M1059,907.2578 C1059,897.2578 1077,897.2578 1077,897.2578 C1077,897.2578 1095,897.2578 1095,907.2578 L1095,933.2578 C1095,943.2578 1077,943.2578 1077,943.2578 C1077,943.2578 1059,943.2578 1059,933.2578 L1059,907.2578 " fill="#FEFECE" filter="url(#f1te5utrdvdi9e)" style="stroke: #000000; stroke-width: 1.5;"/><path d="M1059,907.2578 C1059,917.2578 1077,917.2578 1077,917.2578 C1077,917.2578 1095,917.2578 1095,907.2578 " fill="none" style="stroke: #000000; stroke-width: 1.5;"/><path d="M377,131.5469 L377,171.5469 L726,171.5469 L726,141.5469 L716,131.5469 L377,131.5469 " fill="#FFFDE7" filter="url(#f1te5utrdvdi9e)" style="stroke: #AAAAAA; stroke-width: 1.0;"/><path d="M716,131.5469 L716,141.5469 L726,141.5469 L716,131.5469 " fill="#FFFDE7" style="stroke: #AAAAAA; stroke-width: 1.0;"/><text fill="#000000" font-family="sans-serif" font-size="13" lengthAdjust="spacingAndGlyphs" textLength="328" x="383" y="148.6138">Runs on Kafka consume from proximity.candidates.</text><text fill="#000000" font-family="sans-serif" font-size="13" lengthAdjust="spacingAndGlyphs" textLength="232" x="383" y="163.7466">Only the elected leader emits alerts.</text><polygon fill="#A80036" points="541.5,213.0781,551.5,217.0781,541.5,221.0781,545.5,217.0781" style="stroke: #A80036; stroke-width: 1.0;"/><line style="stroke: #A80036; stroke-width: 1.5;" x1="88.5" x2="547.5" y1="217.0781" y2="217.0781"/><text fill="#000000" font-family="sans-serif" font-size="13" lengthAdjust="spacingAndGlyphs" textLength="236" x="95.5" y="196.8794">consume proximity.candidates event</text><text fill="#000000" font-family="sans-serif" font-size="13" lengthAdjust="spacingAndGlyphs" textLength="441" x="95.5" y="212.0122">{ entity_a_id, entity_b_id, timestamp_ms, lat, lon, distance_metres }</text><path d="M389,230.0781 L389,315.0781 L714,315.0781 L714,240.0781 L704,230.0781 L389,230.0781 " fill="#FFFDE7" filter="url(#f1te5utrdvdi9e)" style="stroke: #AAAAAA; stroke-width: 1.0;"/><path d="M704,230.0781 L704,240.0781 L714,240.0781 L704,230.0781 " fill="#FFFDE7" style="stroke: #AAAAAA; stroke-width: 1.0;"/><text fill="#000000" font-family="sans-serif" font-size="13" lengthAdjust="spacingAndGlyphs" textLength="304" x="395" y="247.145">Proximity candidate: unscheduled pair detected</text><text fill="#000000" font-family="sans-serif" font-size="13" lengthAdjust="spacingAndGlyphs" textLength="166" x="395" y="262.2778">by the Correlation Worker.</text><text fill="#000000" font-family="sans-serif" font-size="13" lengthAdjust="spacingAndGlyphs" textLength="287" x="395" y="277.4106">Known associates already filtered upstream -</text><text fill="#000000" font-family="sans-serif" font-size="13" lengthAdjust="spacingAndGlyphs" textLength="154" x="395" y="292.5435">they never appear here.</text><text fill="#000000" font-family="sans-serif" font-size="13" lengthAdjust="spacingAndGlyphs" textLength="132" x="395" y="307.6763">This is weak signal 2.</text><polygon fill="#A80036" points="955.5,341.875,965.5,345.875,955.5,349.875,959.5,345.875" style="stroke: #A80036; stroke-width: 1.0;"/><line style="stroke: #A80036; stroke-width: 1.5;" x1="553.5" x2="961.5" y1="345.875" y2="345.875"/><text fill="#000000" font-family="sans-serif" font-size="13" lengthAdjust="spacingAndGlyphs" textLength="185" x="560.5" y="340.8091">GET alert-state:{entity_b_id}</text><polygon fill="#A80036" points="564.5,371.0078,554.5,375.0078,564.5,379.0078,560.5,375.0078" style="stroke: #A80036; stroke-width: 1.0;"/><line style="stroke: #A80036; stroke-width: 1.5; stroke-dasharray: 2.0,2.0;" x1="558.5" x2="966.5" y1="375.0078" y2="375.0078"/><text fill="#000000" font-family="sans-serif" font-size="13" lengthAdjust="spacingAndGlyphs" textLength="390" x="570.5" y="369.9419">$dark_since_ms (SIGNAL_LOSS alert active - Entity B is dark)</text><path d="M322,388.0078 L322,443.0078 L780,443.0078 L780,398.0078 L770,388.0078 L322,388.0078 " fill="#FFFDE7" filter="url(#f1te5utrdvdi9e)" style="stroke: #AAAAAA; stroke-width: 1.0;"/><path d="M770,388.0078 L770,398.0078 L780,398.0078 L770,388.0078 " fill="#FFFDE7" style="stroke: #AAAAAA; stroke-width: 1.0;"/><text fill="#000000" font-family="sans-serif" font-size="13" lengthAdjust="spacingAndGlyphs" textLength="394" x="328" y="405.0747">Weak signal 1: active signal loss confirmed via alert-state key.</text><text fill="#000000" font-family="sans-serif" font-size="13" lengthAdjust="spacingAndGlyphs" textLength="437" x="328" y="420.2075">dark_since_ms from the key value gives the start of the loss window.</text><text fill="#000000" font-family="sans-serif" font-size="13" lengthAdjust="spacingAndGlyphs" textLength="165" x="328" y="435.3403">Not actionable on its own.</text><line style="stroke: #A80036; stroke-width: 1.5;" x1="553.5" x2="595.5" y1="488.6719" y2="488.6719"/><line style="stroke: #A80036; stroke-width: 1.5;" x1="595.5" x2="595.5" y1="488.6719" y2="501.6719"/><line style="stroke: #A80036; stroke-width: 1.5;" x1="554.5" x2="595.5" y1="501.6719" y2="501.6719"/><polygon fill="#A80036" points="564.5,497.6719,554.5,501.6719,564.5,505.6719,560.5,501.6719" style="stroke: #A80036; stroke-width: 1.0;"/><text fill="#000000" font-family="sans-serif" font-size="13" lengthAdjust="spacingAndGlyphs" textLength="240" x="560.5" y="468.4731">check: does proximity timestamp_ms</text><text fill="#000000" font-family="sans-serif" font-size="13" lengthAdjust="spacingAndGlyphs" textLength="209" x="560.5" y="483.606">fall within the signal loss window?</text><path d="M384,516.6719 L448,516.6719 L448,523.6719 L438,533.6719 L384,533.6719 L384,516.6719 " fill="#EEEEEE" style="stroke: #000000; stroke-width: 1.0;"/><rect fill="none" height="331.9922" style="stroke: #000000; stroke-width: 2.0;" width="874" x="384" y="516.6719"/><text fill="#000000" font-family="sans-serif" font-size="13" font-weight="bold" lengthAdjust="spacingAndGlyphs" textLength="19" x="399" y="529.7388">alt</text><text fill="#000000" font-family="sans-serif" font-size="11" font-weight="bold" lengthAdjust="spacingAndGlyphs" textLength="197" x="463" y="528.8823">[proximity within loss window]</text><polygon fill="#A80036" points="1065,581.2031,1075,585.2031,1065,589.2031,1069,585.2031" style="stroke: #A80036; stroke-width: 1.0;"/><line style="stroke: #A80036; stroke-width: 1.5;" x1="553.5" x2="1071" y1="585.2031" y2="585.2031"/><text fill="#000000" font-family="sans-serif" font-size="13" lengthAdjust="spacingAndGlyphs" textLength="469" x="560.5" y="549.8716">MATCH (b:Entity {id: $id_b})-[e:PROXIMITY_EVENT]-&gt;(a:Entity {id: $id_a})</text><text fill="#000000" font-family="sans-serif" font-size="13" lengthAdjust="spacingAndGlyphs" textLength="282" x="560.5" y="565.0044">WHERE e.timestamp_ms = $timestamp_ms</text><text fill="#000000" font-family="sans-serif" font-size="13" lengthAdjust="spacingAndGlyphs" textLength="63" x="560.5" y="580.1372">RETURN e</text><path d="M905,598.2031 L905,683.2031 L1244,683.2031 L1244,608.2031 L1234,598.2031 L905,598.2031 " fill="#FFFDE7" filter="url(#f1te5utrdvdi9e)" style="stroke: #AAAAAA; stroke-width: 1.0;"/><path d="M1234,598.2031 L1234,608.2031 L1244,608.2031 L1234,598.2031 " fill="#FFFDE7" style="stroke: #AAAAAA; stroke-width: 1.0;"/><text fill="#000000" font-family="sans-serif" font-size="13" lengthAdjust="spacingAndGlyphs" textLength="258" x="911" y="615.27">Targeted lookup on a specific entity pair.</text><text fill="#000000" font-family="sans-serif" font-size="13" lengthAdjust="spacingAndGlyphs" textLength="187" x="911" y="630.4028">Not a scan for recent edges -</text><text fill="#000000" font-family="sans-serif" font-size="13" lengthAdjust="spacingAndGlyphs" textLength="201" x="911" y="645.5356">the candidate arrived via Kafka.</text><text fill="#000000" font-family="sans-serif" font-size="13" lengthAdjust="spacingAndGlyphs" textLength="284" x="911" y="660.6685">Neo4j is queried only for relationship context</text><text fill="#000000" font-family="sans-serif" font-size="13" lengthAdjust="spacingAndGlyphs" textLength="318" x="911" y="675.8013">needed to assemble the composite alert payload.</text><polygon fill="#A80036" points="564.5,710,554.5,714,564.5,718,560.5,714" style="stroke: #A80036; stroke-width: 1.0;"/><line style="stroke: #A80036; stroke-width: 1.5; stroke-dasharray: 2.0,2.0;" x1="558.5" x2="1076" y1="714" y2="714"/><text fill="#000000" font-family="sans-serif" font-size="13" lengthAdjust="spacingAndGlyphs" textLength="436" x="570.5" y="708.9341">proximity event details { lat, lon, timestamp_ms, distance_metres }</text><path d="M394,727 L394,782 L708,782 L708,737 L698,727 L394,727 " fill="#FFFDE7" filter="url(#f1te5utrdvdi9e)" style="stroke: #AAAAAA; stroke-width: 1.0;"/><path d="M698,727 L698,737 L708,737 L698,727 " fill="#FFFDE7" style="stroke: #AAAAAA; stroke-width: 1.0;"/><text fill="#000000" font-family="sans-serif" font-size="13" lengthAdjust="spacingAndGlyphs" textLength="186" x="400" y="744.0669">Both weak signals confirmed.</text><text fill="#000000" font-family="sans-serif" font-size="13" lengthAdjust="spacingAndGlyphs" textLength="261" x="400" y="759.1997">Together they form a composite pattern.</text><text fill="#000000" font-family="sans-serif" font-size="13" lengthAdjust="spacingAndGlyphs" textLength="293" x="400" y="774.3325">Emit ONE composite alert at elevated priority.</text><line style="stroke: #A80036; stroke-width: 1.5;" x1="553.5" x2="595.5" y1="827.6641" y2="827.6641"/><line style="stroke: #A80036; stroke-width: 1.5;" x1="595.5" x2="595.5" y1="827.6641" y2="840.6641"/><line style="stroke: #A80036; stroke-width: 1.5;" x1="554.5" x2="595.5" y1="840.6641" y2="840.6641"/><polygon fill="#A80036" points="564.5,836.6641,554.5,840.6641,564.5,844.6641,560.5,840.6641" style="stroke: #A80036; stroke-width: 1.0;"/><text fill="#000000" font-family="sans-serif" font-size="13" lengthAdjust="spacingAndGlyphs" textLength="105" x="560.5" y="807.4653">correlate signals</text><text fill="#000000" font-family="sans-serif" font-size="13" lengthAdjust="spacingAndGlyphs" textLength="252" x="560.5" y="822.5981">-&gt; COMPOSITE alert at elevated priority</text><!--MD5=[0f676fb2893e831e5ca6172c0c6bdba4]
@startuml signal-correlation
title US-06: Signal Correlation - Two Weak Signals Joined via proximity.candidates + Redis

skinparam sequenceArrowThickness 1.5
skinparam participantBorderColor #555555
skinparam participantBackgroundColor #F8F8F8
skinparam noteBorderColor #AAAAAA
skinparam noteBackgroundColor #FFFDE7

queue "Kafka\nproximity.candidates" as ProxKafka
participant "Alert\nEvaluator\n(leader)" as Evaluator
database "Redis\nalert-state:{id}" as AlertState
database "Neo4j\nentity graph" as Neo4j

note over Evaluator
  Runs on Kafka consume from proximity.candidates.
  Only the elected leader emits alerts.
end note

ProxKafka -> Evaluator : consume proximity.candidates event\n{ entity_a_id, entity_b_id, timestamp_ms, lat, lon, distance_metres }

note over Evaluator
  Proximity candidate: unscheduled pair detected
  by the Correlation Worker.
  Known associates already filtered upstream -
  they never appear here.
  This is weak signal 2.
end note

Evaluator -> AlertState : GET alert-state:{entity_b_id}
AlertState - -> Evaluator : $dark_since_ms (SIGNAL_LOSS alert active - Entity B is dark)

note over Evaluator
  Weak signal 1: active signal loss confirmed via alert-state key.
  dark_since_ms from the key value gives the start of the loss window.
  Not actionable on its own.
end note

Evaluator -> Evaluator : check: does proximity timestamp_ms\nfall within the signal loss window?

alt proximity within loss window
  Evaluator -> Neo4j : MATCH (b:Entity {id: $id_b})-[e:PROXIMITY_EVENT]->(a:Entity {id: $id_a})\nWHERE e.timestamp_ms = $timestamp_ms\nRETURN e

  note over Neo4j
    Targeted lookup on a specific entity pair.
    Not a scan for recent edges -
    the candidate arrived via Kafka.
    Neo4j is queried only for relationship context
    needed to assemble the composite alert payload.
  end note

  Neo4j - -> Evaluator : proximity event details { lat, lon, timestamp_ms, distance_metres }

  note over Evaluator
    Both weak signals confirmed.
    Together they form a composite pattern.
    Emit ONE composite alert at elevated priority.
  end note

  Evaluator -> Evaluator : correlate signals\n-> COMPOSITE alert at elevated priority
end

@enduml

PlantUML version 1.2020.02(Sun Mar 01 10:22:07 UTC 2020)
(GPL source distribution)
Java Runtime: OpenJDK Runtime Environment
JVM: OpenJDK 64-Bit Server VM
Java Version: 17.0.19+10
Operating System: Linux
Default Encoding: UTF-8
Language: en
Country: null
--></g></svg>