<?xml version="1.0" encoding="UTF-8" standalone="no"?><svg xmlns="http://www.w3.org/2000/svg" xmlns:xlink="http://www.w3.org/1999/xlink" contentScriptType="application/ecmascript" contentStyleType="text/css" height="1069px" preserveAspectRatio="none" style="width:1059px;height:1069px;" version="1.1" viewBox="0 0 1059 1069" width="1059px" zoomAndPan="magnify"><defs><filter height="300%" id="f1g4oogwsjw8gx" width="300%" x="-1" y="-1"><feGaussianBlur result="blurOut" stdDeviation="2.0"/><feColorMatrix in="blurOut" result="blurOut2" type="matrix" values="0 0 0 0 0 0 0 0 0 0 0 0 0 0 0 0 0 0 .4 0"/><feOffset dx="4.0" dy="4.0" in="blurOut2" result="blurOut3"/><feBlend in="SourceGraphic" in2="blurOut3" mode="normal"/></filter></defs><g><text fill="#000000" font-family="sans-serif" font-size="18" lengthAdjust="spacingAndGlyphs" textLength="497" x="282.25" y="26.708">US-03: Detection - Signal Loss via Scheduled Redis Scan</text><rect fill="#FFFFFF" filter="url(#f1g4oogwsjw8gx)" height="712.2656" style="stroke: #000000; stroke-width: 2.0;" width="1035.5" x="13" y="149.8438"/><rect fill="#FFFFFF" filter="url(#f1g4oogwsjw8gx)" height="449.8047" style="stroke: #000000; stroke-width: 2.0;" width="1015.5" x="23" y="405.3047"/><rect fill="#FFFFFF" filter="url(#f1g4oogwsjw8gx)" height="349.7969" style="stroke: #000000; stroke-width: 2.0;" width="995.5" x="33" y="498.3125"/><rect fill="#FFFFFF" height="56.9375" style="stroke: none; stroke-width: 1.0;" width="995.5" x="33" y="791.1719"/><line style="stroke: #A80036; stroke-width: 1.0; stroke-dasharray: 5.0,5.0;" x1="254" x2="254" y1="132.8438" y2="963.6406"/><line style="stroke: #A80036; stroke-width: 1.0; stroke-dasharray: 5.0,5.0;" x1="625.5" x2="625.5" y1="132.8438" y2="963.6406"/><line style="stroke: #A80036; stroke-width: 1.0; stroke-dasharray: 5.0,5.0;" x1="776.5" x2="776.5" y1="132.8438" y2="963.6406"/><line style="stroke: #A80036; stroke-width: 1.0; stroke-dasharray: 5.0,5.0;" x1="894.5" x2="894.5" y1="132.8438" y2="963.6406"/><line style="stroke: #A80036; stroke-width: 1.0; stroke-dasharray: 5.0,5.0;" x1="989.5" x2="989.5" y1="132.8438" y2="963.6406"/><rect fill="#F8F8F8" filter="url(#f1g4oogwsjw8gx)" height="62.8906" style="stroke: #555555; stroke-width: 1.5;" width="77" x="214" y="64.9531"/><text fill="#000000" font-family="sans-serif" font-size="14" lengthAdjust="spacingAndGlyphs" textLength="31" x="237" y="84.9482">Alert</text><text fill="#000000" font-family="sans-serif" font-size="14" lengthAdjust="spacingAndGlyphs" textLength="63" x="221" y="101.2451">Evaluator</text><text fill="#000000" font-family="sans-serif" font-size="14" lengthAdjust="spacingAndGlyphs" textLength="53" x="226" y="117.542">(leader)</text><rect fill="#F8F8F8" filter="url(#f1g4oogwsjw8gx)" height="62.8906" style="stroke: #555555; stroke-width: 1.5;" width="77" x="214" y="962.6406"/><text fill="#000000" font-family="sans-serif" font-size="14" lengthAdjust="spacingAndGlyphs" textLength="31" x="237" y="982.6357">Alert</text><text fill="#000000" font-family="sans-serif" font-size="14" lengthAdjust="spacingAndGlyphs" textLength="63" x="221" y="998.9326">Evaluator</text><text fill="#000000" font-family="sans-serif" font-size="14" lengthAdjust="spacingAndGlyphs" textLength="53" x="226" y="1015.2295">(leader)</text><text fill="#000000" font-family="sans-serif" font-size="14" lengthAdjust="spacingAndGlyphs" textLength="39" x="603" y="96.9482">Redis</text><text fill="#000000" font-family="sans-serif" font-size="14" lengthAdjust="spacingAndGlyphs" textLength="166" x="539.5" y="113.2451">{live-provider}:authority</text><text fill="#000000" font-family="sans-serif" font-size="14" lengthAdjust="spacingAndGlyphs" textLength="170" x="537.5" y="129.542">{live-provider}:coverage</text><path d="M607.5,47.9531 C607.5,37.9531 625.5,37.9531 625.5,37.9531 C625.5,37.9531 643.5,37.9531 643.5,47.9531 L643.5,73.9531 C643.5,83.9531 625.5,83.9531 625.5,83.9531 C625.5,83.9531 607.5,83.9531 607.5,73.9531 L607.5,47.9531 " fill="#FEFECE" filter="url(#f1g4oogwsjw8gx)" style="stroke: #000000; stroke-width: 1.5;"/><path d="M607.5,47.9531 C607.5,57.9531 625.5,57.9531 625.5,57.9531 C625.5,57.9531 643.5,57.9531 643.5,47.9531 " fill="none" style="stroke: #000000; stroke-width: 1.5;"/><text fill="#000000" font-family="sans-serif" font-size="14" lengthAdjust="spacingAndGlyphs" textLength="39" x="603" y="975.6357">Redis</text><text fill="#000000" font-family="sans-serif" font-size="14" lengthAdjust="spacingAndGlyphs" textLength="166" x="539.5" y="991.9326">{live-provider}:authority</text><text fill="#000000" font-family="sans-serif" font-size="14" lengthAdjust="spacingAndGlyphs" textLength="170" x="537.5" y="1008.2295">{live-provider}:coverage</text><path d="M607.5,1021.5313 C607.5,1011.5313 625.5,1011.5313 625.5,1011.5313 C625.5,1011.5313 643.5,1011.5313 643.5,1021.5313 L643.5,1047.5313 C643.5,1057.5313 625.5,1057.5313 625.5,1057.5313 C625.5,1057.5313 607.5,1057.5313 607.5,1047.5313 L607.5,1021.5313 " fill="#FEFECE" filter="url(#f1g4oogwsjw8gx)" style="stroke: #000000; stroke-width: 1.5;"/><path d="M607.5,1021.5313 C607.5,1031.5313 625.5,1031.5313 625.5,1031.5313 C625.5,1031.5313 643.5,1031.5313 643.5,1021.5313 " fill="none" style="stroke: #000000; stroke-width: 1.5;"/><text fill="#000000" font-family="sans-serif" font-size="14" lengthAdjust="spacingAndGlyphs" textLength="39" x="754" y="113.2451">Redis</text><text fill="#000000" font-family="sans-serif" font-size="14" lengthAdjust="spacingAndGlyphs" textLength="100" x="723.5" y="129.542">entity:live:{id}</text><path d="M758.5,64.25 C758.5,54.25 776.5,54.25 776.5,54.25 C776.5,54.25 794.5,54.25 794.5,64.25 L794.5,90.25 C794.5,100.25 776.5,100.25 776.5,100.25 C776.5,100.25 758.5,100.25 758.5,90.25 L758.5,64.25 " fill="#FEFECE" filter="url(#f1g4oogwsjw8gx)" style="stroke: #000000; stroke-width: 1.5;"/><path d="M758.5,64.25 C758.5,74.25 776.5,74.25 776.5,74.25 C776.5,74.25 794.5,74.25 794.5,64.25 " fill="none" style="stroke: #000000; stroke-width: 1.5;"/><text fill="#000000" font-family="sans-serif" font-size="14" lengthAdjust="spacingAndGlyphs" textLength="39" x="754" y="975.6357">Redis</text><text fill="#000000" font-family="sans-serif" font-size="14" lengthAdjust="spacingAndGlyphs" textLength="100" x="723.5" y="991.9326">entity:live:{id}</text><path d="M758.5,1005.2344 C758.5,995.2344 776.5,995.2344 776.5,995.2344 C776.5,995.2344 794.5,995.2344 794.5,1005.2344 L794.5,1031.2344 C794.5,1041.2344 776.5,1041.2344 776.5,1041.2344 C776.5,1041.2344 758.5,1041.2344 758.5,1031.2344 L758.5,1005.2344 " fill="#FEFECE" filter="url(#f1g4oogwsjw8gx)" style="stroke: #000000; stroke-width: 1.5;"/><path d="M758.5,1005.2344 C758.5,1015.2344 776.5,1015.2344 776.5,1015.2344 C776.5,1015.2344 794.5,1015.2344 794.5,1005.2344 " fill="none" style="stroke: #000000; stroke-width: 1.5;"/><text fill="#000000" font-family="sans-serif" font-size="14" lengthAdjust="spacingAndGlyphs" textLength="39" x="872.5" y="96.9482">Redis</text><text fill="#000000" font-family="sans-serif" font-size="14" lengthAdjust="spacingAndGlyphs" textLength="105" x="839.5" y="113.2451">alert-state:{id}</text><text fill="#000000" font-family="sans-serif" font-size="14" lengthAdjust="spacingAndGlyphs" textLength="44" x="870" y="129.542">(hash)</text><path d="M877,47.9531 C877,37.9531 895,37.9531 895,37.9531 C895,37.9531 913,37.9531 913,47.9531 L913,73.9531 C913,83.9531 895,83.9531 895,83.9531 C895,83.9531 877,83.9531 877,73.9531 L877,47.9531 " fill="#FEFECE" filter="url(#f1g4oogwsjw8gx)" style="stroke: #000000; stroke-width: 1.5;"/><path d="M877,47.9531 C877,57.9531 895,57.9531 895,57.9531 C895,57.9531 913,57.9531 913,47.9531 " fill="none" style="stroke: #000000; stroke-width: 1.5;"/><text fill="#000000" font-family="sans-serif" font-size="14" lengthAdjust="spacingAndGlyphs" textLength="39" x="872.5" y="975.6357">Redis</text><text fill="#000000" font-family="sans-serif" font-size="14" lengthAdjust="spacingAndGlyphs" textLength="105" x="839.5" y="991.9326">alert-state:{id}</text><text fill="#000000" font-family="sans-serif" font-size="14" lengthAdjust="spacingAndGlyphs" textLength="44" x="870" y="1008.2295">(hash)</text><path d="M877,1021.5313 C877,1011.5313 895,1011.5313 895,1011.5313 C895,1011.5313 913,1011.5313 913,1021.5313 L913,1047.5313 C913,1057.5313 895,1057.5313 895,1057.5313 C895,1057.5313 877,1057.5313 877,1047.5313 L877,1021.5313 " fill="#FEFECE" filter="url(#f1g4oogwsjw8gx)" style="stroke: #000000; stroke-width: 1.5;"/><path d="M877,1021.5313 C877,1031.5313 895,1031.5313 895,1031.5313 C895,1031.5313 913,1031.5313 913,1021.5313 " fill="none" style="stroke: #000000; stroke-width: 1.5;"/><path d="M965.5,90.25 L1013.5,90.25 C1018.5,90.25 1018.5,111.5469 1018.5,111.5469 C1018.5,111.5469 1018.5,132.8438 1013.5,132.8438 L965.5,132.8438 C960.5,132.8438 960.5,111.5469 960.5,111.5469 C960.5,111.5469 960.5,90.25 965.5,90.25 " fill="#FEFECE" filter="url(#f1g4oogwsjw8gx)" style="stroke: #A80036; stroke-width: 2.0;"/><path d="M1013.5,90.25 C1008.5,90.25 1008.5,111.5469 1008.5,111.5469 C1008.5,132.8438 1013.5,132.8438 1013.5,132.8438 " fill="none" style="stroke: #A80036; stroke-width: 2.0;"/><text fill="#000000" font-family="sans-serif" font-size="14" lengthAdjust="spacingAndGlyphs" textLength="37" x="966" y="108.2451">Kafka</text><text fill="#000000" font-family="sans-serif" font-size="14" lengthAdjust="spacingAndGlyphs" textLength="38" x="965.5" y="124.542">alerts</text><path d="M965.5,962.6406 L1013.5,962.6406 C1018.5,962.6406 1018.5,983.9375 1018.5,983.9375 C1018.5,983.9375 1018.5,1005.2344 1013.5,1005.2344 L965.5,1005.2344 C960.5,1005.2344 960.5,983.9375 960.5,983.9375 C960.5,983.9375 960.5,962.6406 965.5,962.6406 " fill="#FEFECE" filter="url(#f1g4oogwsjw8gx)" style="stroke: #A80036; stroke-width: 2.0;"/><path d="M1013.5,962.6406 C1008.5,962.6406 1008.5,983.9375 1008.5,983.9375 C1008.5,1005.2344 1013.5,1005.2344 1013.5,1005.2344 " fill="none" style="stroke: #A80036; stroke-width: 2.0;"/><text fill="#000000" font-family="sans-serif" font-size="14" lengthAdjust="spacingAndGlyphs" textLength="37" x="966" y="980.6357">Kafka</text><text fill="#000000" font-family="sans-serif" font-size="14" lengthAdjust="spacingAndGlyphs" textLength="38" x="965.5" y="996.9326">alerts</text><path d="M13,149.8438 L90,149.8438 L90,156.8438 L80,166.8438 L13,166.8438 L13,149.8438 " fill="#EEEEEE" style="stroke: #000000; stroke-width: 1.0;"/><rect fill="none" height="712.2656" style="stroke: #000000; stroke-width: 2.0;" width="1035.5" x="13" y="149.8438"/><text fill="#000000" font-family="sans-serif" font-size="13" font-weight="bold" lengthAdjust="spacingAndGlyphs" textLength="32" x="28" y="162.9106">loop</text><text fill="#000000" font-family="sans-serif" font-size="11" font-weight="bold" lengthAdjust="spacingAndGlyphs" textLength="110" x="105" y="162.0542">[scheduled scan]</text><polygon fill="#A80036" points="613.5,199.2422,623.5,203.2422,613.5,207.2422,617.5,203.2422" style="stroke: #A80036; stroke-width: 1.0;"/><line style="stroke: #A80036; stroke-width: 1.5;" x1="254.5" x2="619.5" y1="203.2422" y2="203.2422"/><text fill="#000000" font-family="sans-serif" font-size="13" lengthAdjust="spacingAndGlyphs" textLength="107" x="261.5" y="183.0435">one MULTI/EXEC:</text><text fill="#000000" font-family="sans-serif" font-size="13" lengthAdjust="spacingAndGlyphs" textLength="274" x="261.5" y="198.1763">HGETALL authority, ZRANGE coverage 0 -1</text><polygon fill="#A80036" points="265.5,228.375,255.5,232.375,265.5,236.375,261.5,232.375" style="stroke: #A80036; stroke-width: 1.0;"/><line style="stroke: #A80036; stroke-width: 1.5; stroke-dasharray: 2.0,2.0;" x1="259.5" x2="624.5" y1="232.375" y2="232.375"/><text fill="#000000" font-family="sans-serif" font-size="13" lengthAdjust="spacingAndGlyphs" textLength="204" x="271.5" y="227.3091">coverage snapshot for this scan</text><path d="M50,245.375 L50,300.375 L454,300.375 L454,255.375 L444,245.375 L50,245.375 " fill="#FFFDE7" filter="url(#f1g4oogwsjw8gx)" style="stroke: #AAAAAA; stroke-width: 1.0;"/><path d="M444,245.375 L444,255.375 L454,255.375 L444,245.375 " fill="#FFFDE7" style="stroke: #AAAAAA; stroke-width: 1.0;"/><text fill="#000000" font-family="sans-serif" font-size="13" lengthAdjust="spacingAndGlyphs" textLength="288" x="56" y="262.4419">Unreadable timeline: no signal loss this scan.</text><text fill="#000000" font-family="sans-serif" font-size="13" lengthAdjust="spacingAndGlyphs" textLength="383" x="56" y="277.5747">Uninitialized authority: observed silence is 0 for every entity.</text><text fill="#000000" font-family="sans-serif" font-size="13" lengthAdjust="spacingAndGlyphs" textLength="170" x="56" y="292.7075">Never a wall-clock fallback.</text><polygon fill="#A80036" points="764.5,357.1719,774.5,361.1719,764.5,365.1719,768.5,361.1719" style="stroke: #A80036; stroke-width: 1.0;"/><line style="stroke: #A80036; stroke-width: 1.5;" x1="254.5" x2="770.5" y1="361.1719" y2="361.1719"/><text fill="#000000" font-family="sans-serif" font-size="13" lengthAdjust="spacingAndGlyphs" textLength="113" x="261.5" y="325.8403">SCAN entity:live:*</text><text fill="#000000" font-family="sans-serif" font-size="13" lengthAdjust="spacingAndGlyphs" textLength="261" x="261.5" y="340.9731">read last_seen_ms, provider, on_ground,</text><text fill="#000000" font-family="sans-serif" font-size="13" lengthAdjust="spacingAndGlyphs" textLength="201" x="261.5" y="356.106">last-known position and callsign</text><polygon fill="#A80036" points="265.5,386.3047,255.5,390.3047,265.5,394.3047,261.5,390.3047" style="stroke: #A80036; stroke-width: 1.0;"/><line style="stroke: #A80036; stroke-width: 1.5; stroke-dasharray: 2.0,2.0;" x1="259.5" x2="775.5" y1="390.3047" y2="390.3047"/><text fill="#000000" font-family="sans-serif" font-size="13" lengthAdjust="spacingAndGlyphs" textLength="161" x="271.5" y="385.2388">current live-state records</text><path d="M23,405.3047 L87,405.3047 L87,412.3047 L77,422.3047 L23,422.3047 L23,405.3047 " fill="#EEEEEE" style="stroke: #000000; stroke-width: 1.0;"/><rect fill="none" height="449.8047" style="stroke: #000000; stroke-width: 2.0;" width="1015.5" x="23" y="405.3047"/><text fill="#000000" font-family="sans-serif" font-size="13" font-weight="bold" lengthAdjust="spacingAndGlyphs" textLength="19" x="38" y="418.3716">alt</text><text fill="#000000" font-family="sans-serif" font-size="11" font-weight="bold" lengthAdjust="spacingAndGlyphs" textLength="287" x="102" y="417.5151">[airborne and observed silence &gt;= threshold</text><text fill="#000000" font-family="sans-serif" font-size="11" font-weight="bold" lengthAdjust="spacingAndGlyphs" textLength="319" x="102" y="430.3198">(owning provider's coverage since last_seen_ms)]</text><polygon fill="#A80036" points="883,450.1797,893,454.1797,883,458.1797,887,454.1797" style="stroke: #A80036; stroke-width: 1.0;"/><line style="stroke: #A80036; stroke-width: 1.5;" x1="254.5" x2="889" y1="454.1797" y2="454.1797"/><text fill="#000000" font-family="sans-serif" font-size="13" lengthAdjust="spacingAndGlyphs" textLength="203" x="261.5" y="449.1138">HGETALL alert-state:{entity_id}</text><polygon fill="#A80036" points="265.5,479.3125,255.5,483.3125,265.5,487.3125,261.5,483.3125" style="stroke: #A80036; stroke-width: 1.0;"/><line style="stroke: #A80036; stroke-width: 1.5; stroke-dasharray: 2.0,2.0;" x1="259.5" x2="894" y1="483.3125" y2="483.3125"/><text fill="#000000" font-family="sans-serif" font-size="13" lengthAdjust="spacingAndGlyphs" textLength="139" x="271.5" y="478.2466">active loss state or nil</text><path d="M33,498.3125 L97,498.3125 L97,505.3125 L87,515.3125 L33,515.3125 L33,498.3125 " fill="#EEEEEE" style="stroke: #000000; stroke-width: 1.0;"/><rect fill="none" height="349.7969" style="stroke: #000000; stroke-width: 2.0;" width="995.5" x="33" y="498.3125"/><text fill="#000000" font-family="sans-serif" font-size="13" font-weight="bold" lengthAdjust="spacingAndGlyphs" textLength="19" x="48" y="511.3794">alt</text><text fill="#000000" font-family="sans-serif" font-size="11" font-weight="bold" lengthAdjust="spacingAndGlyphs" textLength="198" x="112" y="510.5229">[no active signal-loss episode]</text><line style="stroke: #A80036; stroke-width: 1.5;" x1="254.5" x2="296.5" y1="551.7109" y2="551.7109"/><line style="stroke: #A80036; stroke-width: 1.5;" x1="296.5" x2="296.5" y1="551.7109" y2="564.7109"/><line style="stroke: #A80036; stroke-width: 1.5;" x1="255.5" x2="296.5" y1="564.7109" y2="564.7109"/><polygon fill="#A80036" points="265.5,560.7109,255.5,564.7109,265.5,568.7109,261.5,564.7109" style="stroke: #A80036; stroke-width: 1.0;"/><text fill="#000000" font-family="sans-serif" font-size="13" lengthAdjust="spacingAndGlyphs" textLength="227" x="261.5" y="531.5122">dark_since_ms = live.last_seen_ms</text><text fill="#000000" font-family="sans-serif" font-size="13" lengthAdjust="spacingAndGlyphs" textLength="357" x="261.5" y="546.645">alert_id = entity_id + ':SIGNAL_LOSS:' + dark_since_ms</text><polygon fill="#A80036" points="883,635.2422,893,639.2422,883,643.2422,887,639.2422" style="stroke: #A80036; stroke-width: 1.0;"/><line style="stroke: #A80036; stroke-width: 1.5;" x1="254.5" x2="889" y1="639.2422" y2="639.2422"/><text fill="#000000" font-family="sans-serif" font-size="13" lengthAdjust="spacingAndGlyphs" textLength="179" x="261.5" y="588.7778">HSET alert-state:{entity_id}</text><text fill="#000000" font-family="sans-serif" font-size="13" lengthAdjust="spacingAndGlyphs" textLength="95" x="261.5" y="603.9106">dark_since_ms</text><text fill="#000000" font-family="sans-serif" font-size="13" lengthAdjust="spacingAndGlyphs" textLength="123" x="261.5" y="619.0435">signal_loss_alert_id</text><text fill="#000000" font-family="sans-serif" font-size="13" lengthAdjust="spacingAndGlyphs" textLength="134" x="261.5" y="634.1763">composite_issued=0</text><polygon fill="#A80036" points="977.5,679.5078,987.5,683.5078,977.5,687.5078,981.5,683.5078" style="stroke: #A80036; stroke-width: 1.0;"/><line style="stroke: #A80036; stroke-width: 1.5;" x1="254.5" x2="983.5" y1="683.5078" y2="683.5078"/><text fill="#000000" font-family="sans-serif" font-size="13" lengthAdjust="spacingAndGlyphs" textLength="226" x="261.5" y="663.3091">publish deterministic SIGNAL_LOSS</text><text fill="#000000" font-family="sans-serif" font-size="13" lengthAdjust="spacingAndGlyphs" textLength="234" x="261.5" y="678.4419">(last-known fields from the live hash)</text><path d="M43,696.5078 L43,781.5078 L462,781.5078 L462,706.5078 L452,696.5078 L43,696.5078 " fill="#FFFDE7" filter="url(#f1g4oogwsjw8gx)" style="stroke: #AAAAAA; stroke-width: 1.0;"/><path d="M452,696.5078 L452,706.5078 L462,706.5078 L452,696.5078 " fill="#FFFDE7" style="stroke: #AAAAAA; stroke-width: 1.0;"/><text fill="#000000" font-family="sans-serif" font-size="13" lengthAdjust="spacingAndGlyphs" textLength="332" x="49" y="713.5747">Gate first: a crash between the gate and the publish</text><text fill="#000000" font-family="sans-serif" font-size="13" lengthAdjust="spacingAndGlyphs" textLength="397" x="49" y="728.7075">loses this episode's alert rather than re-emitting it every scan.</text><text fill="#000000" font-family="sans-serif" font-size="13" lengthAdjust="spacingAndGlyphs" textLength="317" x="49" y="743.8403">Kafka publication can be replayed around failures.</text><text fill="#000000" font-family="sans-serif" font-size="13" lengthAdjust="spacingAndGlyphs" textLength="398" x="49" y="758.9731">Durable API persistence deduplicates by deterministic alert_id.</text><text fill="#000000" font-family="sans-serif" font-size="13" lengthAdjust="spacingAndGlyphs" textLength="337" x="49" y="774.106">alert-state prevents normal repeated scan emission.</text><line style="stroke: #000000; stroke-width: 1.0; stroke-dasharray: 2.0,2.0;" x1="33" x2="1028.5" y1="792.1719" y2="792.1719"/><text fill="#000000" font-family="sans-serif" font-size="11" font-weight="bold" lengthAdjust="spacingAndGlyphs" textLength="192" x="38" y="802.3823">[active loss already recorded]</text><line style="stroke: #A80036; stroke-width: 1.5;" x1="254.5" x2="296.5" y1="827.1094" y2="827.1094"/><line style="stroke: #A80036; stroke-width: 1.5;" x1="296.5" x2="296.5" y1="827.1094" y2="840.1094"/><line style="stroke: #A80036; stroke-width: 1.5;" x1="255.5" x2="296.5" y1="840.1094" y2="840.1094"/><polygon fill="#A80036" points="265.5,836.1094,255.5,840.1094,265.5,844.1094,261.5,840.1094" style="stroke: #A80036; stroke-width: 1.0;"/><text fill="#000000" font-family="sans-serif" font-size="13" lengthAdjust="spacingAndGlyphs" textLength="214" x="261.5" y="822.0435">no new logical signal-loss episode</text><path d="M620,874.1094 L620,944.1094 L928,944.1094 L928,884.1094 L918,874.1094 L620,874.1094 " fill="#FFFDE7" filter="url(#f1g4oogwsjw8gx)" style="stroke: #AAAAAA; stroke-width: 1.0;"/><path d="M918,874.1094 L918,884.1094 L928,884.1094 L918,874.1094 " fill="#FFFDE7" style="stroke: #AAAAAA; stroke-width: 1.0;"/><text fill="#000000" font-family="sans-serif" font-size="13" lengthAdjust="spacingAndGlyphs" textLength="174" x="626" y="891.1763">Redis TTL = 24h safety net.</text><text fill="#000000" font-family="sans-serif" font-size="13" lengthAdjust="spacingAndGlyphs" textLength="287" x="626" y="906.3091">Signal-loss detection uses last_seen_ms and</text><text fill="#000000" font-family="sans-serif" font-size="13" lengthAdjust="spacingAndGlyphs" textLength="272" x="626" y="921.4419">the owning provider's coverage (ADR-022);</text><text fill="#000000" font-family="sans-serif" font-size="13" lengthAdjust="spacingAndGlyphs" textLength="189" x="626" y="936.5747">TTL expiry is not the detector.</text><!--MD5=[fe89e4a6e482fef24d934b50fd1a82cd]
@startuml detection
title US-03: Detection - Signal Loss via Scheduled Redis Scan

skinparam sequenceArrowThickness 1.5
skinparam participantBorderColor #555555
skinparam participantBackgroundColor #F8F8F8
skinparam noteBorderColor #AAAAAA
skinparam noteBackgroundColor #FFFDE7

participant "Alert\nEvaluator\n(leader)" as Evaluator
database "Redis\n{live-provider}:authority\n{live-provider}:coverage" as Timeline
database "Redis\nentity:live:{id}" as LiveState
database "Redis\nalert-state:{id}\n(hash)" as AlertState
queue "Kafka\nalerts" as Kafka

loop scheduled scan
  Evaluator -> Timeline : one MULTI/EXEC:\nHGETALL authority, ZRANGE coverage 0 -1
  Timeline - -> Evaluator : coverage snapshot for this scan

  note over Evaluator
    Unreadable timeline: no signal loss this scan.
    Uninitialized authority: observed silence is 0 for every entity.
    Never a wall-clock fallback.
  end note

  Evaluator -> LiveState : SCAN entity:live:*\nread last_seen_ms, provider, on_ground,\nlast-known position and callsign
  LiveState - -> Evaluator : current live-state records

  alt airborne and observed silence >= threshold\n(owning provider's coverage since last_seen_ms)
    Evaluator -> AlertState : HGETALL alert-state:{entity_id}
    AlertState - -> Evaluator : active loss state or nil

    alt no active signal-loss episode
      Evaluator -> Evaluator : dark_since_ms = live.last_seen_ms\nalert_id = entity_id + ':SIGNAL_LOSS:' + dark_since_ms
      Evaluator -> AlertState : HSET alert-state:{entity_id}\ndark_since_ms\nsignal_loss_alert_id\ncomposite_issued=0
      Evaluator -> Kafka : publish deterministic SIGNAL_LOSS\n(last-known fields from the live hash)

      note over Evaluator
        Gate first: a crash between the gate and the publish
        loses this episode's alert rather than re-emitting it every scan.
        Kafka publication can be replayed around failures.
        Durable API persistence deduplicates by deterministic alert_id.
        alert-state prevents normal repeated scan emission.
      end note
    else active loss already recorded
      Evaluator -> Evaluator : no new logical signal-loss episode
    end
  end
end

note over LiveState
  Redis TTL = 24h safety net.
  Signal-loss detection uses last_seen_ms and
  the owning provider's coverage (ADR-022);
  TTL expiry is not the detector.
end note

@enduml

PlantUML version 1.2020.02(Sun Mar 01 10:22:07 UTC 2020)
(GPL source distribution)
Java Runtime: OpenJDK Runtime Environment
JVM: OpenJDK 64-Bit Server VM
Java Version: 17.0.20.1+1
Operating System: Linux
Default Encoding: UTF-8
Language: en
Country: null
--></g></svg>