<?xml version="1.0" encoding="UTF-8" standalone="no"?><svg xmlns="http://www.w3.org/2000/svg" xmlns:xlink="http://www.w3.org/1999/xlink" contentScriptType="application/ecmascript" contentStyleType="text/css" height="1328px" preserveAspectRatio="none" style="width:880px;height:1328px;background:#1E1E2E;" version="1.1" viewBox="0 0 880 1328" width="880px" zoomAndPan="magnify"><defs><filter height="300%" id="f1iyh9r22raeut" width="300%" x="-1" y="-1"><feGaussianBlur result="blurOut" stdDeviation="2.0"/><feColorMatrix in="blurOut" result="blurOut2" type="matrix" values="0 0 0 0 0 0 0 0 0 0 0 0 0 0 0 0 0 0 .4 0"/><feOffset dx="4.0" dy="4.0" in="blurOut2" result="blurOut3"/><feBlend in="SourceGraphic" in2="blurOut3" mode="normal"/></filter></defs><g><!--MD5=[536851d29b026cf8f5a82fd4c15e5943]
cluster External Feeds--><polygon fill="#1E3A2A" filter="url(#f1iyh9r22raeut)" points="73,58,83,48,408,48,408,147,398,157,73,157,73,58" style="stroke: #45475A; stroke-width: 1.5;"/><line style="stroke: #45475A; stroke-width: 1.5;" x1="398" x2="407" y1="58" y2="49"/><line style="stroke: #45475A; stroke-width: 1.5;" x1="73" x2="398" y1="58" y2="58"/><line style="stroke: #45475A; stroke-width: 1.5;" x1="398" x2="398" y1="58" y2="157"/><text fill="#CDD6F4" font-family="Helvetica" font-size="14" font-weight="bold" lengthAdjust="spacingAndGlyphs" textLength="117" x="178" y="73.9951">External Feeds</text><!--MD5=[fdb21df6283722b1b5bffb6302561a78]
cluster Dev Tooling--><polygon fill="#3A3A1A" filter="url(#f1iyh9r22raeut)" points="466,58,476,48,714,48,714,147,704,157,466,157,466,58" style="stroke: #45475A; stroke-width: 1.5;"/><line style="stroke: #45475A; stroke-width: 1.5;" x1="704" x2="713" y1="58" y2="49"/><line style="stroke: #45475A; stroke-width: 1.5;" x1="466" x2="704" y1="58" y2="58"/><line style="stroke: #45475A; stroke-width: 1.5;" x1="704" x2="704" y1="58" y2="157"/><text fill="#CDD6F4" font-family="Helvetica" font-size="14" font-weight="bold" lengthAdjust="spacingAndGlyphs" textLength="93" x="539.5" y="73.9951">Dev Tooling</text><!--MD5=[819b80aa6b43c368ea8af63696246069]
cluster Ingestion Layer--><polygon fill="#1A2A3A" filter="url(#f1iyh9r22raeut)" points="68,221,78,211,470,211,470,310,460,320,68,320,68,221" style="stroke: #45475A; stroke-width: 1.5;"/><line style="stroke: #45475A; stroke-width: 1.5;" x1="460" x2="469" y1="221" y2="212"/><line style="stroke: #45475A; stroke-width: 1.5;" x1="68" x2="460" y1="221" y2="221"/><line style="stroke: #45475A; stroke-width: 1.5;" x1="460" x2="460" y1="221" y2="320"/><text fill="#CDD6F4" font-family="Helvetica" font-size="14" font-weight="bold" lengthAdjust="spacingAndGlyphs" textLength="122" x="204" y="236.9951">Ingestion Layer</text><!--MD5=[7a822afb34d165c613d364377b384f67]
cluster Message Broker--><polygon fill="#2A1A3A" filter="url(#f1iyh9r22raeut)" points="146,384,156,374,484,374,484,473,474,483,146,483,146,384" style="stroke: #45475A; stroke-width: 1.5;"/><line style="stroke: #45475A; stroke-width: 1.5;" x1="474" x2="483" y1="384" y2="375"/><line style="stroke: #45475A; stroke-width: 1.5;" x1="146" x2="474" y1="384" y2="384"/><line style="stroke: #45475A; stroke-width: 1.5;" x1="474" x2="474" y1="384" y2="483"/><text fill="#CDD6F4" font-family="Helvetica" font-size="14" font-weight="bold" lengthAdjust="spacingAndGlyphs" textLength="128" x="247" y="399.9951">Message Broker</text><!--MD5=[f4b4a8449c18ff67f5a00d3a9554de8b]
cluster Position Consumer--><polygon fill="#1A2A3A" filter="url(#f1iyh9r22raeut)" points="334,547,344,537,559,537,559,636,549,646,334,646,334,547" style="stroke: #45475A; stroke-width: 1.5;"/><line style="stroke: #45475A; stroke-width: 1.5;" x1="549" x2="558" y1="547" y2="538"/><line style="stroke: #45475A; stroke-width: 1.5;" x1="334" x2="549" y1="547" y2="547"/><line style="stroke: #45475A; stroke-width: 1.5;" x1="549" x2="549" y1="547" y2="646"/><text fill="#CDD6F4" font-family="Helvetica" font-size="14" font-weight="bold" lengthAdjust="spacingAndGlyphs" textLength="149" x="368" y="562.9951">Position Consumer</text><!--MD5=[b134510ccf4619884b462a734affa681]
cluster Correlation Worker--><polygon fill="#1A2A3A" filter="url(#f1iyh9r22raeut)" points="83,547,93,537,310,537,310,636,300,646,83,646,83,547" style="stroke: #45475A; stroke-width: 1.5;"/><line style="stroke: #45475A; stroke-width: 1.5;" x1="300" x2="309" y1="547" y2="538"/><line style="stroke: #45475A; stroke-width: 1.5;" x1="83" x2="300" y1="547" y2="547"/><line style="stroke: #45475A; stroke-width: 1.5;" x1="300" x2="300" y1="547" y2="646"/><text fill="#CDD6F4" font-family="Helvetica" font-size="14" font-weight="bold" lengthAdjust="spacingAndGlyphs" textLength="151" x="117" y="562.9951">Correlation Worker</text><!--MD5=[82441cc5e38416140bfcc6f636f8d1d4]
cluster TimescaleDB--><polygon fill="#0C2A3A" filter="url(#f1iyh9r22raeut)" points="310,728,320,718,584,718,584,817,574,827,310,827,310,728" style="stroke: #45475A; stroke-width: 1.5;"/><line style="stroke: #45475A; stroke-width: 1.5;" x1="574" x2="583" y1="728" y2="719"/><line style="stroke: #45475A; stroke-width: 1.5;" x1="310" x2="574" y1="728" y2="728"/><line style="stroke: #45475A; stroke-width: 1.5;" x1="574" x2="574" y1="728" y2="827"/><text fill="#CDD6F4" font-family="Helvetica" font-size="14" font-weight="bold" lengthAdjust="spacingAndGlyphs" textLength="100" x="393" y="743.9951">TimescaleDB</text><!--MD5=[0e4b3bf081175d3ed434f975f6399d52]
cluster Neo4j--><polygon fill="#0A2A1A" filter="url(#f1iyh9r22raeut)" points="46,728,56,718,252,718,252,817,242,827,46,827,46,728" style="stroke: #45475A; stroke-width: 1.5;"/><line style="stroke: #45475A; stroke-width: 1.5;" x1="242" x2="251" y1="728" y2="719"/><line style="stroke: #45475A; stroke-width: 1.5;" x1="46" x2="242" y1="728" y2="728"/><line style="stroke: #45475A; stroke-width: 1.5;" x1="242" x2="242" y1="728" y2="827"/><text fill="#CDD6F4" font-family="Helvetica" font-size="14" font-weight="bold" lengthAdjust="spacingAndGlyphs" textLength="45" x="122.5" y="743.9951">Neo4j</text><!--MD5=[ef8573dec6defc5da38bc0a7f3ea67de]
cluster Redis--><polygon fill="#3A0A0A" filter="url(#f1iyh9r22raeut)" points="642,728,652,718,858,718,858,817,848,827,642,827,642,728" style="stroke: #45475A; stroke-width: 1.5;"/><line style="stroke: #45475A; stroke-width: 1.5;" x1="848" x2="857" y1="728" y2="719"/><line style="stroke: #45475A; stroke-width: 1.5;" x1="642" x2="848" y1="728" y2="728"/><line style="stroke: #45475A; stroke-width: 1.5;" x1="848" x2="848" y1="728" y2="827"/><text fill="#CDD6F4" font-family="Helvetica" font-size="14" font-weight="bold" lengthAdjust="spacingAndGlyphs" textLength="43" x="724.5" y="743.9951">Redis</text><!--MD5=[913e67c5aa190d9dc9481ce4ee76c45a]
cluster Alert Layer--><polygon fill="#2A1A3A" filter="url(#f1iyh9r22raeut)" points="313,891,323,881,581,881,581,980,571,990,313,990,313,891" style="stroke: #45475A; stroke-width: 1.5;"/><line style="stroke: #45475A; stroke-width: 1.5;" x1="571" x2="580" y1="891" y2="882"/><line style="stroke: #45475A; stroke-width: 1.5;" x1="313" x2="571" y1="891" y2="891"/><line style="stroke: #45475A; stroke-width: 1.5;" x1="571" x2="571" y1="891" y2="990"/><text fill="#CDD6F4" font-family="Helvetica" font-size="14" font-weight="bold" lengthAdjust="spacingAndGlyphs" textLength="87" x="399.5" y="906.9951">Alert Layer</text><!--MD5=[70111191a764443d788a8690134af264]
cluster API Layer--><polygon fill="#1A2A3A" filter="url(#f1iyh9r22raeut)" points="349,1054,359,1044,545,1044,545,1143,535,1153,349,1153,349,1054" style="stroke: #45475A; stroke-width: 1.5;"/><line style="stroke: #45475A; stroke-width: 1.5;" x1="535" x2="544" y1="1054" y2="1045"/><line style="stroke: #45475A; stroke-width: 1.5;" x1="349" x2="535" y1="1054" y2="1054"/><line style="stroke: #45475A; stroke-width: 1.5;" x1="535" x2="535" y1="1054" y2="1153"/><text fill="#CDD6F4" font-family="Helvetica" font-size="14" font-weight="bold" lengthAdjust="spacingAndGlyphs" textLength="74" x="406" y="1069.9951">API Layer</text><!--MD5=[0d1efccdffd50bef89096ea366f2dacf]
cluster Dashboard--><polygon fill="#1E3A2A" filter="url(#f1iyh9r22raeut)" points="343,1217,353,1207,551,1207,551,1306,541,1316,343,1316,343,1217" style="stroke: #45475A; stroke-width: 1.5;"/><line style="stroke: #45475A; stroke-width: 1.5;" x1="541" x2="550" y1="1217" y2="1208"/><line style="stroke: #45475A; stroke-width: 1.5;" x1="343" x2="541" y1="1217" y2="1217"/><line style="stroke: #45475A; stroke-width: 1.5;" x1="541" x2="541" y1="1217" y2="1316"/><text fill="#CDD6F4" font-family="Helvetica" font-size="14" font-weight="bold" lengthAdjust="spacingAndGlyphs" textLength="85" x="400.5" y="1232.9951">Dashboard</text><!--MD5=[5dfa2dcd6d9d6c854772a3196228f1d3]
entity ADSB--><rect fill="#2D5A3D" filter="url(#f1iyh9r22raeut)" height="52.5938" style="stroke: #585B70; stroke-width: 1.5;" width="143" x="248.5" y="88"/><rect fill="#2D5A3D" height="5" style="stroke: #585B70; stroke-width: 1.5;" width="10" x="243.5" y="93"/><rect fill="#2D5A3D" height="5" style="stroke: #585B70; stroke-width: 1.5;" width="10" x="243.5" y="130.5938"/><text fill="#CDD6F4" font-family="Helvetica" font-size="14" lengthAdjust="spacingAndGlyphs" textLength="123" x="258.5" y="110.9951">OpenSky Network</text><text fill="#CDD6F4" font-family="Helvetica" font-size="14" lengthAdjust="spacingAndGlyphs" textLength="54" x="258.5" y="127.292">(ADS-B)</text><!--MD5=[f5b7c8a384d817d6fdb1b8c015c8231d]
entity AIS--><rect fill="#2D5A3D" filter="url(#f1iyh9r22raeut)" height="52.5938" style="stroke: #585B70; stroke-width: 1.5;" width="69" x="89.5" y="88"/><rect fill="#2D5A3D" height="5" style="stroke: #585B70; stroke-width: 1.5;" width="10" x="84.5" y="93"/><rect fill="#2D5A3D" height="5" style="stroke: #585B70; stroke-width: 1.5;" width="10" x="84.5" y="130.5938"/><text fill="#CDD6F4" font-family="Helvetica" font-size="14" lengthAdjust="spacingAndGlyphs" textLength="49" x="99.5" y="110.9951">AISHub</text><text fill="#CDD6F4" font-family="Helvetica" font-size="14" lengthAdjust="spacingAndGlyphs" textLength="31" x="99.5" y="127.292">(AIS)</text><!--MD5=[814847cfb274e7fb8134b53fe6490c98]
entity LOADGEN--><rect fill="#5A5A1A" filter="url(#f1iyh9r22raeut)" height="52.5938" style="stroke: #585B70; stroke-width: 1.5;" width="216" x="482" y="88"/><rect fill="#5A5A1A" height="5" style="stroke: #585B70; stroke-width: 1.5;" width="10" x="477" y="93"/><rect fill="#5A5A1A" height="5" style="stroke: #585B70; stroke-width: 1.5;" width="10" x="477" y="130.5938"/><text fill="#CDD6F4" font-family="Helvetica" font-size="14" lengthAdjust="spacingAndGlyphs" textLength="107" x="492" y="110.9951">Load Generator</text><text fill="#CDD6F4" font-family="Helvetica" font-size="14" lengthAdjust="spacingAndGlyphs" textLength="196" x="492" y="127.292">(synthetic anomaly injection)</text><!--MD5=[68b9120dbf0a5ef7a1a94fca07786425]
entity POLLER--><rect fill="#1E3A5A" filter="url(#f1iyh9r22raeut)" height="52.5938" style="stroke: #585B70; stroke-width: 1.5;" width="126" x="84" y="251"/><rect fill="#1E3A5A" height="5" style="stroke: #585B70; stroke-width: 1.5;" width="10" x="79" y="256"/><rect fill="#1E3A5A" height="5" style="stroke: #585B70; stroke-width: 1.5;" width="10" x="79" y="293.5938"/><text fill="#CDD6F4" font-family="Helvetica" font-size="14" lengthAdjust="spacingAndGlyphs" textLength="106" x="94" y="273.9951">Ingestion Poller</text><text fill="#CDD6F4" font-family="Helvetica" font-size="14" lengthAdjust="spacingAndGlyphs" textLength="81" x="94" y="290.292">(per region)</text><!--MD5=[8b40bd982834351230d18f534e861694]
entity DLQ--><rect fill="#5A1A1A" filter="url(#f1iyh9r22raeut)" height="52.5938" style="stroke: #585B70; stroke-width: 1.5;" width="154" x="300" y="251"/><rect fill="#5A1A1A" height="5" style="stroke: #585B70; stroke-width: 1.5;" width="10" x="295" y="256"/><rect fill="#5A1A1A" height="5" style="stroke: #585B70; stroke-width: 1.5;" width="10" x="295" y="293.5938"/><text fill="#CDD6F4" font-family="Helvetica" font-size="14" lengthAdjust="spacingAndGlyphs" textLength="133" x="310" y="273.9951">Dead-Letter Queue</text><text fill="#CDD6F4" font-family="Helvetica" font-size="14" lengthAdjust="spacingAndGlyphs" textLength="134" x="310" y="290.292">(malformed events)</text><!--MD5=[511a803419d924c3f7c42ea13d152cbb]
entity KAFKA--><rect fill="#313244" filter="url(#f1iyh9r22raeut)" height="52.5938" style="stroke: #585B70; stroke-width: 1.5;" width="306" x="162" y="414"/><rect fill="#313244" height="5" style="stroke: #585B70; stroke-width: 1.5;" width="10" x="157" y="419"/><rect fill="#313244" height="5" style="stroke: #585B70; stroke-width: 1.5;" width="10" x="157" y="456.5938"/><text fill="#CDD6F4" font-family="Helvetica" font-size="14" lengthAdjust="spacingAndGlyphs" textLength="37" x="172" y="436.9951">Kafka</text><text fill="#CDD6F4" font-family="Helvetica" font-size="14" lengthAdjust="spacingAndGlyphs" textLength="286" x="172" y="453.292">adsb.raw  |  ais.raw  |  position.normalized</text><!--MD5=[3f3a045b947c72a12c76af0432f5a18e]
entity POS_CONSUMER--><rect fill="#1E3A5A" filter="url(#f1iyh9r22raeut)" height="52.5938" style="stroke: #585B70; stroke-width: 1.5;" width="188" x="353" y="577"/><rect fill="#1E3A5A" height="5" style="stroke: #585B70; stroke-width: 1.5;" width="10" x="348" y="582"/><rect fill="#1E3A5A" height="5" style="stroke: #585B70; stroke-width: 1.5;" width="10" x="348" y="619.5938"/><text fill="#CDD6F4" font-family="Helvetica" font-size="14" lengthAdjust="spacingAndGlyphs" textLength="120" x="363" y="599.9951">normalise + write</text><text fill="#CDD6F4" font-family="Helvetica" font-size="14" lengthAdjust="spacingAndGlyphs" textLength="168" x="363" y="616.292">to TimescaleDB + Redis</text><!--MD5=[468eb0686cf3d1fd8635f132bce02e40]
entity CORR_WORKER--><rect fill="#1E3A5A" filter="url(#f1iyh9r22raeut)" height="52.5938" style="stroke: #585B70; stroke-width: 1.5;" width="153" x="104.5" y="577"/><rect fill="#1E3A5A" height="5" style="stroke: #585B70; stroke-width: 1.5;" width="10" x="99.5" y="582"/><rect fill="#1E3A5A" height="5" style="stroke: #585B70; stroke-width: 1.5;" width="10" x="99.5" y="619.5938"/><text fill="#CDD6F4" font-family="Helvetica" font-size="14" lengthAdjust="spacingAndGlyphs" textLength="131" x="114.5" y="599.9951">proximity detection</text><text fill="#CDD6F4" font-family="Helvetica" font-size="14" lengthAdjust="spacingAndGlyphs" textLength="133" x="114.5" y="616.292">entity graph builder</text><!--MD5=[3859b04db380c466f547d5189490df3d]
entity TSDB--><rect fill="#0C4A6E" filter="url(#f1iyh9r22raeut)" height="52.5938" style="stroke: #585B70; stroke-width: 1.5;" width="242" x="326" y="758"/><rect fill="#0C4A6E" height="5" style="stroke: #585B70; stroke-width: 1.5;" width="10" x="321" y="763"/><rect fill="#0C4A6E" height="5" style="stroke: #585B70; stroke-width: 1.5;" width="10" x="321" y="800.5938"/><text fill="#CDD6F4" font-family="Helvetica" font-size="14" lengthAdjust="spacingAndGlyphs" textLength="105" x="336" y="780.9951">position history</text><text fill="#CDD6F4" font-family="Helvetica" font-size="14" lengthAdjust="spacingAndGlyphs" textLength="222" x="336" y="797.292">geo-cell + time-bucket sharding</text><!--MD5=[61d552b89fd22f9019939d17c3b16c50]
entity NEO4J--><rect fill="#14532D" filter="url(#f1iyh9r22raeut)" height="52.5938" style="stroke: #585B70; stroke-width: 1.5;" width="173" x="62.5" y="758"/><rect fill="#14532D" height="5" style="stroke: #585B70; stroke-width: 1.5;" width="10" x="57.5" y="763"/><rect fill="#14532D" height="5" style="stroke: #585B70; stroke-width: 1.5;" width="10" x="57.5" y="800.5938"/><text fill="#CDD6F4" font-family="Helvetica" font-size="14" lengthAdjust="spacingAndGlyphs" textLength="82" x="72.5" y="780.9951">entity graph</text><text fill="#CDD6F4" font-family="Helvetica" font-size="14" lengthAdjust="spacingAndGlyphs" textLength="153" x="72.5" y="797.292">proximity relationships</text><!--MD5=[bc13e7799335a32c3ddf14a3eabc729f]
entity REDIS--><rect fill="#7F1D1D" filter="url(#f1iyh9r22raeut)" height="52.5938" style="stroke: #585B70; stroke-width: 1.5;" width="184" x="658" y="758"/><rect fill="#7F1D1D" height="5" style="stroke: #585B70; stroke-width: 1.5;" width="10" x="653" y="763"/><rect fill="#7F1D1D" height="5" style="stroke: #585B70; stroke-width: 1.5;" width="10" x="653" y="800.5938"/><text fill="#CDD6F4" font-family="Helvetica" font-size="14" lengthAdjust="spacingAndGlyphs" textLength="103" x="668" y="780.9951">live entity state</text><text fill="#CDD6F4" font-family="Helvetica" font-size="14" lengthAdjust="spacingAndGlyphs" textLength="164" x="668" y="797.292">cache — entity:live:{id}</text><!--MD5=[af4e189415dcb7803cfd11feb18d991f]
entity ALERT--><rect fill="#4C1D95" filter="url(#f1iyh9r22raeut)" height="52.5938" style="stroke: #585B70; stroke-width: 1.5;" width="235" x="329.5" y="921"/><rect fill="#4C1D95" height="5" style="stroke: #585B70; stroke-width: 1.5;" width="10" x="324.5" y="926"/><rect fill="#4C1D95" height="5" style="stroke: #585B70; stroke-width: 1.5;" width="10" x="324.5" y="963.5938"/><text fill="#CDD6F4" font-family="Helvetica" font-size="14" lengthAdjust="spacingAndGlyphs" textLength="98" x="339.5" y="943.9951">Alert Evaluator</text><text fill="#CDD6F4" font-family="Helvetica" font-size="14" lengthAdjust="spacingAndGlyphs" textLength="215" x="339.5" y="960.292">(leader-elected — single writer)</text><!--MD5=[645d8587175d8f7ad110cd370775931d]
entity API--><rect fill="#1E3A5A" filter="url(#f1iyh9r22raeut)" height="52.5938" style="stroke: #585B70; stroke-width: 1.5;" width="164" x="365" y="1084"/><rect fill="#1E3A5A" height="5" style="stroke: #585B70; stroke-width: 1.5;" width="10" x="360" y="1089"/><rect fill="#1E3A5A" height="5" style="stroke: #585B70; stroke-width: 1.5;" width="10" x="360" y="1126.5938"/><text fill="#CDD6F4" font-family="Helvetica" font-size="14" lengthAdjust="spacingAndGlyphs" textLength="101" x="375" y="1106.9951">Dashboard API</text><text fill="#CDD6F4" font-family="Helvetica" font-size="14" lengthAdjust="spacingAndGlyphs" textLength="144" x="375" y="1123.292">REST  +  WebSocket</text><!--MD5=[1d6f150eca6209a1647a729025e19db0]
entity DASH--><rect fill="#2D5A3D" filter="url(#f1iyh9r22raeut)" height="52.5938" style="stroke: #585B70; stroke-width: 1.5;" width="177" x="358.5" y="1247"/><rect fill="#2D5A3D" height="5" style="stroke: #585B70; stroke-width: 1.5;" width="10" x="353.5" y="1252"/><rect fill="#2D5A3D" height="5" style="stroke: #585B70; stroke-width: 1.5;" width="10" x="353.5" y="1289.5938"/><text fill="#CDD6F4" font-family="Helvetica" font-size="14" lengthAdjust="spacingAndGlyphs" textLength="117" x="368.5" y="1269.9951">Angular + Leaflet</text><text fill="#CDD6F4" font-family="Helvetica" font-size="14" lengthAdjust="spacingAndGlyphs" textLength="157" x="368.5" y="1286.292">Live Map  +  Alert Feed</text><!--MD5=[242cfcd81458995eda1c4ff11c042448]
link ADSB to POLLER--><path d="M248.15,115 C215.59,115 184.25,115 184.25,115 C184.25,115 184.25,245.67 184.25,245.67 " fill="none" id="ADSB-&gt;POLLER" style="stroke: #4ADE80; stroke-width: 2.0;"/><polygon fill="#4ADE80" points="184.25,250.67,188.25,241.67,184.25,245.67,180.25,241.67,184.25,250.67" style="stroke: #4ADE80; stroke-width: 2.0;"/><!--MD5=[358254e734abe4eda4baf133f1f9b5f9]
link AIS to POLLER--><path d="M124,141.05 C124,141.05 124,245.96 124,245.96 " fill="none" id="AIS-&gt;POLLER" style="stroke: #4ADE80; stroke-width: 2.0;"/><polygon fill="#4ADE80" points="124,250.96,128,241.96,124,245.96,120,241.96,124,250.96" style="stroke: #4ADE80; stroke-width: 2.0;"/><!--MD5=[cd83d6fdf29fa2b3d545bf162ea32a85]
link LOADGEN to KAFKA--><path d="M481.73,115 C469.32,115 461,115 461,115 C461,115 461,408.86 461,408.86 " fill="none" id="LOADGEN-&gt;KAFKA" style="stroke: #FACC15; stroke-width: 2.0;"/><polygon fill="#FACC15" points="461,413.86,465,404.86,461,408.86,457,404.86,461,413.86" style="stroke: #FACC15; stroke-width: 2.0;"/><!--MD5=[a7a51311470b5e12d22ed99a8f90c763]
link POLLER to KAFKA--><path d="M186,304.05 C186,304.05 186,408.96 186,408.96 " fill="none" id="POLLER-&gt;KAFKA" style="stroke: #FACC15; stroke-width: 2.0;"/><polygon fill="#FACC15" points="186,413.96,190,404.96,186,408.96,182,404.96,186,413.96" style="stroke: #FACC15; stroke-width: 2.0;"/><!--MD5=[399b5c55a15150fe084e2f2516e20ecf]
link POLLER to DLQ--><path d="M210.15,278 C210.15,278 294.64,278 294.64,278 " fill="none" id="POLLER-&gt;DLQ" style="stroke: #F87171; stroke-width: 2.0;"/><polygon fill="#F87171" points="299.64,278,290.64,274,294.64,278,290.64,282,299.64,278" style="stroke: #F87171; stroke-width: 2.0;"/><!--MD5=[9cd73b6079a9c26c947e53b8e9035b27]
link KAFKA to POS_CONSUMER--><path d="M410.5,467.05 C410.5,467.05 410.5,571.96 410.5,571.96 " fill="none" id="KAFKA-&gt;POS_CONSUMER" style="stroke: #A78BFA; stroke-width: 2.0;"/><polygon fill="#A78BFA" points="410.5,576.96,414.5,567.96,410.5,571.96,406.5,567.96,410.5,576.96" style="stroke: #A78BFA; stroke-width: 2.0;"/><!--MD5=[c178b8e3d12051d8ebefcd89c624c8d6]
link KAFKA to CORR_WORKER--><path d="M209.75,467.05 C209.75,467.05 209.75,571.96 209.75,571.96 " fill="none" id="KAFKA-&gt;CORR_WORKER" style="stroke: #A78BFA; stroke-width: 2.0;"/><polygon fill="#A78BFA" points="209.75,576.96,213.75,567.96,209.75,571.96,205.75,567.96,209.75,576.96" style="stroke: #A78BFA; stroke-width: 2.0;"/><!--MD5=[3b705f77d89e2320e0cdcab859092af1]
link POS_CONSUMER to TSDB--><path d="M447,630.21 C447,630.21 447,752.98 447,752.98 " fill="none" id="POS_CONSUMER-&gt;TSDB" style="stroke: #38BDF8; stroke-width: 2.0;"/><polygon fill="#38BDF8" points="447,757.98,451,748.98,447,752.98,443,748.98,447,757.98" style="stroke: #38BDF8; stroke-width: 2.0;"/><!--MD5=[6066c50f260cd6b20f244022119e02fa]
link POS_CONSUMER to REDIS--><path d="M541.29,604 C605.16,604 678,604 678,604 C678,604 678,752.87 678,752.87 " fill="none" id="POS_CONSUMER-&gt;REDIS" style="stroke: #F87171; stroke-width: 2.0;"/><polygon fill="#F87171" points="678,757.87,682,748.87,678,752.87,674,748.87,678,757.87" style="stroke: #F87171; stroke-width: 2.0;"/><!--MD5=[f34d958aa2caaae79a8642e9616f30ff]
link CORR_WORKER to NEO4J--><path d="M170,630.21 C170,630.21 170,752.98 170,752.98 " fill="none" id="CORR_WORKER-&gt;NEO4J" style="stroke: #4ADE80; stroke-width: 2.0;"/><polygon fill="#4ADE80" points="170,757.98,174,748.98,170,752.98,166,748.98,170,757.98" style="stroke: #4ADE80; stroke-width: 2.0;"/><!--MD5=[cc65144bc4690fce26370dcf6b3475c0]
link TSDB to ALERT--><path d="M447,811.05 C447,811.05 447,915.96 447,915.96 " fill="none" id="TSDB-&gt;ALERT" style="stroke: #FB923C; stroke-width: 2.0;"/><polygon fill="#FB923C" points="447,920.96,451,911.96,447,915.96,443,911.96,447,920.96" style="stroke: #FB923C; stroke-width: 2.0;"/><!--MD5=[1ff29f6d6fb4dd03cd887fdb0977cb52]
link NEO4J to ALERT--><path d="M149,811.13 C149,857.46 149,948 149,948 C149,948 324.22,948 324.22,948 " fill="none" id="NEO4J-&gt;ALERT" style="stroke: #FB923C; stroke-width: 2.0;"/><polygon fill="#FB923C" points="329.22,948,320.22,944,324.22,948,320.22,952,329.22,948" style="stroke: #FB923C; stroke-width: 2.0;"/><!--MD5=[5e1157f952775895e0741fcb5061c4cb]
link REDIS to ALERT--><path d="M750,811.13 C750,857.46 750,948 750,948 C750,948 569.58,948 569.58,948 " fill="none" id="REDIS-&gt;ALERT" style="stroke: #FB923C; stroke-width: 2.0;"/><polygon fill="#FB923C" points="564.58,948,573.58,952,569.58,948,573.58,944,564.58,948" style="stroke: #FB923C; stroke-width: 2.0;"/><!--MD5=[2ec485dc969a936d0cd63caa51693393]
link ALERT to API--><path d="M447,974.05 C447,974.05 447,1078.96 447,1078.96 " fill="none" id="ALERT-&gt;API" style="stroke: #94A3B8; stroke-width: 2.0;"/><polygon fill="#94A3B8" points="447,1083.96,451,1074.96,447,1078.96,443,1074.96,447,1083.96" style="stroke: #94A3B8; stroke-width: 2.0;"/><!--MD5=[078dca9bad9b9a9d7ee270d51e1f1ea9]
link API to DASH--><path d="M447,1137.05 C447,1137.05 447,1241.96 447,1241.96 " fill="none" id="API-&gt;DASH" style="stroke: #94A3B8; stroke-width: 2.0;"/><polygon fill="#94A3B8" points="447,1246.96,451,1237.96,447,1241.96,443,1237.96,447,1246.96" style="stroke: #94A3B8; stroke-width: 2.0;"/><!--MD5=[61f8c69aa19d4b3346de96a57dc020a1]
@startuml Sentinel Architecture

skinparam linetype ortho
skinparam nodesep 90
skinparam ranksep 110

skinparam backgroundColor #1e1e2e
skinparam defaultFontColor #cdd6f4
skinparam defaultFontName "Helvetica"
skinparam arrowThickness 2

skinparam node {
    BackgroundColor #181825
    BorderColor #45475a
    FontColor #cdd6f4
    FontStyle bold
}

skinparam component {
    BackgroundColor #313244
    BorderColor #585b70
    FontColor #cdd6f4
}

skinparam database {
    BackgroundColor #313244
    BorderColor #585b70
    FontColor #cdd6f4
}

skinparam queue {
    BackgroundColor #4c1d95
    BorderColor #7c3aed
    FontColor #e9d5ff
}

together {
    node "External Feeds" #1e3a2a {
        component [OpenSky Network\n(ADS-B)] as ADSB #2d5a3d
        component [AISHub\n(AIS)] as AIS #2d5a3d
    }

    node "Dev Tooling" #3a3a1a {
        component [Load Generator\n(synthetic anomaly injection)] as LOADGEN #5a5a1a
    }
}

node "Ingestion Layer" #1a2a3a {
    component [Ingestion Poller\n(per region)] as POLLER #1e3a5a
    component [Dead-Letter Queue\n(malformed events)] as DLQ #5a1a1a
}

node "Message Broker" #2a1a3a {
    queue [Kafka\nadsb.raw  |  ais.raw  |  position.normalized] as KAFKA
}

together {
    node "Position Consumer" #1a2a3a {
        component [normalise + write\nto TimescaleDB + Redis] as POS_CONSUMER #1e3a5a
    }

    node "Correlation Worker" #1a2a3a {
        component [proximity detection\nentity graph builder] as CORR_WORKER #1e3a5a
    }
}

together {
    node "TimescaleDB" #0c2a3a {
        database [position history\ngeo-cell + time-bucket sharding] as TSDB #0c4a6e
    }

    node "Neo4j" #0a2a1a {
        database [entity graph\nproximity relationships] as NEO4J #14532d
    }

    node "Redis" #3a0a0a {
        database [live entity state\ncache — entity:live:{id}] as REDIS #7f1d1d
    }
}

node "Alert Layer" #2a1a3a {
    component [Alert Evaluator\n(leader-elected — single writer)] as ALERT #4c1d95
}

node "API Layer" #1a2a3a {
    component [Dashboard API\nREST  +  WebSocket] as API #1e3a5a
}

node "Dashboard" #1e3a2a {
    component [Angular + Leaflet\nLive Map  +  Alert Feed] as DASH #2d5a3d
}


ADSB        -[#4ade80]down->  POLLER
AIS         -[#4ade80]down->  POLLER
LOADGEN     -[#facc15]down->  KAFKA

POLLER      -[#facc15]down->  KAFKA
POLLER      -[#f87171]right-> DLQ

KAFKA       -[#a78bfa]down->  POS_CONSUMER
KAFKA       -[#a78bfa]down->  CORR_WORKER

POS_CONSUMER -[#38bdf8]down-> TSDB
POS_CONSUMER -[#f87171]down-> REDIS
CORR_WORKER  -[#4ade80]down-> NEO4J

TSDB        -[#fb923c]down->  ALERT
NEO4J       -[#fb923c]down->  ALERT
REDIS       -[#fb923c]down->  ALERT

ALERT       -[#94a3b8]down->  API
API         -[#94a3b8]down->  DASH

@enduml

PlantUML version 1.2020.02(Sun Mar 01 10:22:07 UTC 2020)
(GPL source distribution)
Java Runtime: OpenJDK Runtime Environment
JVM: OpenJDK 64-Bit Server VM
Java Version: 17.0.19+10
Operating System: Linux
Default Encoding: UTF-8
Language: en
Country: null
--></g></svg>