<?xml version="1.0" encoding="UTF-8" standalone="no"?><svg xmlns="http://www.w3.org/2000/svg" xmlns:xlink="http://www.w3.org/1999/xlink" contentScriptType="application/ecmascript" contentStyleType="text/css" height="1078px" preserveAspectRatio="none" style="width:2761px;height:1078px;background:#1E1E2E;" version="1.1" viewBox="0 0 2761 1078" width="2761px" zoomAndPan="magnify"><defs><filter height="300%" id="f1bgbzm8uyblb5" width="300%" x="-1" y="-1"><feGaussianBlur result="blurOut" stdDeviation="2.0"/><feColorMatrix in="blurOut" result="blurOut2" type="matrix" values="0 0 0 0 0 0 0 0 0 0 0 0 0 0 0 0 0 0 .4 0"/><feOffset dx="4.0" dy="4.0" in="blurOut2" result="blurOut3"/><feBlend in="SourceGraphic" in2="blurOut3" mode="normal"/></filter></defs><g><!--MD5=[536851d29b026cf8f5a82fd4c15e5943]
cluster External Feeds--><polygon fill="#1E3A2A" filter="url(#f1bgbzm8uyblb5)" points="2149,58,2159,48,2484,48,2484,171,2474,181,2149,181,2149,58" style="stroke: #45475A; stroke-width: 1.5;"/><line style="stroke: #45475A; stroke-width: 1.5;" x1="2474" x2="2483" y1="58" y2="49"/><line style="stroke: #45475A; stroke-width: 1.5;" x1="2149" x2="2474" y1="58" y2="58"/><line style="stroke: #45475A; stroke-width: 1.5;" x1="2474" x2="2474" y1="58" y2="181"/><text fill="#CDD6F4" font-family="Helvetica" font-size="14" font-weight="bold" lengthAdjust="spacingAndGlyphs" textLength="117" x="2254" y="73.9951">External Feeds</text><!--MD5=[fdb21df6283722b1b5bffb6302561a78]
cluster Dev Tooling--><polygon fill="#3A3A1A" filter="url(#f1bgbzm8uyblb5)" points="1843,58,1853,48,2091,48,2091,171,2081,181,1843,181,1843,58" style="stroke: #45475A; stroke-width: 1.5;"/><line style="stroke: #45475A; stroke-width: 1.5;" x1="2081" x2="2090" y1="58" y2="49"/><line style="stroke: #45475A; stroke-width: 1.5;" x1="1843" x2="2081" y1="58" y2="58"/><line style="stroke: #45475A; stroke-width: 1.5;" x1="2081" x2="2081" y1="58" y2="181"/><text fill="#CDD6F4" font-family="Helvetica" font-size="14" font-weight="bold" lengthAdjust="spacingAndGlyphs" textLength="93" x="1916.5" y="73.9951">Dev Tooling</text><!--MD5=[cad47721c51bf9610c0dde52b77964c0]
cluster Identity Provider--><polygon fill="#1A1A3A" filter="url(#f1bgbzm8uyblb5)" points="2532,58,2542,48,2739,48,2739,171,2729,181,2532,181,2532,58" style="stroke: #45475A; stroke-width: 1.5;"/><line style="stroke: #45475A; stroke-width: 1.5;" x1="2729" x2="2738" y1="58" y2="49"/><line style="stroke: #45475A; stroke-width: 1.5;" x1="2532" x2="2729" y1="58" y2="58"/><line style="stroke: #45475A; stroke-width: 1.5;" x1="2729" x2="2729" y1="58" y2="181"/><text fill="#CDD6F4" font-family="Helvetica" font-size="14" font-weight="bold" lengthAdjust="spacingAndGlyphs" textLength="131" x="2566" y="73.9951">Identity Provider</text><!--MD5=[819b80aa6b43c368ea8af63696246069]
cluster Ingestion Layer--><polygon fill="#1A2A3A" filter="url(#f1bgbzm8uyblb5)" points="2211,248,2221,238,2409,238,2409,361,2399,371,2211,371,2211,248" style="stroke: #45475A; stroke-width: 1.5;"/><line style="stroke: #45475A; stroke-width: 1.5;" x1="2399" x2="2408" y1="248" y2="239"/><line style="stroke: #45475A; stroke-width: 1.5;" x1="2211" x2="2399" y1="248" y2="248"/><line style="stroke: #45475A; stroke-width: 1.5;" x1="2399" x2="2399" y1="248" y2="371"/><text fill="#CDD6F4" font-family="Helvetica" font-size="14" font-weight="bold" lengthAdjust="spacingAndGlyphs" textLength="122" x="2245" y="263.9951">Ingestion Layer</text><!--MD5=[7a822afb34d165c613d364377b384f67]
cluster Message Broker--><polygon fill="#2A1A3A" filter="url(#f1bgbzm8uyblb5)" points="1087,461,1097,451,2401,451,2401,574,2391,584,1087,584,1087,461" style="stroke: #45475A; stroke-width: 1.5;"/><line style="stroke: #45475A; stroke-width: 1.5;" x1="2391" x2="2400" y1="461" y2="452"/><line style="stroke: #45475A; stroke-width: 1.5;" x1="1087" x2="2391" y1="461" y2="461"/><line style="stroke: #45475A; stroke-width: 1.5;" x1="2391" x2="2391" y1="461" y2="584"/><text fill="#CDD6F4" font-family="Helvetica" font-size="14" font-weight="bold" lengthAdjust="spacingAndGlyphs" textLength="128" x="1676" y="476.9951">Message Broker</text><!--MD5=[f4b4a8449c18ff67f5a00d3a9554de8b]
cluster Position Consumer--><polygon fill="#1A2A3A" filter="url(#f1bgbzm8uyblb5)" points="46,461,56,451,271,451,271,574,261,584,46,584,46,461" style="stroke: #45475A; stroke-width: 1.5;"/><line style="stroke: #45475A; stroke-width: 1.5;" x1="261" x2="270" y1="461" y2="452"/><line style="stroke: #45475A; stroke-width: 1.5;" x1="46" x2="261" y1="461" y2="461"/><line style="stroke: #45475A; stroke-width: 1.5;" x1="261" x2="261" y1="461" y2="584"/><text fill="#CDD6F4" font-family="Helvetica" font-size="14" font-weight="bold" lengthAdjust="spacingAndGlyphs" textLength="149" x="80" y="476.9951">Position Consumer</text><!--MD5=[b134510ccf4619884b462a734affa681]
cluster Correlation Worker--><polygon fill="#1A2A3A" filter="url(#f1bgbzm8uyblb5)" points="324,461,334,451,620,451,620,574,610,584,324,584,324,461" style="stroke: #45475A; stroke-width: 1.5;"/><line style="stroke: #45475A; stroke-width: 1.5;" x1="610" x2="619" y1="461" y2="452"/><line style="stroke: #45475A; stroke-width: 1.5;" x1="324" x2="610" y1="461" y2="461"/><line style="stroke: #45475A; stroke-width: 1.5;" x1="610" x2="610" y1="461" y2="584"/><text fill="#CDD6F4" font-family="Helvetica" font-size="14" font-weight="bold" lengthAdjust="spacingAndGlyphs" textLength="151" x="392.5" y="476.9951">Correlation Worker</text><!--MD5=[2e3627d7fecde47586a78e68fbcfead5]
cluster Deviation Detector--><polygon fill="#1A2A3A" filter="url(#f1bgbzm8uyblb5)" points="678,461,688,451,940,451,940,574,930,584,678,584,678,461" style="stroke: #45475A; stroke-width: 1.5;"/><line style="stroke: #45475A; stroke-width: 1.5;" x1="930" x2="939" y1="461" y2="452"/><line style="stroke: #45475A; stroke-width: 1.5;" x1="678" x2="930" y1="461" y2="461"/><line style="stroke: #45475A; stroke-width: 1.5;" x1="930" x2="930" y1="461" y2="584"/><text fill="#CDD6F4" font-family="Helvetica" font-size="14" font-weight="bold" lengthAdjust="spacingAndGlyphs" textLength="147" x="731.5" y="476.9951">Deviation Detector</text><!--MD5=[82441cc5e38416140bfcc6f636f8d1d4]
cluster TimescaleDB--><polygon fill="#0C2A3A" filter="url(#f1bgbzm8uyblb5)" points="802,706,812,696,1076,696,1076,835,1066,845,802,845,802,706" style="stroke: #45475A; stroke-width: 1.5;"/><line style="stroke: #45475A; stroke-width: 1.5;" x1="1066" x2="1075" y1="706" y2="697"/><line style="stroke: #45475A; stroke-width: 1.5;" x1="802" x2="1066" y1="706" y2="706"/><line style="stroke: #45475A; stroke-width: 1.5;" x1="1066" x2="1066" y1="706" y2="845"/><text fill="#CDD6F4" font-family="Helvetica" font-size="14" font-weight="bold" lengthAdjust="spacingAndGlyphs" textLength="100" x="885" y="721.9951">TimescaleDB</text><!--MD5=[0e4b3bf081175d3ed434f975f6399d52]
cluster Neo4j--><polygon fill="#0A2A1A" filter="url(#f1bgbzm8uyblb5)" points="1134,714,1144,704,1340,704,1340,827,1330,837,1134,837,1134,714" style="stroke: #45475A; stroke-width: 1.5;"/><line style="stroke: #45475A; stroke-width: 1.5;" x1="1330" x2="1339" y1="714" y2="705"/><line style="stroke: #45475A; stroke-width: 1.5;" x1="1134" x2="1330" y1="714" y2="714"/><line style="stroke: #45475A; stroke-width: 1.5;" x1="1330" x2="1330" y1="714" y2="837"/><text fill="#CDD6F4" font-family="Helvetica" font-size="14" font-weight="bold" lengthAdjust="spacingAndGlyphs" textLength="45" x="1210.5" y="729.9951">Neo4j</text><!--MD5=[ef8573dec6defc5da38bc0a7f3ea67de]
cluster Redis--><polygon fill="#3A0A0A" filter="url(#f1bgbzm8uyblb5)" points="446,706,456,696,744,696,744,835,734,845,446,845,446,706" style="stroke: #45475A; stroke-width: 1.5;"/><line style="stroke: #45475A; stroke-width: 1.5;" x1="734" x2="743" y1="706" y2="697"/><line style="stroke: #45475A; stroke-width: 1.5;" x1="446" x2="734" y1="706" y2="706"/><line style="stroke: #45475A; stroke-width: 1.5;" x1="734" x2="734" y1="706" y2="845"/><text fill="#CDD6F4" font-family="Helvetica" font-size="14" font-weight="bold" lengthAdjust="spacingAndGlyphs" textLength="43" x="569.5" y="721.9951">Redis</text><!--MD5=[913e67c5aa190d9dc9481ce4ee76c45a]
cluster Alert Layer--><polygon fill="#2A1A3A" filter="url(#f1bgbzm8uyblb5)" points="1230,943,1240,933,1488,933,1488,1056,1478,1066,1230,1066,1230,943" style="stroke: #45475A; stroke-width: 1.5;"/><line style="stroke: #45475A; stroke-width: 1.5;" x1="1478" x2="1487" y1="943" y2="934"/><line style="stroke: #45475A; stroke-width: 1.5;" x1="1230" x2="1478" y1="943" y2="943"/><line style="stroke: #45475A; stroke-width: 1.5;" x1="1478" x2="1478" y1="943" y2="1066"/><text fill="#CDD6F4" font-family="Helvetica" font-size="14" font-weight="bold" lengthAdjust="spacingAndGlyphs" textLength="87" x="1311.5" y="958.9951">Alert Layer</text><!--MD5=[70111191a764443d788a8690134af264]
cluster API Layer--><polygon fill="#1A2A3A" filter="url(#f1bgbzm8uyblb5)" points="1944,714,1954,704,2140,704,2140,827,2130,837,1944,837,1944,714" style="stroke: #45475A; stroke-width: 1.5;"/><line style="stroke: #45475A; stroke-width: 1.5;" x1="2130" x2="2139" y1="714" y2="705"/><line style="stroke: #45475A; stroke-width: 1.5;" x1="1944" x2="2130" y1="714" y2="714"/><line style="stroke: #45475A; stroke-width: 1.5;" x1="2130" x2="2130" y1="714" y2="837"/><text fill="#CDD6F4" font-family="Helvetica" font-size="14" font-weight="bold" lengthAdjust="spacingAndGlyphs" textLength="74" x="2001" y="729.9951">API Layer</text><!--MD5=[0d1efccdffd50bef89096ea366f2dacf]
cluster Dashboard--><polygon fill="#1E3A2A" filter="url(#f1bgbzm8uyblb5)" points="1938,943,1948,933,2146,933,2146,1056,2136,1066,1938,1066,1938,943" style="stroke: #45475A; stroke-width: 1.5;"/><line style="stroke: #45475A; stroke-width: 1.5;" x1="2136" x2="2145" y1="943" y2="934"/><line style="stroke: #45475A; stroke-width: 1.5;" x1="1938" x2="2136" y1="943" y2="943"/><line style="stroke: #45475A; stroke-width: 1.5;" x1="2136" x2="2136" y1="943" y2="1066"/><text fill="#CDD6F4" font-family="Helvetica" font-size="14" font-weight="bold" lengthAdjust="spacingAndGlyphs" textLength="85" x="1995.5" y="958.9951">Dashboard</text><!--MD5=[5dfa2dcd6d9d6c854772a3196228f1d3]
entity ADSB--><rect fill="#2D5A3D" filter="url(#f1bgbzm8uyblb5)" height="52.5938" style="stroke: #585B70; stroke-width: 1.5;" width="143" x="2165.5" y="112"/><rect fill="#2D5A3D" height="5" style="stroke: #585B70; stroke-width: 1.5;" width="10" x="2160.5" y="117"/><rect fill="#2D5A3D" height="5" style="stroke: #585B70; stroke-width: 1.5;" width="10" x="2160.5" y="154.5938"/><text fill="#CDD6F4" font-family="Helvetica" font-size="14" lengthAdjust="spacingAndGlyphs" textLength="123" x="2175.5" y="134.9951">OpenSky Network</text><text fill="#CDD6F4" font-family="Helvetica" font-size="14" lengthAdjust="spacingAndGlyphs" textLength="54" x="2175.5" y="151.292">(ADS-B)</text><!--MD5=[f5b7c8a384d817d6fdb1b8c015c8231d]
entity AIS--><rect fill="#2D5A3D" filter="url(#f1bgbzm8uyblb5)" height="52.5938" style="stroke: #585B70; stroke-width: 1.5;" width="69" x="2398.5" y="112"/><rect fill="#2D5A3D" height="5" style="stroke: #585B70; stroke-width: 1.5;" width="10" x="2393.5" y="117"/><rect fill="#2D5A3D" height="5" style="stroke: #585B70; stroke-width: 1.5;" width="10" x="2393.5" y="154.5938"/><text fill="#CDD6F4" font-family="Helvetica" font-size="14" lengthAdjust="spacingAndGlyphs" textLength="49" x="2408.5" y="134.9951">AISHub</text><text fill="#CDD6F4" font-family="Helvetica" font-size="14" lengthAdjust="spacingAndGlyphs" textLength="31" x="2408.5" y="151.292">(AIS)</text><!--MD5=[814847cfb274e7fb8134b53fe6490c98]
entity LOADGEN--><rect fill="#5A5A1A" filter="url(#f1bgbzm8uyblb5)" height="52.5938" style="stroke: #585B70; stroke-width: 1.5;" width="216" x="1859" y="112"/><rect fill="#5A5A1A" height="5" style="stroke: #585B70; stroke-width: 1.5;" width="10" x="1854" y="117"/><rect fill="#5A5A1A" height="5" style="stroke: #585B70; stroke-width: 1.5;" width="10" x="1854" y="154.5938"/><text fill="#CDD6F4" font-family="Helvetica" font-size="14" lengthAdjust="spacingAndGlyphs" textLength="107" x="1869" y="134.9951">Load Generator</text><text fill="#CDD6F4" font-family="Helvetica" font-size="14" lengthAdjust="spacingAndGlyphs" textLength="196" x="1869" y="151.292">(synthetic anomaly injection)</text><!--MD5=[8f623ffd90de0e674f318ab18fafdc12]
entity GOOGLE--><rect fill="#2D2D5A" filter="url(#f1bgbzm8uyblb5)" height="52.5938" style="stroke: #585B70; stroke-width: 1.5;" width="165" x="2557.5" y="112"/><rect fill="#2D2D5A" height="5" style="stroke: #585B70; stroke-width: 1.5;" width="10" x="2552.5" y="117"/><rect fill="#2D2D5A" height="5" style="stroke: #585B70; stroke-width: 1.5;" width="10" x="2552.5" y="154.5938"/><text fill="#CDD6F4" font-family="Helvetica" font-size="14" lengthAdjust="spacingAndGlyphs" textLength="123" x="2567.5" y="134.9951">Google OAuth 2.0</text><text fill="#CDD6F4" font-family="Helvetica" font-size="14" lengthAdjust="spacingAndGlyphs" textLength="145" x="2567.5" y="151.292">(ID token verification)</text><!--MD5=[68b9120dbf0a5ef7a1a94fca07786425]
entity POLLER--><rect fill="#1E3A5A" filter="url(#f1bgbzm8uyblb5)" height="52.5938" style="stroke: #585B70; stroke-width: 1.5;" width="126" x="2247" y="302"/><rect fill="#1E3A5A" height="5" style="stroke: #585B70; stroke-width: 1.5;" width="10" x="2242" y="307"/><rect fill="#1E3A5A" height="5" style="stroke: #585B70; stroke-width: 1.5;" width="10" x="2242" y="344.5938"/><text fill="#CDD6F4" font-family="Helvetica" font-size="14" lengthAdjust="spacingAndGlyphs" textLength="106" x="2257" y="324.9951">Ingestion Poller</text><text fill="#CDD6F4" font-family="Helvetica" font-size="14" lengthAdjust="spacingAndGlyphs" textLength="81" x="2257" y="341.292">(per region)</text><!--MD5=[ab0b48d65468654007b53bf5a84737fe]
entity KAFKA_RAW--><rect fill="#313244" filter="url(#f1bgbzm8uyblb5)" height="36.2969" style="stroke: #585B70; stroke-width: 1.5;" width="150" x="2235" y="523.5"/><rect fill="#313244" height="5" style="stroke: #585B70; stroke-width: 1.5;" width="10" x="2230" y="528.5"/><rect fill="#313244" height="5" style="stroke: #585B70; stroke-width: 1.5;" width="10" x="2230" y="549.7969"/><text fill="#CDD6F4" font-family="Helvetica" font-size="14" lengthAdjust="spacingAndGlyphs" textLength="130" x="2245" y="546.4951">adsb.raw  |  ais.raw</text><!--MD5=[84f66e9ffbfe4572aff68db8572e372a]
entity KAFKA_NORM--><rect fill="#313244" filter="url(#f1bgbzm8uyblb5)" height="36.2969" style="stroke: #585B70; stroke-width: 1.5;" width="155" x="1103.5" y="523.5"/><rect fill="#313244" height="5" style="stroke: #585B70; stroke-width: 1.5;" width="10" x="1098.5" y="528.5"/><rect fill="#313244" height="5" style="stroke: #585B70; stroke-width: 1.5;" width="10" x="1098.5" y="549.7969"/><text fill="#CDD6F4" font-family="Helvetica" font-size="14" lengthAdjust="spacingAndGlyphs" textLength="135" x="1113.5" y="546.4951">position.normalized</text><!--MD5=[3f8b25fd038d92cfdcaf8c611e118614]
entity KAFKA_DLQ--><rect fill="#5A1A1A" filter="url(#f1bgbzm8uyblb5)" height="52.5938" style="stroke: #585B70; stroke-width: 1.5;" width="144" x="1349" y="515"/><rect fill="#5A1A1A" height="5" style="stroke: #585B70; stroke-width: 1.5;" width="10" x="1344" y="520"/><rect fill="#5A1A1A" height="5" style="stroke: #585B70; stroke-width: 1.5;" width="10" x="1344" y="557.5938"/><text fill="#CDD6F4" font-family="Helvetica" font-size="14" lengthAdjust="spacingAndGlyphs" textLength="124" x="1359" y="537.9951">adsb.dlq  |  ais.dlq</text><text fill="#CDD6F4" font-family="Helvetica" font-size="14" lengthAdjust="spacingAndGlyphs" textLength="86" x="1359" y="554.292">(dead-letter)</text><!--MD5=[a4fbf90bfb3da3ecbb2bb9b75766b960]
entity KAFKA_DEV_CAND--><rect fill="#313244" filter="url(#f1bgbzm8uyblb5)" height="36.2969" style="stroke: #585B70; stroke-width: 1.5;" width="162" x="1583" y="523.5"/><rect fill="#313244" height="5" style="stroke: #585B70; stroke-width: 1.5;" width="10" x="1578" y="528.5"/><rect fill="#313244" height="5" style="stroke: #585B70; stroke-width: 1.5;" width="10" x="1578" y="549.7969"/><text fill="#CDD6F4" font-family="Helvetica" font-size="14" lengthAdjust="spacingAndGlyphs" textLength="142" x="1593" y="546.4951">deviation.candidates</text><!--MD5=[91978e2b932ce080a55b8eac0bede19c]
entity KAFKA_PROX_CAND--><rect fill="#313244" filter="url(#f1bgbzm8uyblb5)" height="36.2969" style="stroke: #585B70; stroke-width: 1.5;" width="161" x="1835.5" y="523.5"/><rect fill="#313244" height="5" style="stroke: #585B70; stroke-width: 1.5;" width="10" x="1830.5" y="528.5"/><rect fill="#313244" height="5" style="stroke: #585B70; stroke-width: 1.5;" width="10" x="1830.5" y="549.7969"/><text fill="#CDD6F4" font-family="Helvetica" font-size="14" lengthAdjust="spacingAndGlyphs" textLength="141" x="1845.5" y="546.4951">proximity.candidates</text><!--MD5=[dc76d3f85f2db0a80d9571ba1ef5a263]
entity KAFKA_ALERTS--><rect fill="#313244" filter="url(#f1bgbzm8uyblb5)" height="36.2969" style="stroke: #585B70; stroke-width: 1.5;" width="58" x="2087" y="523.5"/><rect fill="#313244" height="5" style="stroke: #585B70; stroke-width: 1.5;" width="10" x="2082" y="528.5"/><rect fill="#313244" height="5" style="stroke: #585B70; stroke-width: 1.5;" width="10" x="2082" y="549.7969"/><text fill="#CDD6F4" font-family="Helvetica" font-size="14" lengthAdjust="spacingAndGlyphs" textLength="38" x="2097" y="546.4951">alerts</text><!--MD5=[3f3a045b947c72a12c76af0432f5a18e]
entity POS_CONSUMER--><rect fill="#1E3A5A" filter="url(#f1bgbzm8uyblb5)" height="52.5938" style="stroke: #585B70; stroke-width: 1.5;" width="188" x="62" y="515"/><rect fill="#1E3A5A" height="5" style="stroke: #585B70; stroke-width: 1.5;" width="10" x="57" y="520"/><rect fill="#1E3A5A" height="5" style="stroke: #585B70; stroke-width: 1.5;" width="10" x="57" y="557.5938"/><text fill="#CDD6F4" font-family="Helvetica" font-size="14" lengthAdjust="spacingAndGlyphs" textLength="120" x="72" y="537.9951">normalise + write</text><text fill="#CDD6F4" font-family="Helvetica" font-size="14" lengthAdjust="spacingAndGlyphs" textLength="168" x="72" y="554.292">to TimescaleDB + Redis</text><!--MD5=[468eb0686cf3d1fd8635f132bce02e40]
entity CORR_WORKER--><rect fill="#1E3A5A" filter="url(#f1bgbzm8uyblb5)" height="52.5938" style="stroke: #585B70; stroke-width: 1.5;" width="263" x="340.5" y="515"/><rect fill="#1E3A5A" height="5" style="stroke: #585B70; stroke-width: 1.5;" width="10" x="335.5" y="520"/><rect fill="#1E3A5A" height="5" style="stroke: #585B70; stroke-width: 1.5;" width="10" x="335.5" y="557.5938"/><text fill="#CDD6F4" font-family="Helvetica" font-size="14" lengthAdjust="spacingAndGlyphs" textLength="131" x="350.5" y="537.9951">proximity detection</text><text fill="#CDD6F4" font-family="Helvetica" font-size="14" lengthAdjust="spacingAndGlyphs" textLength="243" x="350.5" y="554.292">entity graph + proximity.candidates</text><!--MD5=[222969a1fa58bb1a7ff86e918f38d7a3]
entity DEV_DETECTOR--><rect fill="#1E3A5A" filter="url(#f1bgbzm8uyblb5)" height="52.5938" style="stroke: #585B70; stroke-width: 1.5;" width="230" x="694" y="515"/><rect fill="#1E3A5A" height="5" style="stroke: #585B70; stroke-width: 1.5;" width="10" x="689" y="520"/><rect fill="#1E3A5A" height="5" style="stroke: #585B70; stroke-width: 1.5;" width="10" x="689" y="557.5938"/><text fill="#CDD6F4" font-family="Helvetica" font-size="14" lengthAdjust="spacingAndGlyphs" textLength="143" x="704" y="537.9951">baseline comparison</text><text fill="#CDD6F4" font-family="Helvetica" font-size="14" lengthAdjust="spacingAndGlyphs" textLength="210" x="704" y="554.292">deviation.candidates publisher</text><!--MD5=[3859b04db380c466f547d5189490df3d]
entity TSDB--><rect fill="#0C4A6E" filter="url(#f1bgbzm8uyblb5)" height="68.8906" style="stroke: #585B70; stroke-width: 1.5;" width="242" x="818" y="760"/><rect fill="#0C4A6E" height="5" style="stroke: #585B70; stroke-width: 1.5;" width="10" x="813" y="765"/><rect fill="#0C4A6E" height="5" style="stroke: #585B70; stroke-width: 1.5;" width="10" x="813" y="818.8906"/><text fill="#CDD6F4" font-family="Helvetica" font-size="14" lengthAdjust="spacingAndGlyphs" textLength="155" x="828" y="782.9951">position history · alerts</text><text fill="#CDD6F4" font-family="Helvetica" font-size="14" lengthAdjust="spacingAndGlyphs" textLength="172" x="828" y="799.292">users · user_workspaces</text><text fill="#CDD6F4" font-family="Helvetica" font-size="14" lengthAdjust="spacingAndGlyphs" textLength="222" x="828" y="815.5889">geo-cell + time-bucket sharding</text><!--MD5=[61d552b89fd22f9019939d17c3b16c50]
entity NEO4J--><rect fill="#14532D" filter="url(#f1bgbzm8uyblb5)" height="52.5938" style="stroke: #585B70; stroke-width: 1.5;" width="173" x="1150.5" y="768"/><rect fill="#14532D" height="5" style="stroke: #585B70; stroke-width: 1.5;" width="10" x="1145.5" y="773"/><rect fill="#14532D" height="5" style="stroke: #585B70; stroke-width: 1.5;" width="10" x="1145.5" y="810.5938"/><text fill="#CDD6F4" font-family="Helvetica" font-size="14" lengthAdjust="spacingAndGlyphs" textLength="82" x="1160.5" y="790.9951">entity graph</text><text fill="#CDD6F4" font-family="Helvetica" font-size="14" lengthAdjust="spacingAndGlyphs" textLength="153" x="1160.5" y="807.292">proximity relationships</text><!--MD5=[bc13e7799335a32c3ddf14a3eabc729f]
entity REDIS--><rect fill="#7F1D1D" filter="url(#f1bgbzm8uyblb5)" height="68.8906" style="stroke: #585B70; stroke-width: 1.5;" width="266" x="462" y="760"/><rect fill="#7F1D1D" height="5" style="stroke: #585B70; stroke-width: 1.5;" width="10" x="457" y="765"/><rect fill="#7F1D1D" height="5" style="stroke: #585B70; stroke-width: 1.5;" width="10" x="457" y="818.8906"/><text fill="#CDD6F4" font-family="Helvetica" font-size="14" lengthAdjust="spacingAndGlyphs" textLength="217" x="472" y="782.9951">live entity state · leader election</text><text fill="#CDD6F4" font-family="Helvetica" font-size="14" lengthAdjust="spacingAndGlyphs" textLength="217" x="472" y="799.292">entity:live:{id} · alert-state:{id}</text><text fill="#CDD6F4" font-family="Helvetica" font-size="14" lengthAdjust="spacingAndGlyphs" textLength="246" x="472" y="815.5889">pub/sub · position-updates channel</text><!--MD5=[af4e189415dcb7803cfd11feb18d991f]
entity ALERT--><rect fill="#4C1D95" filter="url(#f1bgbzm8uyblb5)" height="52.5938" style="stroke: #585B70; stroke-width: 1.5;" width="226" x="1246" y="997"/><rect fill="#4C1D95" height="5" style="stroke: #585B70; stroke-width: 1.5;" width="10" x="1241" y="1002"/><rect fill="#4C1D95" height="5" style="stroke: #585B70; stroke-width: 1.5;" width="10" x="1241" y="1039.5938"/><text fill="#CDD6F4" font-family="Helvetica" font-size="14" lengthAdjust="spacingAndGlyphs" textLength="98" x="1256" y="1019.9951">Alert Evaluator</text><text fill="#CDD6F4" font-family="Helvetica" font-size="14" lengthAdjust="spacingAndGlyphs" textLength="206" x="1256" y="1036.292">(leader-elected - single writer)</text><!--MD5=[645d8587175d8f7ad110cd370775931d]
entity API--><rect fill="#1E3A5A" filter="url(#f1bgbzm8uyblb5)" height="52.5938" style="stroke: #585B70; stroke-width: 1.5;" width="164" x="1960" y="768"/><rect fill="#1E3A5A" height="5" style="stroke: #585B70; stroke-width: 1.5;" width="10" x="1955" y="773"/><rect fill="#1E3A5A" height="5" style="stroke: #585B70; stroke-width: 1.5;" width="10" x="1955" y="810.5938"/><text fill="#CDD6F4" font-family="Helvetica" font-size="14" lengthAdjust="spacingAndGlyphs" textLength="101" x="1970" y="790.9951">Dashboard API</text><text fill="#CDD6F4" font-family="Helvetica" font-size="14" lengthAdjust="spacingAndGlyphs" textLength="144" x="1970" y="807.292">REST  +  WebSocket</text><!--MD5=[1d6f150eca6209a1647a729025e19db0]
entity DASH--><rect fill="#2D5A3D" filter="url(#f1bgbzm8uyblb5)" height="52.5938" style="stroke: #585B70; stroke-width: 1.5;" width="177" x="1953.5" y="997"/><rect fill="#2D5A3D" height="5" style="stroke: #585B70; stroke-width: 1.5;" width="10" x="1948.5" y="1002"/><rect fill="#2D5A3D" height="5" style="stroke: #585B70; stroke-width: 1.5;" width="10" x="1948.5" y="1039.5938"/><text fill="#CDD6F4" font-family="Helvetica" font-size="14" lengthAdjust="spacingAndGlyphs" textLength="117" x="1963.5" y="1019.9951">Angular + Leaflet</text><text fill="#CDD6F4" font-family="Helvetica" font-size="14" lengthAdjust="spacingAndGlyphs" textLength="157" x="1963.5" y="1036.292">Live Map  +  Alert Feed</text><!--MD5=[242cfcd81458995eda1c4ff11c042448]
link ADSB to POLLER--><path d="M2277.75,165.32 C2277.75,165.32 2277.75,296.82 2277.75,296.82 " fill="none" id="ADSB-&gt;POLLER" style="stroke: #4ADE80; stroke-width: 2.0;"/><polygon fill="#4ADE80" points="2277.75,301.82,2281.75,292.82,2277.75,296.82,2273.75,292.82,2277.75,301.82" style="stroke: #4ADE80; stroke-width: 2.0;"/><!--MD5=[358254e734abe4eda4baf133f1f9b5f9]
link AIS to POLLER--><path d="M2398.39,139 C2372.21,139 2340.75,139 2340.75,139 C2340.75,139 2340.75,296.75 2340.75,296.75 " fill="none" id="AIS-&gt;POLLER" style="stroke: #4ADE80; stroke-width: 2.0;"/><polygon fill="#4ADE80" points="2340.75,301.75,2344.75,292.75,2340.75,296.75,2336.75,292.75,2340.75,301.75" style="stroke: #4ADE80; stroke-width: 2.0;"/><!--MD5=[21665801cb13982af8c413c616f48112]
link LOADGEN to KAFKA_RAW--><path d="M2035.75,165.1 C2035.75,193.36 2035.75,234 2035.75,234 C2035.75,234 2243,234 2243,234 C2243,234 2243,518.19 2243,518.19 " fill="none" id="LOADGEN-&gt;KAFKA_RAW" style="stroke: #FACC15; stroke-width: 2.0;"/><polygon fill="#FACC15" points="2243,523.19,2247,514.19,2243,518.19,2239,514.19,2243,523.19" style="stroke: #FACC15; stroke-width: 2.0;"/><!--MD5=[63e5956194dad33f0432b6a6522bcb7d]
link POLLER to KAFKA_RAW--><path d="M2310,355.05 C2310,355.05 2310,518.36 2310,518.36 " fill="none" id="POLLER-&gt;KAFKA_RAW" style="stroke: #FACC15; stroke-width: 2.0;"/><polygon fill="#FACC15" points="2310,523.36,2314,514.36,2310,518.36,2306,514.36,2310,523.36" style="stroke: #FACC15; stroke-width: 2.0;"/><!--MD5=[7abdaa2eb46eef241e19e5b141b20531]
link KAFKA_RAW to POS_CONSUMER--><path d="M2239,523.24 C2239,483.97 2239,395 2239,395 C2239,395 124.67,395 124.67,395 C124.67,395 124.67,509.97 124.67,509.97 " fill="none" id="KAFKA_RAW-&gt;POS_CONSUMER" style="stroke: #A78BFA; stroke-width: 2.0;"/><polygon fill="#A78BFA" points="124.67,514.97,128.67,505.97,124.67,509.97,120.67,505.97,124.67,514.97" style="stroke: #A78BFA; stroke-width: 2.0;"/><!--MD5=[9b18c758c3a08fd89d240d82958d0e55]
link POS_CONSUMER to KAFKA_DLQ--><path d="M187.33,514.84 C187.33,496.33 187.33,475 187.33,475 C187.33,475 1421,475 1421,475 C1421,475 1421,509.84 1421,509.84 " fill="none" id="POS_CONSUMER-&gt;KAFKA_DLQ" style="stroke: #F87171; stroke-width: 2.0;"/><polygon fill="#F87171" points="1421,514.84,1425,505.84,1421,509.84,1417,505.84,1421,514.84" style="stroke: #F87171; stroke-width: 2.0;"/><!--MD5=[3b705f77d89e2320e0cdcab859092af1]
link POS_CONSUMER to TSDB--><path d="M109,568.13 C109,620.75 109,733 109,733 C109,733 844.5,733 844.5,733 C844.5,733 844.5,754.8 844.5,754.8 " fill="none" id="POS_CONSUMER-&gt;TSDB" style="stroke: #38BDF8; stroke-width: 2.0;"/><polygon fill="#38BDF8" points="844.5,759.8,848.5,750.8,844.5,754.8,840.5,750.8,844.5,759.8" style="stroke: #38BDF8; stroke-width: 2.0;"/><!--MD5=[6066c50f260cd6b20f244022119e02fa]
link POS_CONSUMER to REDIS--><path d="M203,568.15 C203,633.23 203,795 203,795 C203,795 456.74,795 456.74,795 " fill="none" id="POS_CONSUMER-&gt;REDIS" style="stroke: #F87171; stroke-width: 2.0;"/><polygon fill="#F87171" points="461.74,795,452.74,791,456.74,795,452.74,799,461.74,795" style="stroke: #F87171; stroke-width: 2.0;"/><!--MD5=[7a86c281708028e6bb16e5b2a9756072]
link POS_CONSUMER to KAFKA_NORM--><path d="M156,568.01 C156,600.41 156,651 156,651 C156,651 1134.83,651 1134.83,651 C1134.83,651 1134.83,564.58 1134.83,564.58 " fill="none" id="POS_CONSUMER-&gt;KAFKA_NORM" style="stroke: #A78BFA; stroke-width: 2.0;"/><polygon fill="#A78BFA" points="1134.83,559.58,1130.83,568.58,1134.83,564.58,1138.83,568.58,1134.83,559.58" style="stroke: #A78BFA; stroke-width: 2.0;"/><!--MD5=[02b08cb5334b2a8a134e2f950faa1f49]
link KAFKA_NORM to CORR_WORKER--><path d="M1119.17,559.59 C1119.17,583.6 1119.17,623 1119.17,623 C1119.17,623 568.12,623 568.12,623 C568.12,623 568.12,573.19 568.12,573.19 " fill="none" id="KAFKA_NORM-&gt;CORR_WORKER" style="stroke: #A78BFA; stroke-width: 2.0;"/><polygon fill="#A78BFA" points="568.12,568.19,564.12,577.19,568.12,573.19,572.12,577.19,568.12,568.19" style="stroke: #A78BFA; stroke-width: 2.0;"/><!--MD5=[1119316488af9052eb2e7a35f5f7e0d1]
link KAFKA_NORM to DEV_DETECTOR--><path d="M1103.47,542 C1103.47,542 929.23,542 929.23,542 " fill="none" id="KAFKA_NORM-&gt;DEV_DETECTOR" style="stroke: #A78BFA; stroke-width: 2.0;"/><polygon fill="#A78BFA" points="924.23,542,933.23,546,929.23,542,933.23,538,924.23,542" style="stroke: #A78BFA; stroke-width: 2.0;"/><!--MD5=[7b25bf2e9d9533060c7b207627735c3c]
link CORR_WORKER to REDIS--><path d="M497.38,568.1 C497.38,568.1 497.38,754.84 497.38,754.84 " fill="none" id="CORR_WORKER-&gt;REDIS" style="stroke: #F87171; stroke-width: 2.0;"/><polygon fill="#F87171" points="497.38,759.84,501.38,750.84,497.38,754.84,493.38,750.84,497.38,759.84" style="stroke: #F87171; stroke-width: 2.0;"/><!--MD5=[f34d958aa2caaae79a8642e9616f30ff]
link CORR_WORKER to NEO4J--><path d="M532.75,568.3 C532.75,614.91 532.75,706 532.75,706 C532.75,706 1204.5,706 1204.5,706 C1204.5,706 1204.5,762.95 1204.5,762.95 " fill="none" id="CORR_WORKER-&gt;NEO4J" style="stroke: #4ADE80; stroke-width: 2.0;"/><polygon fill="#4ADE80" points="1204.5,767.95,1208.5,758.95,1204.5,762.95,1200.5,758.95,1204.5,767.95" style="stroke: #4ADE80; stroke-width: 2.0;"/><!--MD5=[8f2de40daedd08945c69c13c419e8382]
link CORR_WORKER to KAFKA_PROX_CAND--><path d="M472,514.9 C472,483.36 472,435 472,435 C472,435 1847.25,435 1847.25,435 C1847.25,435 1847.25,518.43 1847.25,518.43 " fill="none" id="CORR_WORKER-&gt;KAFKA_PROX_CAND" style="stroke: #A78BFA; stroke-width: 2.0;"/><polygon fill="#A78BFA" points="1847.25,523.43,1851.25,514.43,1847.25,518.43,1843.25,514.43,1847.25,523.43" style="stroke: #A78BFA; stroke-width: 2.0;"/><!--MD5=[d00079e23925708c6f0a9529b85d478e]
link DEV_DETECTOR to TSDB--><path d="M871,568.1 C871,568.1 871,754.84 871,754.84 " fill="none" id="DEV_DETECTOR-&gt;TSDB" style="stroke: #38BDF8; stroke-width: 2.0;"/><polygon fill="#38BDF8" points="871,759.84,875,750.84,871,754.84,867,750.84,871,759.84" style="stroke: #38BDF8; stroke-width: 2.0;"/><!--MD5=[f6af351bd864f9a27b8dbe0355c7f485]
link DEV_DETECTOR to KAFKA_DEV_CAND--><path d="M897.5,568.11 C897.5,581.95 897.5,596 897.5,596 C897.5,596 1637,596 1637,596 C1637,596 1637,564.65 1637,564.65 " fill="none" id="DEV_DETECTOR-&gt;KAFKA_DEV_CAND" style="stroke: #A78BFA; stroke-width: 2.0;"/><polygon fill="#A78BFA" points="1637,559.65,1633,568.65,1637,564.65,1641,568.65,1637,559.65" style="stroke: #A78BFA; stroke-width: 2.0;"/><!--MD5=[588d6035a5db65fdf3473e84da266344]
link KAFKA_DEV_CAND to ALERT--><path d="M1691,559.77 C1691,646.79 1691,1015 1691,1015 C1691,1015 1477.33,1015 1477.33,1015 " fill="none" id="KAFKA_DEV_CAND-&gt;ALERT" style="stroke: #A78BFA; stroke-width: 2.0;"/><polygon fill="#A78BFA" points="1472.33,1015,1481.33,1019,1477.33,1015,1481.33,1011,1472.33,1015" style="stroke: #A78BFA; stroke-width: 2.0;"/><!--MD5=[16bb80ec585272b7addc4ae3b1b7589d]
link KAFKA_PROX_CAND to ALERT--><path d="M1894.5,559.58 C1894.5,648.25 1894.5,1033 1894.5,1033 C1894.5,1033 1477.24,1033 1477.24,1033 " fill="none" id="KAFKA_PROX_CAND-&gt;ALERT" style="stroke: #A78BFA; stroke-width: 2.0;"/><polygon fill="#A78BFA" points="1472.24,1033,1481.24,1037,1477.24,1033,1481.24,1029,1472.24,1033" style="stroke: #A78BFA; stroke-width: 2.0;"/><!--MD5=[5e1157f952775895e0741fcb5061c4cb]
link REDIS to ALERT--><path d="M595,834.36 C595,834.36 595,1024 595,1024 C595,1024 1240.86,1024 1240.86,1024 " fill="none" id="REDIS-ALERT" style="stroke: #FB923C; stroke-width: 2.0;"/><polygon fill="#FB923C" points="1245.86,1024,1236.86,1020,1240.86,1024,1236.86,1028,1245.86,1024" style="stroke: #FB923C; stroke-width: 2.0;"/><polygon fill="#FB923C" points="595,829.36,591,838.36,595,834.36,599,838.36,595,829.36" style="stroke: #FB923C; stroke-width: 2.0;"/><text fill="#CDD6F4" font-family="Helvetica" font-size="13" lengthAdjust="spacingAndGlyphs" textLength="85" x="658" y="905.5669">reads / writes</text><!--MD5=[cc65144bc4690fce26370dcf6b3475c0]
link TSDB to ALERT--><path d="M1060.1,825 C1155.27,825 1271.83,825 1271.83,825 C1271.83,825 1271.83,991.73 1271.83,991.73 " fill="none" id="TSDB-&gt;ALERT" style="stroke: #FB923C; stroke-width: 2.0;"/><polygon fill="#FB923C" points="1271.83,996.73,1275.83,987.73,1271.83,991.73,1267.83,987.73,1271.83,996.73" style="stroke: #FB923C; stroke-width: 2.0;"/><text fill="#CDD6F4" font-family="Helvetica" font-size="13" lengthAdjust="spacingAndGlyphs" textLength="36" x="1023.5" y="898.0669">reads</text><text fill="#CDD6F4" font-family="Helvetica" font-size="13" lengthAdjust="spacingAndGlyphs" textLength="131" x="976" y="913.1997">(last known position)</text><!--MD5=[1ff29f6d6fb4dd03cd887fdb0977cb52]
link NEO4J to ALERT--><path d="M1297.67,821.22 C1297.67,821.22 1297.67,991.95 1297.67,991.95 " fill="none" id="NEO4J-&gt;ALERT" style="stroke: #FB923C; stroke-width: 2.0;"/><polygon fill="#FB923C" points="1297.67,996.95,1301.67,987.95,1297.67,991.95,1293.67,987.95,1297.67,996.95" style="stroke: #FB923C; stroke-width: 2.0;"/><text fill="#CDD6F4" font-family="Helvetica" font-size="13" lengthAdjust="spacingAndGlyphs" textLength="36" x="1305.5" y="898.0669">reads</text><text fill="#CDD6F4" font-family="Helvetica" font-size="13" lengthAdjust="spacingAndGlyphs" textLength="129" x="1259" y="913.1997">(composite context)</text><!--MD5=[d6c5e9ceb3e2edd783859692ed7dc549]
link ALERT to KAFKA_ALERTS--><path d="M1410.5,996.91 C1410.5,931.12 1410.5,766 1410.5,766 C1410.5,766 2099.33,766 2099.33,766 C2099.33,766 2099.33,564.87 2099.33,564.87 " fill="none" id="ALERT-&gt;KAFKA_ALERTS" style="stroke: #94A3B8; stroke-width: 2.0;"/><polygon fill="#94A3B8" points="2099.33,559.87,2095.33,568.87,2099.33,564.87,2103.33,568.87,2099.33,559.87" style="stroke: #94A3B8; stroke-width: 2.0;"/><!--MD5=[586d63034be206b757f3770a88f829b5]
link KAFKA_ALERTS to API--><path d="M2111.67,559.7 C2111.67,559.7 2111.67,762.99 2111.67,762.99 " fill="none" id="KAFKA_ALERTS-&gt;API" style="stroke: #94A3B8; stroke-width: 2.0;"/><polygon fill="#94A3B8" points="2111.67,767.99,2115.67,758.99,2111.67,762.99,2107.67,758.99,2111.67,767.99" style="stroke: #94A3B8; stroke-width: 2.0;"/><!--MD5=[1db561b9c8910e28ab1c287465b768f0]
reverse link TSDB to API--><path d="M1065.05,763 C1065.05,763 1972.17,763 1972.17,763 C1972.17,763 1972.17,764.97 1972.17,767.92 " fill="none" id="TSDB&lt;-API" style="stroke: #38BDF8; stroke-width: 2.0;"/><polygon fill="#38BDF8" points="1060.05,763,1069.05,767,1065.05,763,1069.05,759,1060.05,763" style="stroke: #38BDF8; stroke-width: 2.0;"/><!--MD5=[d6b91ca0129cd255e6dd2df5d100c72d]
link API to REDIS--><path d="M1984.33,762.77 C1984.33,762.77 1984.33,678 1984.33,678 C1984.33,678 711,678 711,678 C711,678 711,754.86 711,754.86 " fill="none" id="API-REDIS" style="stroke: #F87171; stroke-width: 2.0;"/><polygon fill="#F87171" points="711,759.86,715,750.86,711,754.86,707,750.86,711,759.86" style="stroke: #F87171; stroke-width: 2.0;"/><polygon fill="#F87171" points="1984.33,767.77,1988.33,758.77,1984.33,762.77,1980.33,758.77,1984.33,767.77" style="stroke: #F87171; stroke-width: 2.0;"/><text fill="#CDD6F4" font-family="Helvetica" font-size="13" lengthAdjust="spacingAndGlyphs" textLength="81" x="1159.5" y="637.0669">entity state /</text><text fill="#CDD6F4" font-family="Helvetica" font-size="13" lengthAdjust="spacingAndGlyphs" textLength="107" x="1146.5" y="652.1997">position-updates</text><!--MD5=[a845dd7c23ef2293f1c5cd38ad0533d1]
reverse link NEO4J to API--><path d="M1328.53,795 C1328.53,795 1959.87,795 1959.87,795 " fill="none" id="NEO4J&lt;-API" style="stroke: #4ADE80; stroke-width: 2.0;"/><polygon fill="#4ADE80" points="1323.53,795,1332.53,799,1328.53,795,1332.53,791,1323.53,795" style="stroke: #4ADE80; stroke-width: 2.0;"/><!--MD5=[4f584e7bc21afe314de36c5cced96543]
reverse link GOOGLE to API--><path d="M2640,170.05 C2640,170.05 2640,795 2640,795 C2640,795 2288.12,795 2124.21,795 " fill="none" id="GOOGLE&lt;-API" style="stroke: #A78BFA; stroke-width: 2.0;"/><polygon fill="#A78BFA" points="2640,165.05,2636,174.05,2640,170.05,2644,174.05,2640,165.05" style="stroke: #A78BFA; stroke-width: 2.0;"/><!--MD5=[078dca9bad9b9a9d7ee270d51e1f1ea9]
link API to DASH--><path d="M2042,821.22 C2042,821.22 2042,991.95 2042,991.95 " fill="none" id="API-&gt;DASH" style="stroke: #94A3B8; stroke-width: 2.0;"/><polygon fill="#94A3B8" points="2042,996.95,2046,987.95,2042,991.95,2038,987.95,2042,996.95" style="stroke: #94A3B8; stroke-width: 2.0;"/><!--MD5=[917959b9c35df1ff0e982b9bcddc496a]
@startuml Sentinel Architecture

skinparam linetype ortho
skinparam nodesep 90
skinparam ranksep 110

skinparam backgroundColor #1e1e2e
skinparam defaultFontColor #cdd6f4
skinparam defaultFontName "Helvetica"
skinparam arrowThickness 2

skinparam node {
    BackgroundColor #181825
    BorderColor #45475a
    FontColor #cdd6f4
    FontStyle bold
}

skinparam component {
    BackgroundColor #313244
    BorderColor #585b70
    FontColor #cdd6f4
}

skinparam database {
    BackgroundColor #313244
    BorderColor #585b70
    FontColor #cdd6f4
}

skinparam queue {
    BackgroundColor #4c1d95
    BorderColor #7c3aed
    FontColor #e9d5ff
}

together {
    node "External Feeds" #1e3a2a {
        component [OpenSky Network\n(ADS-B)] as ADSB #2d5a3d
        component [AISHub\n(AIS)] as AIS #2d5a3d
    }

    node "Dev Tooling" #3a3a1a {
        component [Load Generator\n(synthetic anomaly injection)] as LOADGEN #5a5a1a
    }

    node "Identity Provider" #1a1a3a {
        component [Google OAuth 2.0\n(ID token verification)] as GOOGLE #2d2d5a
    }
}

node "Ingestion Layer" #1a2a3a {
    component [Ingestion Poller\n(per region)] as POLLER #1e3a5a
}

node "Message Broker" #2a1a3a {
    queue [adsb.raw  |  ais.raw] as KAFKA_RAW
    queue [position.normalized] as KAFKA_NORM
    queue [adsb.dlq  |  ais.dlq\n(dead-letter)] as KAFKA_DLQ #5a1a1a
    queue [deviation.candidates] as KAFKA_DEV_CAND
    queue [proximity.candidates] as KAFKA_PROX_CAND
    queue [alerts] as KAFKA_ALERTS
}

together {
    node "Position Consumer" #1a2a3a {
        component [normalise + write\nto TimescaleDB + Redis] as POS_CONSUMER #1e3a5a
    }

    node "Correlation Worker" #1a2a3a {
        component [proximity detection\nentity graph + proximity.candidates] as CORR_WORKER #1e3a5a
    }

    node "Deviation Detector" #1a2a3a {
        component [baseline comparison\ndeviation.candidates publisher] as DEV_DETECTOR #1e3a5a
    }
}

together {
    node "TimescaleDB" #0c2a3a {
        database [position history · alerts\nusers · user_workspaces\ngeo-cell + time-bucket sharding] as TSDB #0c4a6e
    }

    node "Neo4j" #0a2a1a {
        database [entity graph\nproximity relationships] as NEO4J #14532d
    }

    node "Redis" #3a0a0a {
        database [live entity state · leader election\nentity:live:{id} · alert-state:{id}\npub/sub · position-updates channel] as REDIS #7f1d1d
    }
}

node "Alert Layer" #2a1a3a {
    component [Alert Evaluator\n(leader-elected - single writer)] as ALERT #4c1d95
}

node "API Layer" #1a2a3a {
    component [Dashboard API\nREST  +  WebSocket] as API #1e3a5a
}

node "Dashboard" #1e3a2a {
    component [Angular + Leaflet\nLive Map  +  Alert Feed] as DASH #2d5a3d
}


ADSB        -[#4ade80]down->  POLLER
AIS         -[#4ade80]down->  POLLER

LOADGEN     -[#facc15]down->  KAFKA_RAW

POLLER      -[#facc15]down->  KAFKA_RAW

KAFKA_RAW   -[#a78bfa]down->  POS_CONSUMER

POS_CONSUMER -[#f87171]right-> KAFKA_DLQ

POS_CONSUMER -[#38bdf8]down-> TSDB
POS_CONSUMER -[#f87171]down-> REDIS

POS_CONSUMER -[#a78bfa]right-> KAFKA_NORM

KAFKA_NORM  -[#a78bfa]down->  CORR_WORKER
KAFKA_NORM  -[#a78bfa]down->  DEV_DETECTOR

CORR_WORKER  -[#f87171]down-> REDIS

CORR_WORKER  -[#4ade80]down-> NEO4J
CORR_WORKER  -[#a78bfa]down-> KAFKA_PROX_CAND

DEV_DETECTOR -[#38bdf8]down-> TSDB

DEV_DETECTOR -[#a78bfa]down-> KAFKA_DEV_CAND

KAFKA_DEV_CAND  -[#a78bfa]down-> ALERT
KAFKA_PROX_CAND -[#a78bfa]down-> ALERT

REDIS       <-[#fb923c]->     ALERT : "reads / writes"
TSDB        -[#fb923c]->      ALERT : "reads\n(last known position)"
NEO4J       -[#fb923c]down->  ALERT : "reads\n(composite context)"

ALERT       -[#94a3b8]down->  KAFKA_ALERTS
KAFKA_ALERTS -[#94a3b8]down-> API

API         -[#38bdf8]left->  TSDB
API         <-[#f87171]->     REDIS : "entity state /\nposition-updates"
API         -[#4ade80]left->  NEO4J
API         -[#a78bfa]up->    GOOGLE

API         -[#94a3b8]down->  DASH

@enduml

PlantUML version 1.2020.02(Sun Mar 01 10:22:07 UTC 2020)
(GPL source distribution)
Java Runtime: OpenJDK Runtime Environment
JVM: OpenJDK 64-Bit Server VM
Java Version: 17.0.19+10
Operating System: Linux
Default Encoding: UTF-8
Language: en
Country: null
--></g></svg>