<svg xmlns="http://www.w3.org/2000/svg" xmlns:xlink="http://www.w3.org/1999/xlink" contentStyleType="text/css" data-diagram-type="SEQUENCE" height="1244px" preserveAspectRatio="none" style="width:1151px;height:1244px;background:#FFFFFF;" version="1.1" viewBox="0 0 1151 1244" width="1151px" zoomAndPan="magnify"><?plantuml 1.2026.5?><defs/><g><g class="title" data-source-line="1"><text fill="#000000" font-family="monospace" font-size="14" font-weight="700" lengthAdjust="spacing" textLength="370.8633" x="386.9033" y="27.9951">WebSocket&#160;alert-events&#160;Scope&#160;Filtering&#160;(CP3)</text></g><rect fill="#FAFAFA" height="308.5313" style="stroke:#CCCCCC;stroke-width:1.5;" width="499.1504" x="540.8242" y="202.1719"/><rect fill="#FAFAFA" height="91.8438" style="stroke:none;stroke-width:1;" width="499.1504" x="540.8242" y="418.8594"/><rect fill="#FAFAFA" height="380.5938" style="stroke:#CCCCCC;stroke-width:1.5;" width="908.3193" x="10" y="677.5469"/><rect fill="#FAFAFA" height="350.625" style="stroke:#CCCCCC;stroke-width:1.5;" width="888.3193" x="20" y="700.5156"/><rect fill="#FAFAFA" height="143.8438" style="stroke:#CCCCCC;stroke-width:1.5;" width="858.3193" x="40" y="723.4844"/><rect fill="#FAFAFA" height="43.9375" style="stroke:none;stroke-width:1;" width="858.3193" x="40" y="780.4219"/><rect fill="#FAFAFA" height="42.9688" style="stroke:none;stroke-width:1;" width="858.3193" x="40" y="824.3594"/><rect fill="#FAFAFA" height="176.8125" style="stroke:none;stroke-width:1;" width="888.3193" x="20" y="874.3281"/><rect fill="#FAFAFA" height="146.8438" style="stroke:#CCCCCC;stroke-width:1.5;" width="713.541" x="30" y="897.2969"/><rect fill="#FAFAFA" height="86.9063" style="stroke:#CCCCCC;stroke-width:1.5;" width="693.541" x="40" y="920.2656"/><rect fill="#FAFAFA" height="42.9688" style="stroke:none;stroke-width:1;" width="693.541" x="40" y="964.2031"/><rect fill="#FAFAFA" height="29.9688" style="stroke:none;stroke-width:1;" width="713.541" x="30" y="1014.1719"/><g class="participant-lifeline" data-entity-uid="part1" data-qualified-name="UI" data-source-line="13" id="part1-lifeline"><g><title>Browser</title><rect fill="#000000" fill-opacity="0.00000" height="1048.75" width="8" x="78.2861" y="116.2344"/><line style="stroke:#AAAAAA;stroke-width:0.5;stroke-dasharray:5,5;" x1="82" x2="82" y1="116.2344" y2="1164.9844"/></g></g><g class="participant-lifeline" data-entity-uid="part2" data-qualified-name="WS" data-source-line="14" id="part2-lifeline"><g><title>API</title><rect fill="#000000" fill-opacity="0.00000" height="1048.75" width="8" x="593.5596" y="116.2344"/><line style="stroke:#AAAAAA;stroke-width:0.5;stroke-dasharray:5,5;" x1="596.8242" x2="596.8242" y1="116.2344" y2="1164.9844"/></g></g><g class="participant-lifeline" data-entity-uid="part3" data-qualified-name="DB" data-source-line="15" id="part3-lifeline"><g><title>TimescaleDB</title><rect fill="#000000" fill-opacity="0.00000" height="1048.75" width="8" x="968.79" y="116.2344"/><line style="stroke:#AAAAAA;stroke-width:0.5;stroke-dasharray:5,5;" x1="972.6055" x2="972.6055" y1="116.2344" y2="1164.9844"/></g></g><g class="participant-lifeline" data-entity-uid="part4" data-qualified-name="R" data-source-line="16" id="part4-lifeline"><g><title>Redis</title><rect fill="#000000" fill-opacity="0.00000" height="1048.75" width="8" x="1086.3223" y="116.2344"/><line style="stroke:#AAAAAA;stroke-width:0.5;stroke-dasharray:5,5;" x1="1089.9746" x2="1089.9746" y1="116.2344" y2="1164.9844"/></g></g><g class="participant participant-head" data-entity-uid="part1" data-qualified-name="UI" data-source-line="13" id="part1-head"><rect fill="#E0E7FF" height="27.9688" rx="2.5" ry="2.5" style="stroke:#888888;stroke-width:0.5;" width="64.5723" x="50" y="87.2656"/><text fill="#000000" font-family="monospace" font-size="12" lengthAdjust="spacing" textLength="50.5723" x="57" y="105.4043">Browser</text></g><g class="participant participant-tail" data-entity-uid="part1" data-qualified-name="UI" data-source-line="13" id="part1-tail"><rect fill="#E0E7FF" height="27.9688" rx="2.5" ry="2.5" style="stroke:#888888;stroke-width:0.5;" width="64.5723" x="50" y="1163.9844"/><text fill="#000000" font-family="monospace" font-size="12" lengthAdjust="spacing" textLength="50.5723" x="57" y="1182.123">Browser</text></g><g class="participant participant-head" data-entity-uid="part2" data-qualified-name="WS" data-source-line="14" id="part2-head"><rect fill="#DBEAFE" height="41.9375" rx="2.5" ry="2.5" style="stroke:#888888;stroke-width:0.5;" width="93.4707" x="550.8242" y="73.2969"/><text fill="#000000" font-family="monospace" font-size="12" lengthAdjust="spacing" textLength="21.6738" x="586.7227" y="91.4355">API</text><text fill="#000000" font-family="monospace" font-size="12" lengthAdjust="spacing" textLength="79.4707" x="557.8242" y="105.4043">wsServer.ts</text></g><g class="participant participant-tail" data-entity-uid="part2" data-qualified-name="WS" data-source-line="14" id="part2-tail"><rect fill="#DBEAFE" height="41.9375" rx="2.5" ry="2.5" style="stroke:#888888;stroke-width:0.5;" width="93.4707" x="550.8242" y="1163.9844"/><text fill="#000000" font-family="monospace" font-size="12" lengthAdjust="spacing" textLength="21.6738" x="586.7227" y="1182.123">API</text><text fill="#000000" font-family="monospace" font-size="12" lengthAdjust="spacing" textLength="79.4707" x="557.8242" y="1196.0918">wsServer.ts</text></g><g class="participant participant-head" data-entity-uid="part3" data-qualified-name="DB" data-source-line="15" id="part3-head"><text fill="#000000" font-family="monospace" font-size="12" lengthAdjust="spacing" textLength="79.4707" x="930.0547" y="99.4355">TimescaleDB</text><text fill="#000000" font-family="monospace" font-size="12" lengthAdjust="spacing" textLength="108.3691" x="915.6055" y="113.4043">user_workspaces</text><path d="M954.79,52.2969 C954.79,42.2969 972.79,42.2969 972.79,42.2969 C972.79,42.2969 990.79,42.2969 990.79,52.2969 L990.79,78.2969 C990.79,88.2969 972.79,88.2969 972.79,88.2969 C972.79,88.2969 954.79,88.2969 954.79,78.2969 L954.79,52.2969" fill="#FEF9C3" style="stroke:#181818;stroke-width:0.5;"/><path d="M954.79,52.2969 C954.79,62.2969 972.79,62.2969 972.79,62.2969 C972.79,62.2969 990.79,62.2969 990.79,52.2969" fill="none" style="stroke:#181818;stroke-width:0.5;"/></g><g class="participant participant-tail" data-entity-uid="part3" data-qualified-name="DB" data-source-line="15" id="part3-tail"><text fill="#000000" font-family="monospace" font-size="12" lengthAdjust="spacing" textLength="79.4707" x="930.0547" y="1175.123">TimescaleDB</text><text fill="#000000" font-family="monospace" font-size="12" lengthAdjust="spacing" textLength="108.3691" x="915.6055" y="1189.0918">user_workspaces</text><path d="M954.79,1201.9219 C954.79,1191.9219 972.79,1191.9219 972.79,1191.9219 C972.79,1191.9219 990.79,1191.9219 990.79,1201.9219 L990.79,1227.9219 C990.79,1237.9219 972.79,1237.9219 972.79,1237.9219 C972.79,1237.9219 954.79,1237.9219 954.79,1227.9219 L954.79,1201.9219" fill="#FEF9C3" style="stroke:#181818;stroke-width:0.5;"/><path d="M954.79,1201.9219 C954.79,1211.9219 972.79,1211.9219 972.79,1211.9219 C972.79,1211.9219 990.79,1211.9219 990.79,1201.9219" fill="none" style="stroke:#181818;stroke-width:0.5;"/></g><g class="participant participant-head" data-entity-uid="part4" data-qualified-name="R" data-source-line="16" id="part4-head"><rect fill="#FEF9C3" height="41.9375" rx="2.5" ry="2.5" style="stroke:#888888;stroke-width:0.5;" width="100.6953" x="1039.9746" y="73.2969"/><text fill="#000000" font-family="monospace" font-size="12" lengthAdjust="spacing" textLength="36.123" x="1072.2607" y="91.4355">Redis</text><text fill="#000000" font-family="monospace" font-size="12" lengthAdjust="spacing" textLength="86.6953" x="1046.9746" y="105.4043">alert-events</text></g><g class="participant participant-tail" data-entity-uid="part4" data-qualified-name="R" data-source-line="16" id="part4-tail"><rect fill="#FEF9C3" height="41.9375" rx="2.5" ry="2.5" style="stroke:#888888;stroke-width:0.5;" width="100.6953" x="1039.9746" y="1163.9844"/><text fill="#000000" font-family="monospace" font-size="12" lengthAdjust="spacing" textLength="36.123" x="1072.2607" y="1182.123">Redis</text><text fill="#000000" font-family="monospace" font-size="12" lengthAdjust="spacing" textLength="86.6953" x="1046.9746" y="1196.0918">alert-events</text></g><g class="message" data-entity-1="part1" data-entity-2="part2" data-source-line="18" id="msg1"><polygon fill="#181818" points="585.5596,142.2031,595.5596,146.2031,585.5596,150.2031,589.5596,146.2031" style="stroke:#181818;stroke-width:1;stroke-linejoin:miter;stroke-miterlimit:10;"/><line style="stroke:#181818;stroke-width:1.5;" x1="82.2861" x2="591.5596" y1="146.2031" y2="146.2031"/><text fill="#000000" font-family="monospace" font-size="12" lengthAdjust="spacing" textLength="281.7598" x="89.2861" y="141.373">WebSocket&#160;upgrade&#160;(sentinel_jwt&#160;cookie)</text></g><g class="message" data-entity-1="part2" data-entity-2="part2" data-source-line="19" id="msg2"><line style="stroke:#181818;stroke-width:1.5;" x1="597.5596" x2="639.5596" y1="174.1719" y2="174.1719"/><line style="stroke:#181818;stroke-width:1.5;" x1="639.5596" x2="639.5596" y1="174.1719" y2="187.1719"/><line style="stroke:#181818;stroke-width:1.5;" x1="598.5596" x2="639.5596" y1="187.1719" y2="187.1719"/><polygon fill="#181818" points="608.5596,183.1719,598.5596,187.1719,608.5596,191.1719,604.5596,187.1719" style="stroke:#181818;stroke-width:1;stroke-linejoin:miter;stroke-miterlimit:10;"/><text fill="#000000" font-family="monospace" font-size="12" lengthAdjust="spacing" textLength="252.8613" x="604.5596" y="169.3418">verify&#160;JWT&#160;once,&#160;at&#160;connection&#160;open</text></g><path d="M540.8242,202.1719 L607.498,202.1719 L607.498,208.1406 L597.498,218.1406 L540.8242,218.1406 L540.8242,202.1719" fill="#EEEEEE" style="stroke:#CCCCCC;stroke-width:1.5;"/><rect fill="none" height="308.5313" style="stroke:#CCCCCC;stroke-width:1.5;" width="499.1504" x="540.8242" y="202.1719"/><text fill="#000000" font-family="monospace" font-size="12" font-weight="700" lengthAdjust="spacing" textLength="21.6738" x="555.8242" y="214.3105">alt</text><text fill="#000000" font-family="monospace" font-size="12" font-weight="700" lengthAdjust="spacing" textLength="130.043" x="622.498" y="215.3105">[role&#160;==&#160;operator]</text><g class="message" data-entity-1="part2" data-entity-2="part3" data-source-line="22" id="msg3"><polygon fill="#181818" points="960.79,234.1094,970.79,238.1094,960.79,242.1094,964.79,238.1094" style="stroke:#181818;stroke-width:1;stroke-linejoin:miter;stroke-miterlimit:10;"/><line style="stroke:#181818;stroke-width:1.5;" x1="597.5596" x2="966.79" y1="238.1094" y2="238.1094"/><text fill="#000000" font-family="monospace" font-size="12" lengthAdjust="spacing" textLength="296.209" x="604.5596" y="233.2793">SELECT&#160;scope&#160;WHERE&#160;user_id&#160;=&#160;$jwt.user_id</text></g><path d="M602,251.1094 L602,330.1094 L926,330.1094 L926,261.1094 L916,251.1094 L602,251.1094" fill="#FAFAFA" style="stroke:#AAAAAA;stroke-width:0.5;"/><path d="M916,251.1094 L916,261.1094 L926,261.1094 L916,251.1094" fill="#FAFAFA" style="stroke:#AAAAAA;stroke-width:0.5;"/><text fill="#000000" font-family="monospace" font-size="12" lengthAdjust="spacing" textLength="260.0859" x="608" y="267.248">Connection&#160;state&#160;starts&#160;fail-closed:</text><text fill="#000000" font-family="monospace" font-size="12" lengthAdjust="spacing" textLength="303.4336" x="608" y="281.2168">operatorScope&#160;=&#160;null,&#160;scopeLoaded&#160;=&#160;false.</text><text fill="#000000" font-family="monospace" font-size="12" lengthAdjust="spacing" textLength="288.9844" x="608" y="295.1855">Any&#160;alert-events&#160;message&#160;arriving&#160;before</text><text fill="#000000" font-family="monospace" font-size="12" lengthAdjust="spacing" textLength="274.5352" x="608" y="309.1543">this&#160;SELECT&#160;resolves&#160;is&#160;skipped,&#160;never</text><text fill="#000000" font-family="monospace" font-size="12" lengthAdjust="spacing" textLength="151.7168" x="608" y="323.123">delivered&#160;on&#160;a&#160;guess.</text><g class="message" data-entity-1="part3" data-entity-2="part2" data-source-line="30" id="msg4"><polygon fill="#181818" points="608.5596,351.9219,598.5596,355.9219,608.5596,359.9219,604.5596,355.9219" style="stroke:#181818;stroke-width:1;stroke-linejoin:miter;stroke-miterlimit:10;"/><line style="stroke:#181818;stroke-width:1.5;stroke-dasharray:2,2;" x1="602.5596" x2="971.79" y1="355.9219" y2="355.9219"/><text fill="#000000" font-family="monospace" font-size="12" lengthAdjust="spacing" textLength="130.043" x="614.5596" y="351.0918">scope&#160;row,&#160;or&#160;none</text></g><g class="message" data-entity-1="part2" data-entity-2="part2" data-source-line="31" id="msg5"><line style="stroke:#181818;stroke-width:1.5;" x1="597.5596" x2="639.5596" y1="397.8594" y2="397.8594"/><line style="stroke:#181818;stroke-width:1.5;" x1="639.5596" x2="639.5596" y1="397.8594" y2="410.8594"/><line style="stroke:#181818;stroke-width:1.5;" x1="598.5596" x2="639.5596" y1="410.8594" y2="410.8594"/><polygon fill="#181818" points="608.5596,406.8594,598.5596,410.8594,608.5596,414.8594,604.5596,410.8594" style="stroke:#181818;stroke-width:1;stroke-linejoin:miter;stroke-miterlimit:10;"/><text fill="#000000" font-family="monospace" font-size="12" lengthAdjust="spacing" textLength="252.8613" x="604.5596" y="379.0605">state.operatorScope&#160;=&#160;scope&#160;??&#160;null</text><text fill="#000000" font-family="monospace" font-size="12" lengthAdjust="spacing" textLength="173.3906" x="604.5596" y="393.0293">state.scopeLoaded&#160;=&#160;true</text></g><line style="stroke:#CCCCCC;stroke-width:1;stroke-dasharray:2,2;" x1="540.8242" x2="1039.9746" y1="419.8594" y2="419.8594"/><text fill="#000000" font-family="monospace" font-size="12" font-weight="700" lengthAdjust="spacing" textLength="101.1445" x="545.8242" y="430.998">[role&#160;==&#160;demo]</text><path d="M602,439.8281 L602,504.8281 L933,504.8281 L933,449.8281 L923,439.8281 L602,439.8281" fill="#FAFAFA" style="stroke:#AAAAAA;stroke-width:0.5;"/><path d="M923,439.8281 L923,449.8281 L933,449.8281 L923,439.8281" fill="#FAFAFA" style="stroke:#AAAAAA;stroke-width:0.5;"/><text fill="#000000" font-family="monospace" font-size="12" lengthAdjust="spacing" textLength="296.209" x="608" y="455.9668">No&#160;DB&#160;lookup.&#160;Demo&#160;reuses&#160;positionBBox&#160;--</text><text fill="#000000" font-family="monospace" font-size="12" lengthAdjust="spacing" textLength="310.6582" x="608" y="469.9355">the&#160;same&#160;bbox&#160;already&#160;sent&#160;via&#160;the&#160;existing</text><text fill="#000000" font-family="monospace" font-size="12" lengthAdjust="spacing" textLength="310.6582" x="608" y="483.9043">"subscribe"&#160;message&#160;for&#160;position&#160;filtering,</text><text fill="#000000" font-family="monospace" font-size="12" lengthAdjust="spacing" textLength="144.4922" x="608" y="497.873">not&#160;a&#160;new&#160;mechanism.</text><g class="message" data-entity-1="part1" data-entity-2="part2" data-source-line="41" id="msg6"><polygon fill="#181818" points="585.5596,533.6719,595.5596,537.6719,585.5596,541.6719,589.5596,537.6719" style="stroke:#181818;stroke-width:1;stroke-linejoin:miter;stroke-miterlimit:10;"/><line style="stroke:#181818;stroke-width:1.5;" x1="82.2861" x2="591.5596" y1="537.6719" y2="537.6719"/><text fill="#000000" font-family="monospace" font-size="12" lengthAdjust="spacing" textLength="238.4121" x="89.2861" y="532.8418">{"type":"subscribe","bbox":[...]}</text></g><g class="message" data-entity-1="part2" data-entity-2="part2" data-source-line="42" id="msg7"><line style="stroke:#181818;stroke-width:1.5;" x1="597.5596" x2="639.5596" y1="579.6094" y2="579.6094"/><line style="stroke:#181818;stroke-width:1.5;" x1="639.5596" x2="639.5596" y1="579.6094" y2="592.6094"/><line style="stroke:#181818;stroke-width:1.5;" x1="598.5596" x2="639.5596" y1="592.6094" y2="592.6094"/><polygon fill="#181818" points="608.5596,588.6094,598.5596,592.6094,608.5596,596.6094,604.5596,592.6094" style="stroke:#181818;stroke-width:1;stroke-linejoin:miter;stroke-miterlimit:10;"/><text fill="#000000" font-family="monospace" font-size="12" lengthAdjust="spacing" textLength="180.6152" x="604.5596" y="560.8105">state.positionBBox&#160;=&#160;bbox</text><text fill="#000000" font-family="monospace" font-size="12" lengthAdjust="spacing" textLength="361.2305" x="604.5596" y="574.7793">(also&#160;feeds&#160;position-updates&#160;filtering,&#160;unchanged)</text></g><rect fill="#EEEEEE" height="3" style="stroke:#EEEEEE;stroke-width:1;" width="1145.6699" x="0" y="620.5938"/><line style="stroke:#000000;stroke-width:1;" x1="0" x2="1145.6699" y1="620.5938" y2="620.5938"/><line style="stroke:#000000;stroke-width:1;" x1="0" x2="1145.6699" y1="623.5938" y2="623.5938"/><rect fill="#EEEEEE" height="21.9688" style="stroke:#000000;stroke-width:2;" width="129.5938" x="508.0381" y="610.6094"/><text fill="#000000" font-family="monospace" font-size="12" font-weight="700" lengthAdjust="spacing" textLength="108.3691" x="514.0381" y="625.748">some&#160;time&#160;later</text><g class="message" data-entity-1="part4" data-entity-2="part2" data-source-line="46" id="msg8"><polygon fill="#181818" points="608.5596,658.5469,598.5596,662.5469,608.5596,666.5469,604.5596,662.5469" style="stroke:#181818;stroke-width:1;stroke-linejoin:miter;stroke-miterlimit:10;"/><line style="stroke:#181818;stroke-width:1.5;" x1="602.5596" x2="1089.3223" y1="662.5469" y2="662.5469"/><text fill="#000000" font-family="monospace" font-size="12" lengthAdjust="spacing" textLength="267.3105" x="614.5596" y="657.7168">alert-events&#160;message&#160;(PublishedAlert)</text></g><path d="M10,677.5469 L83.8984,677.5469 L83.8984,683.5156 L73.8984,693.5156 L10,693.5156 L10,677.5469" fill="#EEEEEE" style="stroke:#CCCCCC;stroke-width:1.5;"/><rect fill="none" height="380.5938" style="stroke:#CCCCCC;stroke-width:1.5;" width="908.3193" x="10" y="677.5469"/><text fill="#000000" font-family="monospace" font-size="12" font-weight="700" lengthAdjust="spacing" textLength="28.8984" x="25" y="689.6855">loop</text><text fill="#000000" font-family="monospace" font-size="12" font-weight="700" lengthAdjust="spacing" textLength="195.0645" x="98.8984" y="690.6855">[for&#160;every&#160;open&#160;connection]</text><path d="M20,700.5156 L86.6738,700.5156 L86.6738,706.4844 L76.6738,716.4844 L20,716.4844 L20,700.5156" fill="#EEEEEE" style="stroke:#CCCCCC;stroke-width:1.5;"/><rect fill="none" height="350.625" style="stroke:#CCCCCC;stroke-width:1.5;" width="888.3193" x="20" y="700.5156"/><text fill="#000000" font-family="monospace" font-size="12" font-weight="700" lengthAdjust="spacing" textLength="21.6738" x="35" y="712.6543">alt</text><text fill="#000000" font-family="monospace" font-size="12" font-weight="700" lengthAdjust="spacing" textLength="130.043" x="101.6738" y="713.6543">[role&#160;==&#160;operator]</text><path d="M40,723.4844 L106.6738,723.4844 L106.6738,729.4531 L96.6738,739.4531 L40,739.4531 L40,723.4844" fill="#EEEEEE" style="stroke:#CCCCCC;stroke-width:1.5;"/><rect fill="none" height="143.8438" style="stroke:#CCCCCC;stroke-width:1.5;" width="858.3193" x="40" y="723.4844"/><text fill="#000000" font-family="monospace" font-size="12" font-weight="700" lengthAdjust="spacing" textLength="21.6738" x="55" y="735.623">alt</text><text fill="#000000" font-family="monospace" font-size="12" font-weight="700" lengthAdjust="spacing" textLength="310.6582" x="121.6738" y="736.623">[not&#160;scopeLoaded,&#160;or&#160;operatorScope&#160;is&#160;null]</text><g class="message" data-entity-1="part2" data-entity-2="part2" data-source-line="51" id="msg9"><line style="stroke:#181818;stroke-width:1.5;" x1="597.5596" x2="639.5596" y1="759.4219" y2="759.4219"/><line style="stroke:#181818;stroke-width:1.5;" x1="639.5596" x2="639.5596" y1="759.4219" y2="772.4219"/><line style="stroke:#181818;stroke-width:1.5;" x1="598.5596" x2="639.5596" y1="772.4219" y2="772.4219"/><polygon fill="#181818" points="608.5596,768.4219,598.5596,772.4219,608.5596,776.4219,604.5596,772.4219" style="stroke:#181818;stroke-width:1;stroke-linejoin:miter;stroke-miterlimit:10;"/><text fill="#000000" font-family="monospace" font-size="12" lengthAdjust="spacing" textLength="281.7598" x="604.5596" y="754.5918">skip&#160;(fail&#160;closed&#160;/&#160;no&#160;saved&#160;workspace)</text></g><line style="stroke:#CCCCCC;stroke-width:1;stroke-dasharray:2,2;" x1="40" x2="898.3193" y1="781.4219" y2="781.4219"/><text fill="#000000" font-family="monospace" font-size="12" font-weight="700" lengthAdjust="spacing" textLength="260.0859" x="45" y="792.5605">[matchesScope(alert,&#160;operatorScope)]</text><g class="message" data-entity-1="part2" data-entity-2="part1" data-source-line="53" id="msg10"><polygon fill="#181818" points="93.2861,812.3594,83.2861,816.3594,93.2861,820.3594,89.2861,816.3594" style="stroke:#181818;stroke-width:1;stroke-linejoin:miter;stroke-miterlimit:10;"/><line style="stroke:#181818;stroke-width:1.5;" x1="87.2861" x2="596.5596" y1="816.3594" y2="816.3594"/><text fill="#000000" font-family="monospace" font-size="12" lengthAdjust="spacing" textLength="50.5723" x="99.2861" y="811.5293">deliver</text></g><line style="stroke:#CCCCCC;stroke-width:1;stroke-dasharray:2,2;" x1="40" x2="898.3193" y1="825.3594" y2="825.3594"/><g class="message" data-entity-1="part2" data-entity-2="part2" data-source-line="55" id="msg11"><line style="stroke:#181818;stroke-width:1.5;" x1="597.5596" x2="639.5596" y1="846.3281" y2="846.3281"/><line style="stroke:#181818;stroke-width:1.5;" x1="639.5596" x2="639.5596" y1="846.3281" y2="859.3281"/><line style="stroke:#181818;stroke-width:1.5;" x1="598.5596" x2="639.5596" y1="859.3281" y2="859.3281"/><polygon fill="#181818" points="608.5596,855.3281,598.5596,859.3281,608.5596,863.3281,604.5596,859.3281" style="stroke:#181818;stroke-width:1;stroke-linejoin:miter;stroke-miterlimit:10;"/><text fill="#000000" font-family="monospace" font-size="12" lengthAdjust="spacing" textLength="137.2676" x="604.5596" y="841.498">skip&#160;(out&#160;of&#160;scope)</text></g><line style="stroke:#CCCCCC;stroke-width:1;stroke-dasharray:2,2;" x1="20" x2="908.3193" y1="875.3281" y2="875.3281"/><text fill="#000000" font-family="monospace" font-size="12" font-weight="700" lengthAdjust="spacing" textLength="101.1445" x="25" y="886.4668">[role&#160;==&#160;demo]</text><path d="M30,897.2969 L96.6738,897.2969 L96.6738,903.2656 L86.6738,913.2656 L30,913.2656 L30,897.2969" fill="#EEEEEE" style="stroke:#CCCCCC;stroke-width:1.5;"/><rect fill="none" height="146.8438" style="stroke:#CCCCCC;stroke-width:1.5;" width="713.541" x="30" y="897.2969"/><text fill="#000000" font-family="monospace" font-size="12" font-weight="700" lengthAdjust="spacing" textLength="21.6738" x="45" y="909.4355">alt</text><text fill="#000000" font-family="monospace" font-size="12" font-weight="700" lengthAdjust="spacing" textLength="130.043" x="111.6738" y="910.4355">[positionBBox&#160;set]</text><path d="M40,920.2656 L106.6738,920.2656 L106.6738,926.2344 L96.6738,936.2344 L40,936.2344 L40,920.2656" fill="#EEEEEE" style="stroke:#CCCCCC;stroke-width:1.5;"/><rect fill="none" height="86.9063" style="stroke:#CCCCCC;stroke-width:1.5;" width="693.541" x="40" y="920.2656"/><text fill="#000000" font-family="monospace" font-size="12" font-weight="700" lengthAdjust="spacing" textLength="21.6738" x="55" y="932.4043">alt</text><text fill="#000000" font-family="monospace" font-size="12" font-weight="700" lengthAdjust="spacing" textLength="606.8672" x="121.6738" y="933.4043">[matchesScope(alert,&#160;{bounds:&#160;positionBBox,&#160;entity_types:&#160;null,&#160;alert_types:&#160;null})]</text><g class="message" data-entity-1="part2" data-entity-2="part1" data-source-line="60" id="msg12"><polygon fill="#181818" points="93.2861,952.2031,83.2861,956.2031,93.2861,960.2031,89.2861,956.2031" style="stroke:#181818;stroke-width:1;stroke-linejoin:miter;stroke-miterlimit:10;"/><line style="stroke:#181818;stroke-width:1.5;" x1="87.2861" x2="596.5596" y1="956.2031" y2="956.2031"/><text fill="#000000" font-family="monospace" font-size="12" lengthAdjust="spacing" textLength="50.5723" x="99.2861" y="951.373">deliver</text></g><line style="stroke:#CCCCCC;stroke-width:1;stroke-dasharray:2,2;" x1="40" x2="733.541" y1="965.2031" y2="965.2031"/><g class="message" data-entity-1="part2" data-entity-2="part2" data-source-line="62" id="msg13"><line style="stroke:#181818;stroke-width:1.5;" x1="597.5596" x2="639.5596" y1="986.1719" y2="986.1719"/><line style="stroke:#181818;stroke-width:1.5;" x1="639.5596" x2="639.5596" y1="986.1719" y2="999.1719"/><line style="stroke:#181818;stroke-width:1.5;" x1="598.5596" x2="639.5596" y1="999.1719" y2="999.1719"/><polygon fill="#181818" points="608.5596,995.1719,598.5596,999.1719,608.5596,1003.1719,604.5596,999.1719" style="stroke:#181818;stroke-width:1;stroke-linejoin:miter;stroke-miterlimit:10;"/><text fill="#000000" font-family="monospace" font-size="12" lengthAdjust="spacing" textLength="28.8984" x="604.5596" y="981.3418">skip</text></g><line style="stroke:#CCCCCC;stroke-width:1;stroke-dasharray:2,2;" x1="30" x2="743.541" y1="1015.1719" y2="1015.1719"/><g class="message" data-entity-1="part2" data-entity-2="part1" data-source-line="65" id="msg14"><polygon fill="#181818" points="93.2861,1032.1406,83.2861,1036.1406,93.2861,1040.1406,89.2861,1036.1406" style="stroke:#181818;stroke-width:1;stroke-linejoin:miter;stroke-miterlimit:10;"/><line style="stroke:#181818;stroke-width:1.5;" x1="87.2861" x2="596.5596" y1="1036.1406" y2="1036.1406"/><text fill="#000000" font-family="monospace" font-size="12" lengthAdjust="spacing" textLength="491.2734" x="99.2861" y="1031.3105">deliver&#160;(no&#160;bbox&#160;yet&#160;--&#160;unfiltered,&#160;same&#160;default&#160;as&#160;CP2's&#160;REST&#160;path)</text></g><path d="M548,1070.1406 L548,1149.1406 L1022,1149.1406 L1022,1080.1406 L1012,1070.1406 L548,1070.1406" fill="#FAFAFA" style="stroke:#AAAAAA;stroke-width:0.5;"/><path d="M1012,1070.1406 L1012,1080.1406 L1022,1080.1406 L1012,1070.1406" fill="#FAFAFA" style="stroke:#AAAAAA;stroke-width:0.5;"/><text fill="#000000" font-family="monospace" font-size="12" lengthAdjust="spacing" textLength="339.5566" x="610.7969" y="1086.2793">Scope&#160;loads&#160;exactly&#160;once,&#160;at&#160;connection&#160;open&#160;--</text><text fill="#000000" font-family="monospace" font-size="12" lengthAdjust="spacing" textLength="310.6582" x="610.7969" y="1100.248">not&#160;re-checked&#160;per&#160;message.&#160;An&#160;operator&#160;who</text><text fill="#000000" font-family="monospace" font-size="12" lengthAdjust="spacing" textLength="339.5566" x="610.7969" y="1114.2168">changes&#160;their&#160;saved&#160;scope&#160;while&#160;connected&#160;keeps</text><text fill="#000000" font-family="monospace" font-size="12" lengthAdjust="spacing" textLength="339.5566" x="610.7969" y="1128.1855">seeing&#160;the&#160;OLD&#160;scope&#160;until&#160;they&#160;reconnect;&#160;that</text><text fill="#000000" font-family="monospace" font-size="12" lengthAdjust="spacing" textLength="332.332" x="610.7969" y="1142.1543">reconnect&#160;trigger&#160;is&#160;CP4,&#160;not&#160;this&#160;checkpoint.</text><?plantuml-src ZLNlZnet4Fs-VyM8grHEWcsJD6fBTOs0WpRHDKN7LVUXLvtCxW0knjxQNWYDyh_tsGiBcu3KFHrQx3U_thmPlFIAwP5dKvEjs9DGR7sNDwozesbc2gQnL9wjr0jg3oUlhfF4hQGkX1LhodakIkN7HlltOitqcz765IBZ_3neAlzbUl7ovDBnFoNhZFlMckt3KcOhpSxHY_Jr6T14M2ypMGZj1yRcR8T66KjNFyJdZC6TdEDVSmFTZyy9MXl_Vn0YMosiANM-HutxuUzCr5-0AXeEX_6v3CrtbxmdnR5cQWr0acFR8k7eZxTqDVfszFrutCJq9s-VzDPDsMxOfjv5yEEKhcu7e_vubEJ2YvbmJAq7kMQNeUEtWoTTmk_prjXLx5zbTJj07gFnZyDNpH3td4ltf4-r4l7tDJn1TjsVGzZUYRZAOc55pjHsC45RrFFVMq-PCIl9rmd01nDaBkSxUlVuG0OiTKW4cDQSUMaqGPKwIOJoP0tKUtCJJgpmnYP4bHkatgFfw6uqV20NPVpuw-X-HB5CcTCDVONOwVuhp4ABoSh5qfEPmmcEY8R7cCuB0F1fCHXp8LKtKyPntel0G_ngOcv8bqfrgi1t1YM7W7EX7ASHtjUxvgIX4Kuic8IrSXD6RSPpOpc2_LAwGocMdL4RTeGZgAaeEE-GXXCReJahYNU4GyQ25YNSXeYiyrWWNa5Czq1pHGmqrI58JXlDDN_LVQWv_RosokhDcrZaawv0pLAzBJbXb5itAEUrkSJoUnEoKf11MQHq2oJgH6SS5SR9mFvWO3uWxJqTQ4DODhCP3eMoBF8T1KNHHefupH-aWxuM4TzovSnbLiwuLTCCRclVD3_ijqx48qLGftaBTBOKMhfrWqAyDEJziULt1RTw9t4whP1Rg_TdcgP_VKg-OBHHraqiv4ct8Gz3S-RyM7UtB32k8EAO8vKwPBNW79iOn3e3AZmccHIG5bmdoNqTxwp8sfDofgHRSjuFr_03xej8Ib3IBixNoRoX-WkpLbq4naxw7yNK50tK6iGIBPeAWuQf7SQ9gd6YR-0E_TtWjTv6rz4mwcajVBPa5zssOtMTPgphHX3qgNUOYjh9fJHC6LNfZcv2h_U1FnDoLNcZaOxztdEuEfVenrbOyAxNiEjGM8P-znnaXBjgTKIBqwDFXy8kbjOexelo3f1OqHaUJjrH6ps8uxN3rkvseRbAWA6vSVRsl-bXwGydBx_6wXzD7wWGVjaW3fznNEBOc-3vSTh1iEEk4eQ2OXpcLMHUxIxk-chqWymiTy4gVanoGjCFYawnK6iLq7OP6bGDYGlxGDgzeAhDjLrAj78V0gShviB1mZ67pHiMoEztjtjmYTweSBP3xBtDJ_WkGg_h4omykLWW8Hdu-AuJSurxEsPR6AbzcjGhv3y0?></g></svg>